<svg xmlns="http://www.w3.org/2000/svg" xmlns:xlink="http://www.w3.org/1999/xlink" version="1.1" x="0px" y="0px" viewBox="0 0 100 125" enable-background="new 0 0 100 100" xml:space="preserve"><g><g><path d="M30.285,13.076c-5.715,3.861-9.265,11.344-9.265,19.53c0,0.69,0.56,1.25,1.25,1.25s1.25-0.56,1.25-1.25    c0-7.367,3.129-14.056,8.165-17.458c0.571-0.386,0.722-1.163,0.336-1.735C31.634,12.839,30.857,12.689,30.285,13.076z"/><path d="M64.925,11.863c-2.688,0-5.3,0.582-7.778,1.725C52.614,7.563,45.976,3.75,38.585,3.75    c-13.625,0-24.709,12.945-24.709,28.856c0,15.165,10.07,27.626,22.811,28.763L34.11,66.11c-0.258,0.475-0.182,1.062,0.189,1.455    c0.109,0.116,0.904,0.904,2.503,1.299c-3.403,7.236-1.96,14.24-0.088,17.146l0.214,0.331c1.377,2.135,4.243,6.577,4.644,8.874    c0.105,0.607,0.634,1.035,1.23,1.035c0.07,0,0.143-0.006,0.216-0.019c0.68-0.119,1.135-0.766,1.017-1.446    c-0.45-2.58-2.82-6.411-5.006-9.799l-0.213-0.329c-1.392-2.16-2.962-8.729,0.699-15.611c2.374-0.215,3.527-1.34,3.661-1.481    c0.371-0.393,0.447-0.98,0.189-1.455l-2.591-4.767c4.283-0.442,8.257-2.158,11.636-4.831c3.101,2.649,6.774,4.282,10.6,4.689    l-2.056,3.781c-0.258,0.475-0.182,1.062,0.19,1.456c0.114,0.121,1.058,1.057,2.985,1.298c1.436,4.555,0.592,5.876-0.302,7.265    c-0.91,1.414-1.942,3.016-0.798,6.78c0.16,0.525,0.426,1.147,0.732,1.868c1.125,2.642,2.825,6.634,1.67,11.033    c-0.176,0.667,0.224,1.351,0.892,1.526c0.106,0.028,0.213,0.042,0.318,0.042c0.554,0,1.061-0.372,1.208-0.933    c1.372-5.226-0.606-9.872-1.788-12.647c-0.278-0.654-0.52-1.219-0.64-1.616c-0.809-2.656-0.257-3.513,0.507-4.699    c1.02-1.583,2.259-3.531,0.767-8.749c1.445-0.346,2.169-1.064,2.268-1.169c0.371-0.393,0.447-0.98,0.189-1.455l-2.066-3.803    c10.678-1.268,19.036-11.814,19.036-24.595C86.124,22.953,76.614,11.863,64.925,11.863z M16.376,32.606    c0-14.533,9.963-26.356,22.209-26.356c6.972,0,13.201,3.834,17.276,9.816c0.316,0.466,0.619,0.943,0.907,1.432    c0.059,0.098,0.119,0.194,0.176,0.293c0.315,0.549,0.61,1.113,0.889,1.688c0.04,0.083,0.081,0.165,0.12,0.248    c0.288,0.609,0.557,1.23,0.803,1.864c0.013,0.032,0.024,0.064,0.037,0.096c0.773,2.017,1.333,4.146,1.66,6.332    c0.006,0.042,0.013,0.083,0.019,0.125c0.101,0.692,0.177,1.39,0.23,2.091c0.007,0.087,0.012,0.175,0.018,0.263    c0.048,0.7,0.077,1.403,0.077,2.109c0,0.5-0.014,0.999-0.038,1.496c-0.005,0.104-0.014,0.207-0.02,0.311    c-0.024,0.41-0.054,0.818-0.094,1.225c-0.008,0.08-0.018,0.159-0.025,0.238c-0.049,0.457-0.105,0.911-0.174,1.363    c-0.003,0.019-0.006,0.037-0.009,0.056c-0.7,4.553-2.407,8.819-4.925,12.349c-0.034,0.047-0.069,0.094-0.103,0.141    c-0.226,0.311-0.457,0.614-0.694,0.913c-0.073,0.091-0.146,0.183-0.22,0.273c-0.212,0.258-0.429,0.51-0.649,0.758    c-0.085,0.095-0.167,0.193-0.253,0.287c-0.29,0.317-0.587,0.626-0.893,0.926c-0.079,0.077-0.162,0.149-0.241,0.225    c-0.234,0.223-0.471,0.442-0.713,0.654c-3.687,3.229-8.239,5.142-13.162,5.142C26.339,58.962,16.376,47.139,16.376,32.606z     M38.738,66.591c-0.83,0-1.445-0.152-1.87-0.319l1.87-3.442l1.87,3.441C40.182,66.439,39.566,66.591,38.738,66.591z     M65.056,65.294c-0.558,0-0.995-0.083-1.322-0.187l1.322-2.431l1.32,2.43C66.048,65.21,65.612,65.294,65.056,65.294z     M64.925,58.808c-3.845,0-7.49-1.357-10.618-3.939c0.609-0.588,1.186-1.214,1.739-1.863c0.002-0.002,0.004-0.004,0.006-0.007    c0.234-0.273,0.461-0.554,0.685-0.837c0.077-0.097,0.153-0.194,0.229-0.293c0.175-0.228,0.347-0.459,0.515-0.693    c0.132-0.183,0.261-0.368,0.389-0.555c0.116-0.17,0.233-0.341,0.346-0.514c0.202-0.307,0.396-0.62,0.587-0.937    c0.04-0.067,0.082-0.132,0.122-0.199c2.248-3.799,3.735-8.254,4.207-13.066c0.004-0.043,0.01-0.085,0.014-0.128    c0.043-0.451,0.074-0.905,0.099-1.362c0.005-0.079,0.012-0.157,0.016-0.236c0.024-0.521,0.038-1.044,0.038-1.572    c0-0.695-0.028-1.382-0.07-2.065c-0.008-0.127-0.016-0.254-0.024-0.381c-0.105-1.449-0.302-2.867-0.584-4.248    c-0.004-0.022-0.009-0.045-0.013-0.067c-0.15-0.725-0.322-1.438-0.518-2.141c-0.001-0.004-0.003-0.009-0.004-0.014    c-0.195-0.699-0.411-1.386-0.649-2.06c-0.008-0.022-0.015-0.044-0.022-0.066c-0.22-0.618-0.459-1.223-0.714-1.818    c-0.067-0.158-0.138-0.314-0.207-0.471c-0.214-0.478-0.438-0.949-0.674-1.411c-0.137-0.271-0.282-0.535-0.428-0.8    c-0.162-0.296-0.328-0.589-0.5-0.878c-0.1-0.168-0.188-0.345-0.291-0.511c2.027-0.872,4.149-1.313,6.326-1.313    c10.311,0,18.699,9.969,18.699,22.222C83.624,48.839,75.235,58.808,64.925,58.808z"/></g></g><text x="0" y="115" fill="#000000" font-size="5px" font-weight="bold" font-family="'Helvetica Neue', Helvetica, Arial-Unicode, Arial, Sans-serif">Created by Eris Natansa</text><text x="0" y="120" fill="#000000" font-size="5px" font-weight="bold" font-family="'Helvetica Neue', Helvetica, Arial-Unicode, Arial, Sans-serif">from the Noun Project</text></svg>