<svg xmlns="http://www.w3.org/2000/svg" xmlns:xlink="http://www.w3.org/1999/xlink" xml:space="preserve" version="1.1" style="shape-rendering:geometricPrecision;text-rendering:geometricPrecision;image-rendering:optimizeQuality;" viewBox="0 0 378 521.25" x="0px" y="0px" fill-rule="evenodd" clip-rule="evenodd"><defs><style type="text/css">
   
    .fil0 {fill:black;fill-rule:nonzero}
   
  </style></defs><g><path class="fil0" d="M120 38l139 0 0 -20c0,-10 8,-18 18,-18l24 0c11,0 19,8 19,18l0 20 12 0c25,0 46,21 46,47l0 285c0,26 -21,47 -46,47l-285 0c-26,0 -47,-21 -47,-47l0 -285c0,-26 21,-47 47,-47l11 0 0 -20c0,-10 9,-18 19,-18l24 0c10,0 19,8 19,18l0 20zm-62 20l-11 0c-15,0 -27,12 -27,27l0 51 338 0 0 -51c0,-15 -12,-27 -26,-27l-12 0 0 20c0,11 -8,19 -19,19l-24 0c-10,0 -18,-8 -18,-19l0 -20 -139 0 0 20c0,11 -9,19 -19,19l-24 0c-10,0 -19,-8 -19,-19l0 -20zm42 -38l-22 0 0 57 22 0 0 -57zm200 0l-21 0 0 57 21 0 0 -57zm58 136l-338 0 0 214c0,15 12,27 27,27l285 0c14,0 26,-12 26,-27l0 -214z"/><path class="fil0" d="M61 198l51 0c6,0 10,5 10,10l0 40c0,5 -4,10 -10,10l-51 0c-6,0 -10,-5 -10,-11l0 -39c0,-6 5,-10 10,-10zm41 20l-31 0 0 20 31 0 0 -20z"/><path class="fil0" d="M164 198l51 0c5,0 10,5 10,10l0 40c0,5 -5,10 -11,10l-51 0c-5,0 -10,-5 -10,-11l0 -39c0,-6 5,-10 11,-10zm41 20l-32 0 0 20 32 0 0 -20z"/><path class="fil0" d="M266 198l51 0c6,0 10,5 10,10l0 40c0,5 -5,10 -10,10l-51 0c-6,0 -10,-5 -10,-11l0 -39c0,-6 4,-10 10,-10zm41 20l-31 0 0 20 31 0 0 -20z"/><path class="fil0" d="M61 295l51 0c6,0 10,4 10,10l0 39c0,6 -4,10 -10,10l-51 0c-6,0 -10,-5 -10,-10l0 -39c0,-6 5,-10 10,-10zm41 20l-31 0 0 19 31 0 0 -19z"/><path class="fil0" d="M164 295l51 0c5,0 10,4 10,10l0 39c0,6 -5,10 -11,10l-51 0c-5,0 -10,-5 -10,-10l0 -39c0,-6 5,-10 11,-10zm41 20l-32 0 0 19 32 0 0 -19z"/><path class="fil0" d="M266 295l51 0c6,0 10,4 10,10l0 39c0,6 -5,10 -10,10l-51 0c-6,0 -10,-5 -10,-10l0 -39c0,-6 4,-10 10,-10zm41 20l-31 0 0 19 31 0 0 -19z"/></g><text x="0" y="432" fill="#000000" font-size="5px" font-weight="bold" font-family="'Helvetica Neue', Helvetica, Arial-Unicode, Arial, Sans-serif">Created by Aquene Ardeen</text><text x="0" y="437" fill="#000000" font-size="5px" font-weight="bold" font-family="'Helvetica Neue', Helvetica, Arial-Unicode, Arial, Sans-serif">from the Noun Project</text></svg>