<svg xmlns="http://www.w3.org/2000/svg" xmlns:xlink="http://www.w3.org/1999/xlink" version="1.1" x="0px" y="0px" viewBox="0 0 512 640" enable-background="new 0 0 512 512" xml:space="preserve"><g><path d="M489.008,435.716L362.252,308.995c-1.563-1.562-4.096-1.562-5.656,0.001l-6.703,6.703l-51.914-51.975   c19.724-26.844,30.382-59.141,30.382-93.083c0-42.123-16.404-81.733-46.192-111.536c-29.789-29.772-69.392-46.168-111.514-46.168   c-42.122,0-81.727,16.397-111.518,46.17c-61.487,61.519-61.487,161.567,0,223.024c29.79,29.803,69.394,46.215,111.517,46.215   c33.937,0,66.235-10.66,93.085-30.386l51.969,51.925l-6.703,6.703c-0.751,0.75-1.172,1.768-1.172,2.828   c0,1.063,0.422,2.079,1.172,2.829l126.739,126.71c7.068,7.121,16.521,11.043,26.609,11.043c9.938,0,19.265-3.805,26.31-10.724   c0.121-0.098,0.236-0.198,0.347-0.311c7.084-7.081,10.984-16.537,10.984-26.626S496.092,442.797,489.008,435.716z M170.653,320.35   c-39.985,0-77.581-15.582-105.861-43.873c-58.368-58.339-58.368-153.313,0-211.709c28.279-28.262,65.874-43.826,105.86-43.826   c39.986,0,77.581,15.564,105.858,43.825c28.276,28.291,43.851,65.893,43.851,105.879c0,33.555-10.972,65.417-31.208,91.5   c-0.475,0.611-0.965,1.222-1.45,1.83c-3.478,4.338-7.202,8.519-11.188,12.504C248.233,304.768,210.638,320.35,170.653,320.35z    M270.137,293.047c4.129-3.369,8.162-7.008,12.043-10.865c3.875-3.902,7.521-7.949,10.872-12.067l51.185,51.241l-22.872,22.875   L270.137,293.047z M483.634,483.023c-0.111,0.092-0.223,0.188-0.326,0.295c-5.566,5.599-13.01,8.682-20.954,8.682   c-7.94,0-15.377-3.082-20.942-8.69L317.488,359.418l41.936-41.938l123.928,123.894c5.572,5.569,8.643,13.016,8.643,20.968   C491.992,470.158,489.027,477.486,483.634,483.023z"/><path d="M255.72,85.587c-22.721-22.724-52.931-35.238-85.067-35.238c-32.135,0-62.346,12.515-85.066,35.238   c-46.902,46.902-46.902,123.223,0,170.132c22.721,22.719,52.931,35.229,85.066,35.229c32.135,0,62.346-12.511,85.067-35.229   C302.622,208.81,302.622,132.489,255.72,85.587z M250.063,250.062c-21.21,21.208-49.412,32.886-79.41,32.886   s-58.2-11.679-79.409-32.885c-43.783-43.79-43.784-115.035,0-158.819c21.209-21.212,49.411-32.895,79.409-32.895   c29.999,0,58.2,11.682,79.41,32.895C293.848,135.027,293.848,206.272,250.063,250.062z"/><path d="M454.188,434.855c-5.164,0-10.021,2.009-13.669,5.653c-3.647,3.648-5.657,8.504-5.657,13.671s2.011,10.021,5.655,13.664   c3.649,3.652,8.507,5.663,13.674,5.663s10.021-2.012,13.662-5.661c3.648-3.646,5.658-8.499,5.658-13.666s-2.009-10.021-5.654-13.67   C464.208,436.864,459.354,434.855,454.188,434.855z M462.194,462.192c-2.137,2.139-4.979,3.314-8.007,3.314   c-3.028,0-5.873-1.178-8.016-3.318c-2.137-2.137-3.313-4.979-3.313-8.009c0-3.028,1.178-5.876,3.313-8.013s4.983-3.313,8.013-3.313   c3.03,0,5.874,1.176,8.011,3.313c2.138,2.138,3.313,4.983,3.313,8.014C465.511,457.211,464.334,460.055,462.194,462.192z"/><path d="M139.489,140.402c-1.567-1.557-4.1-1.548-5.657,0.02l-29.754,29.966c-1.549,1.56-1.549,4.077,0,5.637l29.754,29.967   c0.782,0.788,1.81,1.182,2.838,1.182c1.019,0,2.038-0.387,2.818-1.162c1.568-1.557,1.577-4.089,0.02-5.657l-26.956-27.148   l26.956-27.147C141.066,144.491,141.057,141.958,139.489,140.402z"/><path d="M207.473,140.422c-1.558-1.568-4.09-1.577-5.657-0.021c-1.567,1.557-1.577,4.089-0.021,5.657l26.952,27.147l-26.952,27.149   c-1.556,1.567-1.547,4.1,0.021,5.657c0.78,0.774,1.799,1.161,2.818,1.161c1.028,0,2.057-0.394,2.839-1.182l29.749-29.967   c1.548-1.56,1.548-4.076,0-5.636L207.473,140.422z"/><path d="M194.734,115.709c-2.063-0.792-4.376,0.236-5.169,2.299l-39.37,102.419c-0.792,2.063,0.237,4.376,2.299,5.169   c0.472,0.181,0.957,0.267,1.434,0.267c1.607,0,3.124-0.976,3.735-2.566l39.37-102.419   C197.825,118.816,196.796,116.502,194.734,115.709z"/></g><text x="0" y="527" fill="#000000" font-size="5px" font-weight="bold" font-family="'Helvetica Neue', Helvetica, Arial-Unicode, Arial, Sans-serif">Created by ibrandify</text><text x="0" y="532" fill="#000000" font-size="5px" font-weight="bold" font-family="'Helvetica Neue', Helvetica, Arial-Unicode, Arial, Sans-serif">from the Noun Project</text></svg>