<svg xmlns="http://www.w3.org/2000/svg" data-name="Layer 1" viewBox="0 0 100 125" x="0px" y="0px"><title>Artboard 1 copy 2</title><path d="M52.8,24.28a6.24,6.24,0,0,0,1.09-8.77h0a6.24,6.24,0,0,0-8.77-1.09L21.85,32.56a6.25,6.25,0,0,0,7.69,9.86Z"/><path d="M52.53,30.52,77.85,19.35a6.25,6.25,0,1,0-5-11.44L56.12,15.27A8.24,8.24,0,0,1,54,25.85L46.7,31.57h0L31.61,43.34,33.08,46a15.34,15.34,0,0,1,1.86,7.32V70.62A4.71,4.71,0,0,1,34.3,73l-4.89,8.45a7.45,7.45,0,0,0,6.44,11.18h.53a7.46,7.46,0,0,0,6.48-3.77l5.88-10.39a12.18,12.18,0,0,0,1.58-6V58.59L66.54,88.71a7.45,7.45,0,0,0,13.14-7Z"/><path d="M22.65,29.41,38.48,17.06A10.42,10.42,0,1,0,22.65,29.41Z"/><text x="0" y="115" fill="#000000" font-size="5px" font-weight="bold" font-family="'Helvetica Neue', Helvetica, Arial-Unicode, Arial, Sans-serif">Created by Eliricon</text><text x="0" y="120" fill="#000000" font-size="5px" font-weight="bold" font-family="'Helvetica Neue', Helvetica, Arial-Unicode, Arial, Sans-serif">from the Noun Project</text></svg>