<svg xmlns="http://www.w3.org/2000/svg" viewBox="0 0 64 80" x="0px" y="0px"><g><path d="M4,26v1.184A2.966,2.966,0,0,1,5,27H6V25H5A1,1,0,0,0,4,26Z"/><path d="M4,30v1.184A2.966,2.966,0,0,1,5,31H6V29H5A1,1,0,0,0,4,30Z"/><path d="M4,34v1.184A2.966,2.966,0,0,1,5,35H6V33H5A1,1,0,0,0,4,34Z"/><path d="M4,18v1.184A2.966,2.966,0,0,1,5,19H6V17H5A1,1,0,0,0,4,18Z"/><path d="M4,10v1.184A2.966,2.966,0,0,1,5,11H6V9H5A1,1,0,0,0,4,10Z"/><path d="M4,22v1.184A2.966,2.966,0,0,1,5,23H6V21H5A1,1,0,0,0,4,22Z"/><path d="M4,14v1.184A2.966,2.966,0,0,1,5,15H6V13H5A1,1,0,0,0,4,14Z"/><path d="M4,38v1.184A2.966,2.966,0,0,1,5,39H6V37H5A1,1,0,0,0,4,38Z"/><path d="M4,46v1.176A2.991,2.991,0,0,1,5,47H6V45H5A1,1,0,0,0,4,46Z"/><rect x="56" y="23" width="2" height="2"/><rect x="56" y="15" width="2" height="2"/><path d="M4,42v1.184A2.966,2.966,0,0,1,5,43H6V41H5A1,1,0,0,0,4,42Z"/><rect x="56" y="31" width="2" height="2"/><rect x="56" y="7" width="2" height="2"/><path d="M4,50a1,1,0,0,0,1,1H6V49H5A1,1,0,0,0,4,50Z"/><rect x="14" y="39" width="6" height="12"/><rect x="56" y="39" width="2" height="2"/><rect x="56" y="47" width="2" height="2"/><rect x="44" y="19" width="2" height="20"/><polygon points="56 58 10 58 10 60 58 60 58 55 56 55 56 58"/><polygon points="44.781 47 45.219 47 45.719 45 44.281 45 44.781 47"/><rect x="44" y="41" width="2" height="2"/><rect x="44" y="15" width="2" height="2"/><rect x="56" y="51" width="4" height="2"/><path d="M54,4H8V7h2V9H8v2h2v2H8v2h2v2H8v2h2v2H8v2h2v2H8v2h2v2H8v2h2v2H8v2h2v2H8v2h2v2H8v2h2v2H8v2h2v2H8v2h2v2H8v3H54ZM13,11h7v2H13Zm7,4v2H18V15Zm-7,0h3v2H13Zm0,4h7v2H13Zm9,34H12V37H22ZM20.259,35H12V33h7.741l3.264-1.813c0-.062,0-.125,0-.187,0-1.892,1.465-5.815,1.942-7.044l-2.9-9.669A1,1,0,0,1,23,13a4.1,4.1,0,0,0,2.559-1.027L22.586,9H13V7H23.414l3.25,3.25A6.885,6.885,0,0,0,27,8a1,1,0,0,1,1-1h6a1,1,0,0,1,1,1c0,4.809,3.6,4.995,4.007,5a1,1,0,0,1,.951,1.287l-2.9,9.669C37.535,25.185,39,29.108,39,31c0,6.135-2.955,13.1-3.081,13.394A1,1,0,0,1,35,45H27a1,1,0,0,1-.919-.606A43.6,43.6,0,0,1,23.137,33.4ZM28,47v2H24V47Zm3,6H24V51h7Zm10,0H33V51h8Zm0-4H30V47H41ZM52,23a1,1,0,0,1-2,0V15H48V44a2,2,0,0,1-.03.242l-1,4A1,1,0,0,1,46,49v2a1,1,0,0,1-2,0V49a1,1,0,0,1-.97-.758l-1-4A2,2,0,0,1,42,44V14a1,1,0,0,1,1-1h8a1,1,0,0,1,1,1Z"/><rect x="56" y="11" width="4" height="2"/><rect x="56" y="35" width="4" height="2"/><rect x="56" y="19" width="4" height="2"/><rect x="56" y="27" width="4" height="2"/><rect x="56" y="43" width="4" height="2"/><path d="M27.675,43h6.65C35.027,41.2,37,35.725,37,31c0-1.481-1.393-5.287-1.929-6.629a1,1,0,0,1-.029-.658l2.663-8.877A6.134,6.134,0,0,1,33.046,9H28.954a7.527,7.527,0,0,1-.779,2.761l2.532,2.532-1.414,1.414-2.324-2.324A6.059,6.059,0,0,1,24.3,14.836l2.663,8.877a1,1,0,0,1-.029.658,39.851,39.851,0,0,0-1.807,5.64l3.393-1.885.97,1.748-4.432,2.462A40.067,40.067,0,0,0,27.675,43Z"/></g><text x="0" y="79" fill="#000000" font-size="5px" font-weight="bold" font-family="'Helvetica Neue', Helvetica, Arial-Unicode, Arial, Sans-serif">Created by Smalllike</text><text x="0" y="84" fill="#000000" font-size="5px" font-weight="bold" font-family="'Helvetica Neue', Helvetica, Arial-Unicode, Arial, Sans-serif">from the Noun Project</text></svg>