<svg xmlns="http://www.w3.org/2000/svg" data-name="Layer 1" viewBox="0 0 48 60" x="0px" y="0px"><title>birthday solid icons</title><path d="M7.71,8.94A.85.85,0,0,0,7,9.88v6.84H6.09V9.88a.85.85,0,0,0-.71-.94.85.85,0,0,0-.71.94v6.84H3.75V9.88c0-.52-.31-.94-.71-.94a.85.85,0,0,0-.71.94v6.84H1.42V9.88a.85.85,0,0,0-.71-.94A.85.85,0,0,0,0,9.88v8.19a3.36,3.36,0,0,0,2.71,3.29V38.53a.76.76,0,0,0,.75.79H5a.77.77,0,0,0,.76-.79V21.35a3.33,3.33,0,0,0,2.7-3.28V9.88A.85.85,0,0,0,7.71,8.94Z"/><path d="M47.43,7.72C45.49,9.84,39.47,17.53,45,27V38.49a.79.79,0,0,0,.75.83h1.51a.79.79,0,0,0,.75-.83V8A.33.33,0,0,0,47.43,7.72Z"/><path d="M24.88,16.18A8.79,8.79,0,1,0,33.67,25,8.8,8.8,0,0,0,24.88,16.18Z"/><path d="M24.88,9.55A15.42,15.42,0,1,0,40.3,25,15.43,15.43,0,0,0,24.88,9.55Zm0,26A10.55,10.55,0,1,1,35.43,25,10.56,10.56,0,0,1,24.88,35.52Z"/><text x="0" y="63" fill="#000000" font-size="5px" font-weight="bold" font-family="'Helvetica Neue', Helvetica, Arial-Unicode, Arial, Sans-serif">Created by tulpahn</text><text x="0" y="68" fill="#000000" font-size="5px" font-weight="bold" font-family="'Helvetica Neue', Helvetica, Arial-Unicode, Arial, Sans-serif">from the Noun Project</text></svg>