<svg xmlns="http://www.w3.org/2000/svg" xmlns:xlink="http://www.w3.org/1999/xlink" version="1.1" x="0px" y="0px" viewBox="0 0 70 87.5" style="enable-background:new 0 0 70 70;" xml:space="preserve"><g><path d="M64.7387466,38.043457c-2.7485352-7.8481445-7.5375977-14.203125-12.4990234-16.5844727   c-2.2324219-1.0708008-4.4262695-1.2797852-6.3369141-0.6064453c-1.0874023,0.3730469-2.0639648,1.0209961-2.9033203,1.9257812   c-0.8769531,0.9462891-1.9438477,1.4672852-3.0039062,1.4672852h-3.559082l-0.0185547-4.2001953   c-0.0092773-2.078125-1.7075195-3.7685547-3.7851562-3.7685547H15.3217545c-0.4790039,0-0.9287109-0.1870117-1.2666016-0.5268555   c-0.3374023-0.3393555-0.5214844-0.7905273-0.5185547-1.2695312c0.0063477-0.9780273,0.8071289-1.7739258,1.7851562-1.7739258   h26.8300781c2.0869141,0,3.7851562-1.6982422,3.7851562-3.7851562V7.347168c0-0.5522461-0.4477539-1-1-1s-1,0.4477539-1,1   v1.5742188c0,0.984375-0.8007812,1.7851562-1.7851562,1.7851562H15.3217545c-2.0737305,0-3.7719727,1.6875-3.7851562,3.7612305   c-0.0063477,1.015625,0.3842773,1.9716797,1.1000977,2.6918945c0.7158203,0.7207031,1.6694336,1.1171875,2.6850586,1.1171875   h17.3110352c0.9799805,0,1.7807617,0.7973633,1.7851562,1.7773438l0.0184937,4.1914062h-4.4457397   c-1.0571289,0-2.1210938-0.5170898-2.9956055-1.4560547c-0.8344727-0.8955078-1.8056641-1.5458984-2.8901367-1.9345703   c-1.9189453-0.6757812-4.112793-0.4672852-6.3447266,0.6040039c-4.9614258,2.3813477-9.7504883,8.7363281-12.4985352,16.5825195   c-2.769043,7.859375-3.012207,15.8203125-0.6352539,20.7758789c1.0703125,2.2314453,2.652832,3.7675781,4.5732427,4.4414062   c0.7480469,0.2651367,1.5253906,0.394043,2.3237305,0.394043c4.6694336-0.0004883,10.0273438-4.4135742,13.9838867-11.7807617   c0.6674805-1.2426758,1.9487305-2.0146484,3.3432617-2.0146484h12.2988281c1.3945312,0,2.6757812,0.7719727,3.3432617,2.0146484   c4.6333008,8.6269531,11.1889648,13.2016602,16.3061523,11.387207c1.9228516-0.675293,3.5048828-2.2114258,4.574707-4.4418945   C67.7504654,53.8618164,67.5073013,45.9008789,64.7387466,38.043457z M63.5702896,57.9521484   c-0.8476562,1.7670898-2.003418,2.9179688-3.4355469,3.4208984c-0.0009766,0-0.0019531,0.0004883-0.003418,0.0009766   c-4.0859375,1.4492188-9.7944336-2.8461914-13.8769531-10.4482422c-1.0166016-1.8925781-2.9726562-3.0683594-5.1049805-3.0683594   H28.850563c-2.1323242,0-4.0883789,1.1757812-5.1049805,3.0683594   c-4.0830078,7.6025391-9.7915039,11.8945312-13.8803711,10.4472656c-1.4321289-0.5029297-2.5878911-1.6538086-3.4355474-3.4208984   C4.2739024,53.4575195,4.549293,46.0830078,7.1489024,38.7045898c2.5400395-7.2539062,7.0449224-13.3154297,11.4765625-15.4423828   c1.7680664-0.8481445,3.3876953-1.0239258,4.8100586-0.5224609c0.7763672,0.277832,1.4814453,0.753418,2.0961914,1.4130859   c1.2573242,1.3496094,2.8408203,2.0927734,4.4589844,2.0927734h5.4501953h0.0043945h4.550293   c1.6235352,0,3.2114258-0.7485352,4.4707031-2.1074219c0.6118164-0.6601562,1.3139648-1.1289062,2.09375-1.3964844   c1.4282227-0.5029297,3.046875-0.3276367,4.8144531,0.5205078c4.4316406,2.1269531,8.9365234,8.1884766,11.4770508,15.4443359   C65.4506607,46.0830078,65.7260513,53.4575195,63.5702896,57.9521484z"/><path d="M24.5561295,36.8837891h-4.0385742v-4.0385742c0-0.5522461-0.4477539-1-1-1s-1,0.4477539-1,1v4.0385742H14.478981   c-0.5522461,0-1,0.4477539-1,1s0.4477539,1,1,1h4.0385742v4.0385742c0,0.5522461,0.4477539,1,1,1s1-0.4477539,1-1v-4.0385742   h4.0385742c0.5522461,0,1-0.4477539,1-1S25.1083755,36.8837891,24.5561295,36.8837891z"/><path d="M49.8461685,34.9731445c1.5073242,0,2.7338867-1.2265625,2.7338867-2.7338867   c0-1.5078125-1.2265625-2.734375-2.7338867-2.734375s-2.7338867,1.2265625-2.7338867,2.734375   C47.1122818,33.746582,48.3388443,34.9731445,49.8461685,34.9731445z M49.8461685,31.5048828   c0.4047852,0,0.7338867,0.3295898,0.7338867,0.734375s-0.3291016,0.7338867-0.7338867,0.7338867   s-0.7338867-0.3291016-0.7338867-0.7338867S49.4413834,31.5048828,49.8461685,31.5048828z"/><path d="M49.8461685,39.3237305c-1.5073242,0-2.7338867,1.2265625-2.7338867,2.734375   c0,1.5073242,1.2265625,2.7338867,2.7338867,2.7338867s2.7338867-1.2265625,2.7338867-2.7338867   C52.5800552,40.550293,51.3534927,39.3237305,49.8461685,39.3237305z M49.8461685,42.7919922   c-0.4047852,0-0.7338867-0.3291016-0.7338867-0.7338867s0.3291016-0.734375,0.7338867-0.734375   s0.7338867,0.3295898,0.7338867,0.734375S50.2509537,42.7919922,49.8461685,42.7919922z"/><path d="M54.7558365,34.4145508c-1.5078125,0-2.734375,1.2265625-2.734375,2.7338867s1.2265625,2.7338867,2.734375,2.7338867   c1.5073242,0,2.7338867-1.2265625,2.7338867-2.7338867S56.2631607,34.4145508,54.7558365,34.4145508z M54.7558365,37.8823242   c-0.4047852,0-0.734375-0.3291016-0.734375-0.7338867s0.3295898-0.7338867,0.734375-0.7338867   s0.7338867,0.3291016,0.7338867,0.7338867S55.1606216,37.8823242,54.7558365,37.8823242z"/><path d="M44.9369888,34.4145508c-1.5078125,0-2.734375,1.2265625-2.734375,2.7338867s1.2265625,2.7338867,2.734375,2.7338867   c1.5073242,0,2.7338867-1.2265625,2.7338867-2.7338867S46.444313,34.4145508,44.9369888,34.4145508z M44.9369888,37.8823242   c-0.4047852,0-0.734375-0.3291016-0.734375-0.7338867s0.3295898-0.7338867,0.734375-0.7338867   s0.7338867,0.3291016,0.7338867,0.7338867S45.341774,37.8823242,44.9369888,37.8823242z"/></g><text x="0" y="85" fill="#000000" font-size="5px" font-weight="bold" font-family="'Helvetica Neue', Helvetica, Arial-Unicode, Arial, Sans-serif">Created by Lars Meiertoberens</text><text x="0" y="90" fill="#000000" font-size="5px" font-weight="bold" font-family="'Helvetica Neue', Helvetica, Arial-Unicode, Arial, Sans-serif">from the Noun Project</text></svg>