<svg xmlns:dc="http://purl.org/dc/elements/1.1/" xmlns:cc="http://creativecommons.org/ns#" xmlns:rdf="http://www.w3.org/1999/02/22-rdf-syntax-ns#" xmlns:svg="http://www.w3.org/2000/svg" xmlns="http://www.w3.org/2000/svg" xmlns:sodipodi="http://sodipodi.sourceforge.net/DTD/sodipodi-0.dtd" xmlns:inkscape="http://www.inkscape.org/namespaces/inkscape" version="1.1" x="0px" y="0px" viewBox="0 0 100 125"><g transform="translate(0,-952.36218)"><path style="text-indent:0;text-transform:none;direction:ltr;block-progression:tb;baseline-shift:baseline;color:#000000;enable-background:accumulate;" d="m 75,958.36217 c -1.10457,0 -2,0.89543 -2,2 0,1.10457 0.89543,2 2,2 l 12.15625,0 -15.21875,15.21875 C 67.26685,973.11626 60.95558,970.36217 54,970.36217 c -3.9313,0 -7.65596,0.86858 -11,2.4375 -3.34404,-1.56891 -7.0687,-2.4375 -11,-2.4375 -14.33571,0 -26.0000002,11.66429 -26.0000002,26 0,13.66413 10.5932902,24.91463 24.0000002,25.93753 l 0,9.0625 -9,0 c -1.10457,0 -2,0.8954 -2,2 0,1.1046 0.89543,2 2,2 l 9,0 0,9 c 0,1.1046 0.89543,2 2,2 1.10457,0 2,-0.8954 2,-2 l 0,-9 9,0 c 1.10457,0 2,-0.8954 2,-2 0,-1.1046 -0.89543,-2 -2,-2 l -9,0 0,-9.0625 c 3.19829,-0.244 6.22724,-1.0741 9,-2.375 3.34404,1.5689 7.0687,2.4375 11,2.4375 14.33571,0 26,-11.6643 26,-26.00003 0,-5.94483 -2.00458,-11.42774 -5.375,-15.8125 l 15.375,-15.375 -0.03125,12.1875 0.03125,0 c 0,1.10457 0.89543,2 2,2 1.10457,0 2,-0.89543 2,-2 l -0.0312,0 0.0312,-17 a 2.0001998,2.0001998 0 0 0 -2,-2 l -17,0 z m -43,16 c 2.31817,0 4.55999,0.3703 6.65625,1.03125 C 32.20328,980.12925 28,987.763 28,996.36217 c 0,8.59913 4.20328,16.23293 10.65625,20.96873 -2.09626,0.661 -4.33808,1.0313 -6.65625,1.0313 -12.17395,0 -22.0000003,-9.8261 -22.0000003,-22.00003 0,-12.17395 9.8260503,-22 22.0000003,-22 z m 22,0 c 12.17395,0 22,9.82608 22,22 0,12.17393 -9.82605,22.00003 -22,22.00003 -2.31817,0 -4.55999,-0.3703 -6.65625,-1.0313 C 53.79672,1012.5951 58,1004.9614 58,996.36217 58,987.76298 53.79672,980.12924 47.34375,975.39342 49.44001,974.73247 51.68183,974.36217 54,974.36217 z m -11,2.9375 c 6.57978,3.79762 11,10.90063 11,19.0625 0,8.16183 -4.42022,15.26493 -11,19.06253 -6.57978,-3.7976 -11,-10.9007 -11,-19.06253 0,-8.16185 4.42022,-15.26488 11,-19.0625 z" fill="#000000" fill-opacity="1" stroke="none" marker="none" visibility="visible" display="inline" overflow="visible"/></g><text x="0" y="115" fill="#000000" font-size="5px" font-weight="bold" font-family="'Helvetica Neue', Helvetica, Arial-Unicode, Arial, Sans-serif">Created by Three Six Five</text><text x="0" y="120" fill="#000000" font-size="5px" font-weight="bold" font-family="'Helvetica Neue', Helvetica, Arial-Unicode, Arial, Sans-serif">from the Noun Project</text></svg>