<svg xmlns="http://www.w3.org/2000/svg" xmlns:xlink="http://www.w3.org/1999/xlink" version="1.1" x="0px" y="0px" viewBox="0 0 66 82.5" enable-background="new 0 0 66 66" xml:space="preserve"><g><path d="M20.8,45l41.8-9.7c0.4-0.1,0.8-0.5,0.8-1l0-32.3c0-0.5-0.4-1-1-1H30.1c-0.5,0-0.9,0.4-1,0.8l-9.7,41.8l-0.8,0.8   c-1.6,1.6-1.6,4.2,0,5.8l4,4c1,1,1,2.6,0,3.6c-1,1-2.6,1-3.6,0l-8.6-8.6c-1.8-1.8-4.7-1.8-6.5,0c-1.8,1.8-1.8,4.7,0,6.5l9,9   c0.4,0.4,1,0.4,1.4,0c0.4-0.4,0.4-1,0-1.4l-9-9c-1-1-1-2.6,0-3.6c1-1,2.7-1,3.6,0l8.6,8.6c1.8,1.8,4.7,1.8,6.5,0   c1.8-1.8,1.8-4.7,0-6.5l-4-4C18.2,47,20.8,45.1,20.8,45z M61.4,4.4l0,27.5L47.7,18.2L61.4,4.4z M46.3,16.7L32.5,3H60L46.3,16.7z    M60.4,33.7l-36.9,8.6l22.7-22.7L60.4,33.7z M30.7,4l14.2,14.2L22.1,40.9L30.7,4z"/></g><text x="0" y="81" fill="#000000" font-size="5px" font-weight="bold" font-family="'Helvetica Neue', Helvetica, Arial-Unicode, Arial, Sans-serif">Created by ProSymbols</text><text x="0" y="86" fill="#000000" font-size="5px" font-weight="bold" font-family="'Helvetica Neue', Helvetica, Arial-Unicode, Arial, Sans-serif">from the Noun Project</text></svg>