<svg xmlns="http://www.w3.org/2000/svg" xmlns:xlink="http://www.w3.org/1999/xlink" version="1.1" x="0px" y="0px" viewBox="0 0 64 80" style="enable-background:new 0 0 64 64;" xml:space="preserve"><path d="M36,25h-6c-1.383,0-2.538,0.945-2.884,2.22C26.77,27.081,26.395,27,26,27h-1.383c-1.406,0-2.64,0.998-2.934,2.372  L19.67,38.77c-0.47,2.194,0.008,4.5,1.313,6.326l1.9,2.661C23.613,48.78,24,49.985,24,51.243V58h2v-6.757  c0-1.677-0.516-3.285-1.49-4.649l-1.9-2.661c-0.978-1.37-1.337-3.099-0.984-4.745l2.014-9.398c0.099-0.458,0.51-0.79,0.979-0.79H26  c0.552,0,1,0.449,1,1v1v4h-1.279l-0.772-2.316l-1.896,0.633l1,3C24.188,36.725,24.569,37,25,37h3h3.238  C31.087,37.371,31,37.774,31,38.198c0,1.143,0.613,2.172,1.551,2.739c-0.974,0.88-1.654,2.07-1.88,3.395l1.971,0.336  c0.231-1.352,1.168-2.499,2.446-2.995l0.061-0.024l1.655,0.331c0.22,0.043,0.445,0.014,0.644-0.086l2-1l-0.895-1.789l-1.693,0.847  l-2.896-0.579C33.405,39.261,33,38.767,33,38.198C33,37.538,33.537,37,34.198,37H37c0.155,0,0.309-0.036,0.447-0.105l2.25-1.125  c1.729-0.864,3.803-0.351,4.926,1.224c1.163,1.628,0.913,3.859-0.583,5.189l-4.361,3.877C38.611,47.007,38,48.369,38,49.796V58h2  v-8.204c0-0.856,0.367-1.673,1.007-2.242l4.361-3.877c2.263-2.011,2.642-5.385,0.882-7.847c-0.599-0.838-1.381-1.465-2.25-1.885V30  c0-1.654-1.346-3-3-3h-2.184C38.402,25.839,37.302,25,36,25z M29,30v-2c0-0.551,0.448-1,1-1h2v8h-3v-4V30z M36.764,35h-2.565  c-0.068,0-0.131,0.016-0.198,0.02V27h2c0.552,0,1,0.449,1,1v6.882L36.764,35z M42,30v3.387c-1-0.093-2.029,0.074-3,0.516V29h2  C41.552,29,42,29.449,42,30z"/><polygon points="60,56 58,56 58,58 56,58 56,60 58,60 58,62 60,62 60,60 62,60 62,58 60,58 "/><polygon points="8,46 8,44 6,44 6,42 4,42 4,44 2,44 2,46 4,46 4,48 6,48 6,46 "/><rect x="8" y="55" width="2" height="2"/><rect x="18" y="58" width="2" height="2"/><rect x="42" y="58" width="2" height="2"/><rect x="58" y="46" width="2" height="2"/><path d="M10,7c-3.309,0-6,2.691-6,6c0,2.764,1.881,5.091,4.429,5.784C8.155,19.471,8,20.217,8,21c0,3.309,2.691,6,6,6s6-2.691,6-6  c0-1.294-0.416-2.49-1.115-3.471L23,13.414V16h2v-5c0-0.552-0.447-1-1-1h-5v2h2.586l-4.115,4.115  c-0.568-0.405-1.209-0.711-1.9-0.899C15.845,14.529,16,13.783,16,13c0-1.294-0.416-2.49-1.115-3.471L19,5.414V8h2V3  c0-0.552-0.447-1-1-1h-5v2h2.586l-4.115,4.115C12.49,7.416,11.294,7,10,7z M6,13c0-2.206,1.794-4,4-4s4,1.794,4,4  c0,0.744-0.217,1.432-0.572,2.029c-1.52,0.145-2.872,0.861-3.849,1.929C7.573,16.744,6,15.061,6,13z M18,21c0,2.206-1.794,4-4,4  s-4-1.794-4-4c0-0.744,0.217-1.432,0.572-2.029c1.52-0.145,2.872-0.861,3.849-1.929C16.427,17.256,18,18.939,18,21z"/><path d="M54,2c-1.538,0-2.937,0.586-4,1.54C48.937,2.586,47.538,2,46,2c-3.309,0-6,2.691-6,6c0,2.967,2.167,5.431,5,5.91V19h-2v2h2  v2h2v-2h2v-2h-2v-5.09c1.142-0.193,2.173-0.708,3-1.45c0.827,0.742,1.858,1.257,3,1.45V19h-2v2h2v2h2v-2h2v-2h-2v-5.09  c2.833-0.478,5-2.942,5-5.91C60,4.691,57.309,2,54,2z M42,8c0-2.206,1.794-4,4-4c1.066,0,2.029,0.425,2.747,1.107  C48.272,5.965,48,6.951,48,8s0.272,2.035,0.747,2.893C48.029,11.575,47.066,12,46,12C43.794,12,42,10.206,42,8z M54,12  c-1.066,0-2.029-0.425-2.747-1.107C51.728,10.035,52,9.049,52,8s-0.272-2.035-0.747-2.893C51.971,4.425,52.934,4,54,4  c2.206,0,4,1.794,4,4S56.206,12,54,12z"/><polygon points="52,35 52,33 54,33 54,31 52,31 52,29 50,29 50,31 48,31 48,33 50,33 50,35 "/><rect x="59" y="26" width="2" height="2"/><rect x="8" y="33" width="2" height="2"/><text x="0" y="79" fill="#000000" font-size="5px" font-weight="bold" font-family="'Helvetica Neue', Helvetica, Arial-Unicode, Arial, Sans-serif">Created by dDara</text><text x="0" y="84" fill="#000000" font-size="5px" font-weight="bold" font-family="'Helvetica Neue', Helvetica, Arial-Unicode, Arial, Sans-serif">from the Noun Project</text></svg>