<svg xmlns="http://www.w3.org/2000/svg" xmlns:xlink="http://www.w3.org/1999/xlink" version="1.1" x="0px" y="0px" viewBox="0 0 24 30" enable-background="new 0 0 24 24" xml:space="preserve"><g><path d="M3.383,23.192l5.461-1.751l7.644,2.483c0.041,0.013,0.082,0.02,0.124,0.02c0.038,0,0.076-0.006,0.113-0.017l4.885-1.447   c0.686-0.243,1.473-0.634,1.473-1.496V6.987c0-0.465-0.232-0.942-0.606-1.247c-0.284-0.229-0.604-0.32-0.93-0.252l-4.9,1.352   L16.3,6.681l-0.407-0.187c1.179-0.852,1.757-2.382,1.362-3.826C16.819,1.072,15.416,0,13.763,0c-0.001,0-0.003,0-0.004,0   l-0.112,0.002c-1.608,0.049-3.062,1.271-3.38,2.843c-0.071,0.348-0.08,0.693-0.053,1.031L9.807,3.688L9.012,3.322   c-0.001,0-0.002,0-0.003,0c-0.05-0.023-0.105-0.037-0.164-0.037c-0.026,0-0.049,0.01-0.074,0.015   C8.762,3.302,8.754,3.296,8.746,3.298L2.903,4.79C2.412,4.963,0.918,5.491,0.918,6.987v13.997c0,0.738,0.362,1.489,0.922,1.912   C2.289,23.236,2.818,23.354,3.383,23.192z M21.733,6.266c0.079-0.019,0.17,0.041,0.237,0.096c0.187,0.15,0.311,0.402,0.311,0.626   v13.997c0,0.122,0,0.408-0.919,0.735l-4.351,1.288V7.569L21.733,6.266z M11.05,3.004c0.247-1.217,1.374-2.164,2.613-2.202   l0.102-0.001c1.287,0,2.379,0.835,2.719,2.077c0.356,1.302-0.303,2.698-1.534,3.247c-0.446,0.199-0.738,0.498-0.921,0.939   c-0.079,0.191-0.162,0.383-0.253,0.585c-0.089-0.197-0.175-0.392-0.258-0.587c-0.191-0.455-0.472-0.746-0.908-0.942   c-0.738-0.335-1.265-0.961-1.493-1.699l0,0C10.979,3.977,10.951,3.491,11.05,3.004z M9.473,4.415l0.958,0.442   c0.316,0.842,0.937,1.552,1.791,1.96c-0.055,0.005-0.104,0.007-0.161,0.014c-0.219,0.027-0.375,0.227-0.349,0.446   c0.025,0.202,0.197,0.352,0.396,0.352c0.017,0,0.033-0.001,0.05-0.003c0.293-0.036,0.546-0.043,0.717-0.043   c0.145,0.334,0.293,0.665,0.456,1.017l0.08,0.176c0.064,0.142,0.206,0.233,0.362,0.234c0.001,0,0.001,0,0.002,0   c0.155,0,0.296-0.09,0.362-0.23l0.115-0.249c0.184-0.399,0.357-0.778,0.516-1.161c0.068-0.166,0.172-0.279,0.299-0.376l0.898,0.414   c0,0,0.001,0.001,0.002,0.001l0.244,0.112v15.473L9.245,20.73v-3.979l0.301-0.061c0.217-0.043,0.356-0.255,0.313-0.471   c-0.044-0.217-0.251-0.361-0.471-0.313l-0.143,0.029V4.311L9.473,4.415C9.472,4.415,9.472,4.415,9.473,4.415z M1.719,6.987   c0-0.824,0.775-1.204,1.416-1.433l5.31-1.354v11.787v0.11l-0.039,0.008c-0.216,0.045-0.354,0.257-0.31,0.474   c0.036,0.172,0.183,0.283,0.349,0.303v3.847l-5.293,1.697c-0.284,0.079-0.579,0.02-0.829-0.169   c-0.361-0.272-0.604-0.784-0.604-1.273V6.987z"/><path d="M13.787,5.229c0.448-0.004,0.862-0.178,1.167-0.488c0.304-0.312,0.468-0.728,0.462-1.17   c-0.014-0.881-0.738-1.605-1.617-1.616c-0.002,0-0.003,0-0.005,0c-0.006-0.001-0.011,0-0.015,0c-0.884,0-1.631,0.752-1.633,1.642   c0,0.437,0.169,0.846,0.476,1.152C12.933,5.059,13.345,5.229,13.787,5.229z M13.787,2.756h0.002   c0.449,0.005,0.82,0.376,0.826,0.827c0.004,0.229-0.079,0.441-0.233,0.599c-0.156,0.16-0.364,0.245-0.598,0.247   c-0.226,0-0.438-0.087-0.596-0.246c-0.156-0.155-0.241-0.363-0.241-0.585C12.947,3.146,13.369,2.712,13.787,2.756z"/><path d="M4.38,20.244c0.022,0,0.044-0.002,0.065-0.006c0.219-0.035,0.366-0.241,0.33-0.459c-0.026-0.162-0.04-0.313-0.04-0.455   c0-0.137,0.013-0.269,0.039-0.391c0.046-0.216-0.093-0.429-0.309-0.475c-0.218-0.044-0.429,0.093-0.475,0.309   c-0.037,0.177-0.057,0.364-0.057,0.557c0,0.183,0.018,0.377,0.052,0.584C4.019,20.104,4.188,20.244,4.38,20.244z"/><path d="M4.832,18.373c0.108,0,0.218-0.045,0.296-0.132c0.172-0.188,0.396-0.356,0.688-0.512c0.194-0.104,0.269-0.346,0.164-0.541   c-0.104-0.194-0.343-0.268-0.541-0.164c-0.373,0.199-0.669,0.422-0.902,0.68c-0.148,0.163-0.137,0.416,0.027,0.564   C4.64,18.339,4.736,18.373,4.832,18.373z"/><path d="M14.66,13.672c0.079,0.1,0.195,0.151,0.313,0.151c0.088,0,0.176-0.029,0.249-0.088c0.173-0.138,0.201-0.389,0.063-0.562   c-0.185-0.232-0.452-0.465-0.843-0.731c-0.18-0.124-0.431-0.079-0.556,0.104c-0.125,0.182-0.078,0.431,0.104,0.556   C14.309,13.32,14.527,13.507,14.66,13.672z"/><path d="M10.305,8.388c0.111,0,0.223-0.047,0.302-0.139c0.147-0.17,0.373-0.312,0.669-0.421c0.207-0.076,0.313-0.307,0.236-0.514   c-0.076-0.206-0.305-0.312-0.514-0.236c-0.424,0.156-0.759,0.374-0.995,0.647c-0.146,0.166-0.127,0.419,0.04,0.563   C10.118,8.355,10.212,8.388,10.305,8.388z"/><path d="M11.324,15.482c-0.299,0.073-0.619,0.148-0.964,0.223c-0.216,0.046-0.353,0.259-0.306,0.476   c0.04,0.188,0.206,0.315,0.391,0.315c0.027,0,0.056-0.003,0.085-0.01c0.351-0.075,0.679-0.151,0.985-0.227   c0.214-0.053,0.346-0.27,0.293-0.484C11.756,15.563,11.543,15.433,11.324,15.482z"/><path d="M10.526,10.379c-0.145,0.167-0.126,0.42,0.042,0.563c0.231,0.2,0.512,0.404,0.854,0.622   c0.066,0.043,0.141,0.063,0.215,0.063c0.132,0,0.261-0.065,0.337-0.186c0.119-0.187,0.064-0.434-0.122-0.552   c-0.311-0.198-0.56-0.379-0.763-0.554C10.924,10.191,10.671,10.211,10.526,10.379z"/><path d="M12.297,12.093l0.867,0.497c0.063,0.037,0.133,0.055,0.201,0.055c0.138,0,0.271-0.071,0.346-0.199   c0.111-0.191,0.046-0.436-0.145-0.547l-0.871-0.499c-0.188-0.109-0.435-0.046-0.546,0.147   C12.039,11.738,12.105,11.982,12.297,12.093z"/><path d="M13.206,14.938c-0.273,0.097-0.581,0.195-0.928,0.293c-0.213,0.06-0.337,0.281-0.276,0.493   c0.05,0.177,0.21,0.292,0.385,0.292c0.036,0,0.072-0.005,0.108-0.016c0.366-0.104,0.691-0.206,0.979-0.309   c0.208-0.074,0.317-0.303,0.243-0.511C13.642,14.972,13.41,14.864,13.206,14.938z"/><path d="M14.728,14.1c-0.074,0.103-0.246,0.268-0.648,0.472c-0.196,0.1-0.275,0.341-0.175,0.538   c0.07,0.139,0.211,0.219,0.356,0.219c0.062,0,0.123-0.015,0.182-0.044c0.443-0.226,0.749-0.46,0.934-0.718   c0.13-0.179,0.089-0.429-0.091-0.558C15.106,13.878,14.856,13.921,14.728,14.1z"/><path d="M6.551,17.393c0.042,0,0.084-0.007,0.126-0.021c0.291-0.097,0.603-0.184,0.932-0.265c0.214-0.054,0.345-0.271,0.292-0.485   c-0.055-0.214-0.264-0.347-0.485-0.292c-0.349,0.087-0.682,0.18-0.99,0.282c-0.21,0.07-0.323,0.296-0.254,0.506   C6.227,17.286,6.383,17.393,6.551,17.393z"/><path d="M10.166,10.25c0.057,0,0.115-0.011,0.173-0.035c0.202-0.083,0.287-0.342,0.207-0.546c-0.11-0.282-0.168-0.539-0.169-0.765   c-0.002-0.22-0.181-0.397-0.4-0.397c-0.001,0-0.002,0-0.003,0C9.753,8.509,9.575,8.689,9.576,8.91   c0.003,0.324,0.078,0.678,0.256,1.122C9.894,10.177,10.022,10.25,10.166,10.25z"/></g><text x="0" y="39" fill="#000000" font-size="5px" font-weight="bold" font-family="'Helvetica Neue', Helvetica, Arial-Unicode, Arial, Sans-serif">Created by Atif Arshad</text><text x="0" y="44" fill="#000000" font-size="5px" font-weight="bold" font-family="'Helvetica Neue', Helvetica, Arial-Unicode, Arial, Sans-serif">from the Noun Project</text></svg>