<svg xmlns="http://www.w3.org/2000/svg" xmlns:xlink="http://www.w3.org/1999/xlink" viewBox="0 0 100 125" version="1.1" x="0px" y="0px"><title>ic-34</title><desc>Created with Sketch.</desc><g stroke="none" stroke-width="1" fill="none" fill-rule="evenodd"><g transform="translate(-645.000000, -1636.000000)" fill="#000000"><g transform="translate(195.000000, 1186.000000)"><path d="M470.123172,489.875998 C468.31883,489.017996 466.91028,487.758812 465.923713,486.083804 C465.8917,486.028165 465.842226,485.990097 465.810214,485.937387 C472.177793,478.200724 485.151589,473 500.497222,473 C515.842854,473 528.816651,478.200724 535.18423,485.937387 C535.152217,485.990097 535.105654,486.028165 535.073641,486.080875 C534.089984,487.755883 532.681434,489.015068 530.877092,489.87307 C525.74636,483.465872 513.901732,478.856671 500.500132,478.856671 C487.098532,478.856671 475.256814,483.4688 470.123172,489.875998 Z M543.175716,489.57438 C546.435171,505.378607 538.976257,518.099297 538.973347,518.099297 L538.961706,518.096369 C535.917607,523.891545 528.371386,528 519.524293,528 C511.052619,528 503.771228,526.737887 500.497222,521.33218 C497.223215,526.737887 489.941825,528 481.470151,528 C472.623058,528 465.076836,523.891545 462.032738,518.096369 L462.021097,518.099297 C462.021097,518.099297 454.565093,505.378607 457.824548,489.57438 C457.967149,488.889149 458.511362,488.364977 459.192355,488.250772 C459.285483,488.233202 459.37861,488.227345 459.468827,488.227345 C460.053783,488.227345 460.609636,488.537749 460.9123,489.058993 C463.010574,492.63449 467.524338,497.079704 477.020412,497.079704 C477.349268,497.079704 477.678124,497.073847 478.01571,497.065062 L478.01862,497.076776 C479.144879,496.936216 480.294419,496.845437 481.473061,496.845437 C489.944735,496.845437 497.226125,500.614205 500.500132,506.019913 C503.774139,500.614205 511.055529,496.845437 519.527203,496.845437 C520.708756,496.845437 521.855385,496.936216 522.981644,497.076776 L522.984554,497.065062 C523.32214,497.073847 523.653906,497.079704 523.979852,497.079704 C533.475926,497.079704 537.98969,492.63449 540.087964,489.058993 C540.390628,488.540677 540.943571,488.230274 541.531437,488.230274 C541.624564,488.230274 541.717692,488.239059 541.807909,488.2537 C542.491812,488.364977 543.033115,488.892078 543.175716,489.57438 Z M478.635589,517.343787 C484.898399,518.134437 490.288142,516.254446 490.675202,513.144553 C491.068083,510.034661 486.30695,506.872058 480.041229,506.081408 C473.775508,505.290757 468.391586,507.16782 468.004526,510.280641 C467.611645,513.390533 472.375688,516.550208 478.635589,517.343787 Z M522.367586,517.343787 C528.630396,516.550208 533.391529,513.390533 532.998649,510.280641 C532.611588,507.16782 527.224756,505.290757 520.961945,506.081408 C514.699135,506.872058 509.935091,510.034661 510.327972,513.144553 C510.715032,516.254446 516.104775,518.134437 522.367586,517.343787 Z"/></g></g></g><text x="0" y="115" fill="#000000" font-size="5px" font-weight="bold" font-family="'Helvetica Neue', Helvetica, Arial-Unicode, Arial, Sans-serif">Created by Jose Dean</text><text x="0" y="120" fill="#000000" font-size="5px" font-weight="bold" font-family="'Helvetica Neue', Helvetica, Arial-Unicode, Arial, Sans-serif">from the Noun Project</text></svg>