<svg xmlns="http://www.w3.org/2000/svg" xmlns:xlink="http://www.w3.org/1999/xlink" xml:space="preserve" style="shape-rendering:geometricPrecision;text-rendering:geometricPrecision;image-rendering:optimizeQuality;" viewBox="0 0 8.4666 10.58325" x="0px" y="0px" fill-rule="evenodd" clip-rule="evenodd"><defs><style type="text/css">
   
    .fil0 {fill:black;fill-rule:nonzero}
   
  </style></defs><g><path class="fil0" d="M4.2803 1.1971c0.8197,0.0125 1.5607,0.3499 2.0999,0.8892 0.0832,0.0832 0.1617,0.1712 0.2348,0.2636l0.007 0.0089c0.2954,0.3703 0.4815,0.7759 0.575,1.2116 0.0446,0.2001 0.0695,0.4075 0.0724,0.6204l0.195 0.0002 0 0.0935 -0.1945 -0.0002 -0.0002 0.0429 -0.0014 0c-0.0244,0.8012 -0.3591,1.5243 -0.8881,2.0531 -0.5392,0.5393 -1.2802,0.8767 -2.0999,0.8892l0 0.1856 -0.094 0 0 -0.1856c-0.8198,-0.0124 -1.561,-0.3499 -2.1001,-0.8892 -0.5403,-0.5401 -0.8779,-1.283 -0.8892,-2.1044l-0.1948 -0.0003 0 -0.0935 0.1949 0.0002c0.0134,-0.8181 0.3507,-1.5577 0.8891,-2.096 0.5391,-0.5393 1.2803,-0.8768 2.1001,-0.8892l0 -0.1857 0.094 0 0 0.1857zm-2.9892 2.9855l0.5678 0.0007c0.0076,-0.3684 0.0992,-0.7164 0.2565,-1.0253 -0.0774,-0.0732 -0.1256,-0.1754 -0.1256,-0.2886 0,-0.2223 0.1859,-0.4027 0.4153,-0.4027 0.0693,0 0.1347,0.0166 0.1922,0.0457 0.4154,-0.395 0.9736,-0.6413 1.589,-0.6532l0 -0.568c-0.794,0.0124 -1.5119,0.3393 -2.0339,0.8614 -0.5213,0.5212 -0.8479,1.2375 -0.8613,2.03zm0.6619 0.0008l0.4826 0.0007c0.0129,-0.4768 0.2116,-0.9075 0.5261,-1.2221l0.0001 -0.0001c0.3152,-0.3151 0.7469,-0.5139 1.2245,-0.5262l0 -0.4826c-0.5829,0.0119 -1.1122,0.2421 -1.5089,0.6123 0.0878,0.0738 0.1431,0.1826 0.1431,0.304 0,0.2223 -0.186,0.4027 -0.4154,0.4027 -0.078,0 -0.1511,-0.0207 -0.2133,-0.0571 -0.1462,0.2926 -0.2314,0.621 -0.2388,0.9684zm0.5766 0.0008l0.5329 0.0008c0.0124,-0.304 0.1408,-0.5787 0.3422,-0.7802l0.0001 0c0.2018,-0.2016 0.4768,-0.3302 0.7815,-0.3422l0 -0.5329c-0.4521,0.0122 -0.8602,0.2005 -1.1583,0.4984 -0.2975,0.2976 -0.4857,0.7049 -0.4984,1.1561zm0.6269 0.0009l0.5115 0.0007c0.0115,-0.1375 0.0722,-0.2612 0.1642,-0.3533l0 -0.0001c0.0923,-0.0923 0.2164,-0.153 0.3541,-0.1643l0 -0.5116c-0.2791,0.012 -0.5307,0.13 -0.7153,0.3146 -0.1844,0.1844 -0.3023,0.4355 -0.3145,0.714zm0.6058 0.0008l0.424 0.0005 0 -0.4239c-0.112,0.011 -0.2126,0.061 -0.2878,0.1362l0 -0.0001c-0.0749,0.075 -0.125,0.1754 -0.1362,0.2873zm0.518 0.0008l0.0177 0 0.3192 -0.2303c-0.02,-0.0333 -0.0219,-0.0303 -0.0493,-0.0577 -0.0751,-0.0751 -0.1757,-0.1251 -0.2876,-0.1362l0 0.4242zm2.8982 0.0974l-0.5683 -0.0008c-0.028,0.6128 -0.2924,1.2233 -0.698,1.6289l0.0001 0.0001c-0.4195,0.4195 -0.9951,0.6828 -1.632,0.6952l0 0.5679c0.794,-0.0125 1.5117,-0.3392 2.0336,-0.8613 0.5082,-0.5081 0.836,-1.2604 0.8646,-2.03zm-0.6622 -0.0009l-0.4832 -0.0007c-0.0272,0.4543 -0.2271,0.9207 -0.5285,1.2222l-0.0001 0.0001c-0.3151,0.315 -0.7467,0.5139 -1.2242,0.5262l0 0.4825c0.6112,-0.0124 1.1634,-0.2651 1.5657,-0.6675l0.0001 0c0.3886,-0.3884 0.6422,-0.9755 0.6702,-1.5628zm-0.5773 -0.0008l-0.534 -0.0007c-0.0258,0.2822 -0.1552,0.5919 -0.3432,0.7801l0 0.0001c-0.2018,0.2018 -0.4768,0.3302 -0.7815,0.3423l0 0.5327c0.4519,-0.0122 0.86,-0.2005 1.1581,-0.4984 0.2843,-0.2844 0.4736,-0.7273 0.5006,-1.1561zm-0.6284 -0.0009l-0.5145 -0.0007c-0.0168,0.1281 -0.0829,0.2746 -0.1619,0.3536 -0.0923,0.0923 -0.2162,0.1529 -0.3539,0.1643l0 0.5115c0.279,-0.012 0.5306,-0.13 0.7152,-0.3146 0.1711,-0.1711 0.2896,-0.4575 0.3151,-0.7141zm-0.6089 -0.0008l-0.4214 -0.0005 0 0.4241c0.1119,-0.0111 0.2125,-0.061 0.2876,-0.1361 0.0615,-0.0615 0.1276,-0.1945 0.1338,-0.2875zm-0.5154 -0.0007l-0.4241 -0.0006c0.0108,0.1126 0.061,0.2135 0.1363,0.2889l0 -0.0001c0.0752,0.0752 0.1758,0.1252 0.2878,0.1361l0 -0.4243zm-0.5184 -0.0007l-0.5115 -0.0007c0.0114,0.2745 0.125,0.5222 0.3039,0.7062 0.0424,-0.0478 0.1051,-0.0781 0.1751,-0.0781 0.1273,0 0.2306,0.1001 0.2306,0.2236 0,0.0384 -0.01,0.0747 -0.0276,0.1063 0.1084,0.0427 0.2256,0.0684 0.3479,0.0736l0 -0.5115c-0.1377,-0.0113 -0.2618,-0.072 -0.3541,-0.1643l0 -0.0001c-0.0924,-0.0925 -0.1532,-0.2168 -0.1643,-0.355zm-0.6056 -0.0008l-0.5328 -0.0008c0.0116,0.4531 0.2,0.8622 0.4985,1.1608 0.2981,0.2979 0.7062,0.4862 1.1583,0.4984l0 -0.5326c-0.1466,-0.0059 -0.2863,-0.0387 -0.4144,-0.0937 -0.0382,0.0273 -0.0854,0.0434 -0.1365,0.0434 -0.1274,0 -0.2307,-0.1001 -0.2307,-0.2237 0,-0.0209 0.003,-0.0409 0.0084,-0.0601l-0.0083 -0.0083 -0.0001 0c-0.2022,-0.2022 -0.3308,-0.4778 -0.3424,-0.7834zm-0.6268 -0.0009l-0.4826 -0.0006c0.0115,0.6126 0.2644,1.166 0.6675,1.5691 0.4023,0.4024 0.9545,0.655 1.5659,0.6674l0 -0.4825c-0.4776,-0.0123 -0.9093,-0.2112 -1.2245,-0.5262l-0.0001 -0.0001c-0.078,-0.0781 -0.1488,-0.1633 -0.2115,-0.2545 -0.0264,0.1232 -0.1389,0.2156 -0.2737,0.2156 -0.154,0 -0.2792,-0.1214 -0.2792,-0.2711 0,-0.1495 0.1252,-0.2708 0.2792,-0.2708 0.0369,0 0.0721,0.0068 0.1043,0.0194 -0.0883,-0.2051 -0.1396,-0.4298 -0.1453,-0.6657zm-0.5766 -0.0007l-0.5679 -0.0008c0.0113,0.7956 0.3383,1.515 0.8614,2.038 0.522,0.5221 1.2399,0.8489 2.0339,0.8613l0 -0.5679c-0.6371,-0.0124 -1.2127,-0.2756 -1.6322,-0.6951 -0.4203,-0.4203 -0.6838,-0.9972 -0.6952,-1.6355zm2.4214 -2.9857l0 0.5678c0.1449,0.0028 0.2867,0.0187 0.4241,0.0464 0.0502,-0.0685 0.1329,-0.1133 0.2262,-0.1133 0.1533,0 0.2775,0.1205 0.2775,0.2689l-0.0001 0.0063c0.264,0.119 0.5022,0.2848 0.7043,0.4869 0.0688,0.0688 0.1177,0.1222 0.1776,0.1989l0.4434 -0.3586c-0.0712,-0.09 -0.1381,-0.1608 -0.2194,-0.2419 -0.5219,-0.5221 -1.2396,-0.8489 -2.0336,-0.8614zm0 0.6618l0 0.4827c0.4775,0.0123 0.9091,0.2111 1.2242,0.5262l0.0001 0.0001c0.0562,0.0561 0.0915,0.093 0.1399,0.1562l0.3734 -0.3053c-0.0581,-0.0745 -0.1052,-0.1257 -0.1719,-0.1924 -0.1892,-0.1893 -0.4117,-0.3455 -0.6578,-0.4591 -0.041,0.099 -0.1408,0.1688 -0.2576,0.1688 -0.1532,0 -0.2774,-0.1205 -0.2774,-0.2692 0,-0.0236 0.0033,-0.0464 0.0091,-0.0682 -0.1241,-0.0236 -0.2517,-0.0371 -0.382,-0.0398zm0 0.5767l0 0.5329c0.3047,0.012 0.5797,0.1405 0.7815,0.3422 0.0425,0.0426 0.0627,0.0631 0.0984,0.1117l0.4121 -0.3384c-0.0465,-0.061 -0.0797,-0.0958 -0.1339,-0.15 -0.2981,-0.2979 -0.7062,-0.4862 -1.1581,-0.4984zm0 0.6268l0 0.5116c0.1377,0.0114 0.2616,0.072 0.3539,0.1643 0.0293,0.0294 0.0334,0.0283 0.0558,0.0635l0.3978 -0.3193c-0.0337,-0.0466 -0.0518,-0.0651 -0.0923,-0.1055 -0.1846,-0.1846 -0.4362,-0.3026 -0.7152,-0.3146z"/></g><text x="0" y="23.4666" fill="#000000" font-size="5px" font-weight="bold" font-family="'Helvetica Neue', Helvetica, Arial-Unicode, Arial, Sans-serif">Created by CINDYFLA</text><text x="0" y="28.4666" fill="#000000" font-size="5px" font-weight="bold" font-family="'Helvetica Neue', Helvetica, Arial-Unicode, Arial, Sans-serif">from the Noun Project</text></svg>