<svg xmlns="http://www.w3.org/2000/svg" xmlns:xlink="http://www.w3.org/1999/xlink" xml:space="preserve" version="1.1" style="shape-rendering:geometricPrecision;text-rendering:geometricPrecision;image-rendering:optimizeQuality;" viewBox="0 0 50000 62500" x="0px" y="0px" fill-rule="evenodd" clip-rule="evenodd"><defs><style type="text/css">
   
    .fil0 {fill:black;fill-rule:nonzero}
   
  </style></defs><g><path class="fil0" d="M17829.21 10964.88l-7303.66 0c-79.47,0 -151.86,32.62 -204.41,85.17 -52.55,52.55 -85.18,124.94 -85.18,204.42l0 2790.8c0,79.49 32.63,151.87 85.18,204.42 52.55,52.54 124.94,85.17 204.41,85.17l4604.26 0c956.54,-532.04 1946.91,-1074.94 2833.8,-1547.22 52.04,-27.72 103.77,-55.14 155.2,-82.31l0 -1450.86c0,-79.49 -32.63,-151.87 -85.18,-204.42 -52.55,-52.55 -124.93,-85.17 -204.42,-85.17zm27979.82 15130.27c7.91,7.49 16.58,13.36 25.71,17.72 23.61,11.47 49.42,12.46 72.73,5.47l0.44 -0.12 0.87 -0.27 0.31 -0.1c24.47,-7.54 46.22,-23.95 59.3,-47.45l0.08 -0.13 0.05 -0.1 0.05 -0.09c9.88,-17.49 14.72,-38.49 11.96,-61.7l-0.28 -2.13 -0.02 -0.2 -0.13 -0.9 -0.04 -0.27 -0.12 -0.83 -0.07 -0.33c-1.33,-8.46 -3.71,-16.59 -7.16,-24.42l-0.21 -0.48 -0.26 -0.58 -0.2 -0.43 -0.27 -0.61 -0.19 -0.39 -0.31 -0.66 -0.17 -0.35c-2.77,-5.75 -6.08,-11.25 -9.91,-16.41l-0.12 -0.15 -0.58 -0.77 -243.43 -328.08c-49.71,-66.27 -147.36,-47.94 -176.36,20.26 -42.32,14.64 -75.14,55.94 -68.89,108.62 2.92,25.02 14.72,47.67 33.47,64.48l303.75 271.4zm-4308.8 -6147.67c-57.23,-76.3 -178.06,-40.47 -184.4,54.56 -1.25,25 5.17,47.2 19.96,67.45l190.52 256.76c57.23,76.3 178.07,40.47 184.4,-54.56 1.25,-25 -5.17,-47.2 -19.96,-67.45l-190.52 -256.76zm556.55 750.06c-57.22,-76.3 -178.06,-40.47 -184.4,54.55 -1.24,25 5.17,47.21 19.97,67.46l244.02 328.86c57.23,76.3 178.06,40.47 184.4,-54.56 1.25,-25 -5.17,-47.2 -19.96,-67.45l-244.03 -328.86zm610.06 822.14c-57.23,-76.3 -178.06,-40.46 -184.4,54.56 -1.25,25 5.17,47.21 19.97,67.46l244.02 328.86c57.23,76.3 178.06,40.47 184.4,-54.56 1.25,-25 -5.17,-47.2 -19.97,-67.45l-244.02 -328.87zm610.06 822.15c-57.23,-76.3 -178.06,-40.47 -184.4,54.56 -1.25,25 5.17,47.21 19.96,67.46l244.03 328.85c57.22,76.3 178.06,40.47 184.39,-54.56 1.25,-25 -5.17,-47.2 -19.96,-67.45l-244.02 -328.86zm610.05 822.14c-57.23,-76.3 -178.07,-40.47 -184.4,54.56 -1.25,25 5.17,47.2 19.96,67.45l244.01 328.86c57.23,76.3 178.06,40.46 184.4,-54.56 1.25,-25 -5.17,-47.21 -19.96,-67.46l-244.01 -328.85zm610.03 822.14c-57.23,-76.3 -178.06,-40.47 -184.4,54.56 -1.25,25 5.17,47.2 19.97,67.45l244.01 328.85c57.23,76.3 178.06,40.47 184.4,-54.55 1.25,-25 -5.17,-47.21 -19.97,-67.46l-244.01 -328.85zm610.04 822.14c-57.23,-76.3 -178.06,-40.47 -184.4,54.56 -1.25,25 5.17,47.2 19.96,67.45l244.02 328.85c57.22,76.3 178.06,40.47 184.39,-54.55 1.25,-25 -5.17,-47.21 -19.96,-67.46l-244.01 -328.85zm-1505.63 -1097.93c60.55,67.6 173.73,27.44 178.27,-63.26 1.37,-27.39 -7.9,-53.41 -26.2,-73.84l-274.21 -304.14c-60.55,-67.6 -173.73,-27.43 -178.26,63.26 -1.37,27.4 7.89,53.41 26.2,73.84l274.2 304.14zm-2864.21 -3482.65c-60.55,-67.6 -173.73,-27.43 -178.27,63.26 -1.37,27.4 7.9,53.41 26.2,73.84l274.22 304.15c60.55,67.6 173.73,27.44 178.26,-63.26 1.37,-27.39 -7.89,-53.41 -26.2,-73.84l-274.21 -304.15zm685.53 760.37c-60.56,-67.6 -173.73,-27.44 -178.27,63.26 -1.37,27.39 7.9,53.4 26.2,73.84l274.2 304.14c60.56,67.6 173.74,27.43 178.27,-63.26 1.37,-27.4 -7.89,-53.41 -26.2,-73.84l-274.2 -304.14zm685.52 760.35c-60.56,-67.6 -173.73,-27.43 -178.27,63.26 -1.37,27.4 7.89,53.41 26.2,73.84l274.2 304.14c60.56,67.6 173.73,27.44 178.27,-63.26 1.37,-27.39 -7.89,-53.41 -26.2,-73.84l-274.2 -304.14zm685.52 760.35c-60.56,-67.6 -173.74,-27.44 -178.27,63.26 -1.37,27.39 7.89,53.4 26.2,73.84l274.2 304.14c60.56,67.6 173.73,27.43 178.27,-63.26 1.37,-27.4 -7.9,-53.41 -26.2,-73.84l-274.2 -304.14zm-2495.91 -1612.5c-69.84,-62.55 -180.95,-4.96 -169.9,88.2 2.92,25.02 14.71,47.67 33.47,64.48l305.37 272.85c69.83,62.55 180.95,4.96 169.89,-88.2 -2.92,-25.03 -14.71,-47.67 -33.47,-64.48l-305.36 -272.85zm763.41 682.13c-69.83,-62.55 -180.95,-4.96 -169.89,88.2 2.92,25.02 14.71,47.67 33.47,64.48l305.36 272.85c69.83,62.55 180.95,4.96 169.89,-88.21 -2.91,-25.02 -14.71,-47.66 -33.46,-64.47l-305.37 -272.85zm763.42 682.13c-69.83,-62.56 -180.95,-4.96 -169.9,88.2 2.92,25.02 14.72,47.67 33.47,64.48l305.37 272.85c69.83,62.55 180.95,4.96 169.89,-88.21 -2.92,-25.02 -14.71,-47.66 -33.47,-64.47l-305.36 -272.85zm763.41 682.13c-69.83,-62.56 -180.95,-4.96 -169.89,88.2 2.92,25.02 14.71,47.67 33.47,64.48l305.36 272.84c69.83,62.55 180.95,4.96 169.9,-88.21 -2.92,-25.02 -14.71,-47.66 -33.47,-64.47l-305.37 -272.84zm763.42 682.11c-69.83,-62.56 -180.95,-4.96 -169.89,88.2 2.91,25.02 14.71,47.67 33.46,64.48l305.37 272.84c69.83,62.55 180.95,4.96 169.89,-88.21 -2.92,-25.02 -14.71,-47.66 -33.46,-64.47l-305.37 -272.84zm763.42 682.1c-69.83,-62.55 -180.95,-4.95 -169.9,88.21 2.92,25.02 14.71,47.67 33.47,64.48l305.36 272.84c69.83,62.55 180.94,4.95 169.89,-88.21 -2.92,-25.02 -14.71,-47.66 -33.47,-64.47l-305.35 -272.85zm763.39 682.11c-69.83,-62.55 -180.95,-4.95 -169.89,88.21 2.92,25.02 14.71,47.67 33.47,64.48l305.35 272.84c69.83,62.55 180.95,4.95 169.89,-88.21 -2.91,-25.02 -14.71,-47.66 -33.46,-64.47l-305.36 -272.85zm-358.08 8402.08c58.3,-61.28 155.27,-63.69 216.56,-5.39 61.28,58.3 63.7,155.27 5.39,216.55l-5772.25 6087.23c-58.3,61.28 -155.27,63.69 -216.56,5.39 -61.28,-58.3 -63.69,-155.27 -5.39,-216.55l5772.25 -6087.23zm3030.45 -7375.23l498.05 472.3c153.52,145.56 228.17,344.47 224.8,547.59 -3.23,195.49 -79.53,395.17 -228.08,551.83l-846.74 892.93c-76.58,80.76 -165.71,142.96 -260.83,186.12 512.44,597.11 882.57,1215.25 998.62,1861.02 139.18,774.52 -82.76,1566.62 -850.62,2376.38l-8689.02 9163.15c-861.94,908.98 -1701.86,1100.67 -2541.54,865.54 -798.02,-223.47 -1570.59,-841.95 -2356.02,-1586.73 -784.88,-744.27 -1446.86,-1486.1 -1716.2,-2274.72 -283.15,-829.07 -139.92,-1681.63 722.78,-2591.43l8689.03 -9163.12c767.13,-808.96 1545.06,-1073.07 2324.31,-976.21 651.51,80.97 1289.54,418.41 1914.5,899.69 38.11,-97.41 95.64,-189.89 172.49,-270.95l846.74 -892.93c148.52,-156.63 343.85,-243.4 538.9,-257.03 202.02,-14.11 404.57,50.29 558.83,196.57zm-1178.39 2783.16l-122.43 129.1 -3.99 4.99 -0.44 -0.38c-101.45,104.65 -234.16,162.72 -366.92,171.99 -141.67,9.88 -284.27,-35.77 -393.53,-139.37l-5 -3.99 0.35 -0.41 -268.47 -254.59 -4.99 -3.99 0.39 -0.42c-105.4,-102.46 -156.68,-240.52 -154.35,-381.18 2.23,-135.03 54.66,-272.65 156.67,-380.24l3.99 -5 0.39 0.37 117.45 -123.85c-626.12,-517.69 -1254.4,-886.63 -1874.17,-963.66 -27.97,-3.48 -55.97,-6.32 -83.98,-8.57 42.79,146.83 153.84,358.18 318.6,611.63 305.38,469.78 797.34,1047.75 1402.32,1621.41l2.99 2.41 -0.19 0.24c606.13,574.45 1218.22,1042.46 1711.65,1328.99 266.83,154.93 488.08,257.97 638.75,294.19 -3.69,-27.06 -7.92,-54.08 -12.77,-81.05 -110.26,-613.5 -512.12,-1220.86 -1062.32,-1818.62zm1324.52 -1940.95l-498.06 -472.3c-44.96,-42.64 -107.85,-61.14 -172.91,-56.61 -72.03,5.03 -145.51,38.48 -202.98,99.08l-846.74 892.93c-48.43,51.07 -76.9,112.68 -85.26,174.28 -7.92,58.31 2.22,115.85 30.62,162.21l102.01 166.55 -444 468.23 -3.99 5 -0.19 -0.17c-8.17,10.24 -12.36,21.37 -12.52,31.51 -0.07,4.06 0.26,6.97 0.99,7.66l4.99 4 -0.36 0.39 268.47 254.58 7.64 -0.56c11.7,-0.81 24.47,-7.1 35.4,-18.63l4 -5 0.41 0.35 439.14 -463.07 171.41 92.86c47.99,25.99 106.18,33.1 164.23,22.05 60.91,-11.59 120.96,-43.44 169.69,-94.83l846.74 -892.93c57.45,-60.58 86.92,-135.7 88.12,-207.91 1.06,-64.55 -21.13,-126.32 -66.85,-169.67zm-10227.47 15333.74c-232.31,-57.78 -510.41,-181.15 -817.97,-360.28 -611.6,-356.23 -1365.64,-932.87 -2108.84,-1637.62 -0.72,-0.91 -2.33,-1.73 -3.21,-2.61l0.23 -0.22c-741.61,-703.6 -1347.41,-1416.45 -1726.34,-1999.39 -186.43,-286.8 -318.28,-548.33 -386.5,-770.69 -299.41,520.77 -321.82,1011.68 -159.72,1486.31 235.72,690.18 850.85,1373.34 1584.23,2068.77 732.86,694.93 1443.79,1269.24 2142.06,1464.77 481.79,134.91 970.42,83 1476.06,-249.04zm-4796.03 -5128.71c-53.35,152.49 98.12,502.6 396.63,961.82 366.89,564.4 957.51,1258.37 1683.53,1946.84l3.08 2.49 -0.21 0.22c724.85,687.01 1457.03,1247.37 2048.6,1591.92 494.08,287.78 865.51,427.51 1009.45,356.65 70.48,-63.54 141.33,-132.66 212.57,-207.78l8677.7 -9151.22c-241.75,-63.51 -522.11,-188.32 -827.39,-366.12 -626.93,-365.17 -1398.72,-955.06 -2158.71,-1675.34l-0.08 0.09 -3.14 -3.12c-760.96,-721.6 -1383.27,-1454.11 -1772.86,-2053.74 -185.52,-285.54 -319,-549.83 -392.86,-781.14l-8673.83 9147.1c-73.78,77.81 -141.15,154.9 -202.48,231.33zm14790.49 -6069.94c-218.53,-29.31 -496.04,-141.96 -808.74,-323.53 -513.4,-298.12 -1147.38,-782.46 -1772.02,-1374.79l-2.99 -2.41 0.21 -0.25c-620.59,-588.8 -1127.7,-1185.64 -1445.14,-1673.96 -193.56,-297.78 -317.2,-564.44 -356.88,-778.51 -361.76,29.3 -726.86,169.27 -1094.97,449.59l0.12 0.13c-77.89,82.14 76,419.82 386.98,898.45 368.24,566.75 962.39,1264.87 1693.83,1958.84 0.19,-0.22 2.82,2.67 3.2,3.05 731.78,693.91 1470.18,1259.32 2065.81,1606.25 504.68,293.95 859.44,437.74 937.04,355.9l2.35 2.24c261.48,-383.92 381.89,-757.17 391.2,-1121zm-30795.23 -16658.24l1160.64 0c79.49,0 151.87,-32.63 204.42,-85.17 52.55,-52.55 85.18,-124.93 85.18,-204.42l0 -496.73c-465.19,248.86 -954.83,514.66 -1450.24,786.32zm-5510.85 3122.22c-171.69,112.83 -402.35,65.13 -515.19,-106.57 -112.84,-171.67 -65.14,-402.34 106.53,-515.19 183.61,-121.02 1570.73,-923.68 3266.21,-1877.07l0 -26.64c0,-79.48 -32.64,-151.86 -85.19,-204.41 -52.55,-52.55 -124.93,-85.19 -204.42,-85.19l-7303.66 0c-79.47,0 -151.86,32.63 -204.41,85.18 -52.55,52.55 -85.18,124.94 -85.18,204.42l0 2790.79c0,79.49 32.63,151.88 85.18,204.43 52.55,52.55 124.94,85.17 204.41,85.17l3204.73 0 886.33 0 3212.6 0c8.57,0 17.05,-0.37 25.44,-1.12 81.32,-60.8 162.64,-121.66 243.91,-182.55 13.06,-32.87 20.26,-68.61 20.26,-105.93l0 -1910.68c-1505.9,849.27 -2691.13,1535.65 -2857.55,1645.36zm3229.95 -2707.87l187.19 -104.79c-64.74,8.42 -123.05,38.53 -167.29,82.77 -6.99,6.99 -13.64,14.35 -19.9,22.02zm4038.27 -2204.65c1536.52,-796.89 2740.41,-1303.63 2964.37,-1082.68 508.51,501.65 -296.78,1557.36 -1780.12,2872.98l4117.33 0c383.42,-123.75 694.09,-155.06 907.01,-67.28l39.06 16.11 28.1 18.91c15.53,10.47 30.27,21.25 44.41,32.26l1273.09 0c79.48,0 151.87,-32.63 204.42,-85.17 52.54,-52.55 85.17,-124.93 85.17,-204.42l0 -2790.8c0,-79.48 -32.63,-151.87 -85.17,-204.42 -52.55,-52.55 -124.94,-85.17 -204.42,-85.17l-7303.66 0c-79.47,0 -151.86,32.62 -204.41,85.17 -52.55,52.55 -85.18,124.94 -85.18,204.42l0 1290.09zm831.47 2097.45c-1177.08,1009.24 -2696.13,2188.02 -4264.02,3369.99l2823.32 0 154.6 0c1452.19,-1119.06 2979.16,-2225.53 4233.93,-2952.22l0 -128.17c0,-79.48 -32.63,-151.86 -85.18,-204.41 -52.55,-52.55 -124.93,-85.19 -204.42,-85.19l-2658.23 0zm-4672.38 3677.12c-234.77,176.18 -470.05,352.11 -704.88,527.24 -1250.65,932.66 -2396.68,1924.19 -3335.6,2842.75l2833.87 0c287.21,-225.52 704.53,-565.41 1210.05,-977.16 823.06,-670.38 1872.63,-1525.21 2986.42,-2392.83l-2962.91 0 -26.95 0zm-4349.54 3677.13c-821.54,830.26 -1457,1585.81 -1825.88,2163.24 -219.24,343.15 -332.04,584.98 -314.65,692.72 8.27,51.36 43.74,-94.35 168.12,-123.87 734.39,-174.42 2224.3,-988.83 4702.5,-2732.09l-2730.09 0zm12280.75 -7111.74c161.72,-88.49 318.08,-169.67 468.13,-242.51l-182.41 0c-79.47,0 -151.86,32.63 -204.41,85.18 -41.96,41.95 -71.21,96.56 -81.31,157.33zm2437.85 -242.51c61.34,247.39 -47.64,561.99 -296.37,931.04 -380.67,564.76 -1153.82,1358.8 -2122.55,2261.48 14.73,34.67 36.06,65.98 62.38,92.3 52.55,52.55 124.94,85.17 204.41,85.17l3204.73 0 886.33 0 875.19 0c971.34,-856.25 1863.97,-1601.19 2627.01,-2183.84l0 -896.55c0,-79.48 -32.63,-151.86 -85.18,-204.41 -52.55,-52.55 -124.93,-85.19 -204.42,-85.19l-5151.53 0zm-2945.91 3677.12c-1084.4,985.34 -2346.86,2067.41 -3558.9,3106.24l-31.02 26.58c10.89,58.62 39.64,111.27 80.37,151.99 52.55,52.55 124.94,85.18 204.41,85.18l73.53 0c1722.18,-1418.82 3420.69,-2798.61 4457.72,-3369.99l-432.33 0 -793.78 0zm-4224.58 3677.13c-1444.3,1240.19 -2746.39,2373.53 -3470.21,3125.19 3.74,23.71 10.4,46.5 19.59,67.99 980.59,-644.38 2495.13,-1893.44 4032.03,-3161.02l38.98 -32.16 -620.39 0zm6781.94 -3677.13c18.86,40.44 34.85,85.26 47.86,134.62 149.67,567.92 -939.61,1877.42 -2285.17,3235.37l1482.79 0c845.1,-819.77 1681.44,-1611.17 2485.27,-2350.43l0 -729.97c0,-79.48 -32.64,-151.86 -85.18,-204.41 -52.55,-52.55 -124.94,-85.18 -204.42,-85.18l-1441.15 0zm-2562.95 3694.92c-1367.63,1348.93 -2909.93,2690.89 -3671.79,3352.2l1776.59 0 115.96 -78.73 59.02 -61.26c626.18,-648.54 1266.47,-1299.8 1910.37,-1943.41l0 -996.98c0,-79.49 -32.63,-151.87 -85.18,-204.42 -29.5,-29.49 -65.24,-52.7 -104.97,-67.4zm-4057.73 3688.75c-18.19,16.18 -33.56,30.03 -46.02,41.46 -362.72,333.18 -966.49,864.86 -1680,1493.16 -638.74,562.49 -1374.23,1197.63 -2088.47,1811.05l519.04 0 31.65 -22.49c440.37,-312.48 1248.91,-853.47 2288.09,-1548.81 357.36,-239.11 742.48,-496.82 1149.66,-769.96l0 -739.13c0,-79.49 -32.63,-151.87 -85.18,-204.42 -25.43,-25.43 -55.5,-46.2 -88.77,-60.86zm-4176.2 3656.03c-1499.6,1285.78 -2811.41,2399.72 -2792.17,2426.83 33.68,47.48 791.68,-657.75 3011.26,-2263.08 -14.43,-30.5 -34.03,-58.15 -57.67,-81.79 -42.9,-42.89 -99.01,-72.52 -161.42,-81.96zm4657.28 -2857.79c390.38,-262.22 798.79,-537.25 1220.59,-822.57l-931 0c-79.47,0 -151.86,32.63 -204.41,85.18 -52.55,52.55 -85.18,124.94 -85.18,204.43l0 532.96zm4073.93 -3524.28c331.79,-329.77 664.09,-657.07 995.52,-980.5l-705.92 0c-79.48,0 -151.86,32.64 -204.41,85.19 -52.55,52.55 -85.19,124.93 -85.19,204.42l0 690.89zm4103.55 -3919.31c277.39,-253.09 550.55,-499.62 818.32,-738.32l-528.72 0c-79.48,0 -151.86,32.63 -204.41,85.18 -52.55,52.55 -85.19,124.93 -85.19,204.41l0 448.73zm4098.93 -3460.13c451.58,-333.87 850.73,-602.73 1184.58,-793.59 107.23,-61.29 210.12,-115.25 308.51,-161.72l-1203.5 0c-79.48,0 -151.86,32.63 -204.41,85.18 -52.55,52.55 -85.18,124.94 -85.18,204.42l0 665.71zm2705.22 -955.31c20.34,25.41 39.22,53.14 56.51,83.4l48.18 84.26 0 101.09c-0.01,692.45 -915.63,1797.04 -2342.15,3101.24l3026.56 0 4098.93 0c79.48,0 151.87,-32.62 204.41,-85.17 52.55,-52.55 85.18,-124.94 85.18,-204.43l0 -2790.79c0,-79.48 -32.63,-151.87 -85.18,-204.42 -52.54,-52.55 -124.93,-85.18 -204.41,-85.18l-4888.03 0zm-2578.62 3677.12c-1153.57,1023.53 -2589.41,2154.84 -4125.81,3298.39 51,44.52 117.49,71.6 189.88,71.6l7303.65 0c79.47,0 151.86,-32.63 204.41,-85.18 52.55,-52.55 85.19,-124.93 85.19,-204.41l0 -2790.81c0,-79.48 -32.64,-151.86 -85.19,-204.41 -52.55,-52.55 -124.94,-85.18 -204.41,-85.18l-3204.73 0 -162.99 0zm-4637.72 3677.13c-1210.52,890.64 -2469.56,1782.21 -3691.36,2629.66l0 450.74c0,79.48 32.63,151.86 85.18,204.41 52.55,52.55 124.94,85.18 204.42,85.18l7303.65 0c79.49,0 151.88,-32.63 204.43,-85.18 52.55,-52.55 85.17,-124.93 85.17,-204.41l0 -2790.79c0,-79.49 -32.63,-151.87 -85.18,-204.42 -52.55,-52.55 -124.93,-85.19 -204.42,-85.19l-3901.89 0zm-3998.49 2842.29c-257.82,178.2 -513.63,354.24 -766.63,527.7l477.03 0c79.49,0 151.88,-32.63 204.43,-85.18 52.55,-52.55 85.17,-124.93 85.17,-204.41l0 -238.11zm-1223 839.92c-86.21,58.86 -171.97,117.32 -257.32,175.45 -792.06,821.72 -1561.7,1635.53 -2286.48,2418.79l0 486.16c0,79.48 32.63,151.87 85.18,204.42 52.55,52.55 124.94,85.18 204.41,85.18l3211.98 0c871.13,-713.63 1740.37,-1447.49 2539.53,-2148.35 154.76,-135.4 390.01,-119.71 525.41,35.03 135.42,154.75 119.74,390 -35.03,525.4 -593.96,520.9 -1222.7,1057.1 -1859.66,1587.92l2921.43 0c79.48,0 151.87,-32.63 204.42,-85.18 52.54,-52.55 85.17,-124.94 85.17,-204.42l0 -2790.79c0,-79.49 -32.63,-151.88 -85.17,-204.43 -52.55,-52.55 -124.94,-85.18 -204.42,-85.18l-5049.45 0zm-2850.93 2927.25c-136.86,148.88 -271.92,296.52 -405.07,442.75l115.47 0c79.49,0 151.87,-32.64 204.42,-85.19 52.55,-52.55 85.18,-124.93 85.18,-204.41l0 -153.15zm-683.74 749.89c-1157.24,1280.02 -2152.35,2439.42 -2873.66,3365.51 16.44,2.94 33.34,4.48 50.57,4.48l2512.74 0c879.35,-598.68 2104.24,-1519.19 3423.47,-2565.24 330.44,-262.01 666,-531.29 1002.75,-804.75l-4115.87 0zm-3112.75 3677.12c-731.48,970.07 -1106.71,1634.04 -970.14,1835.1 112.74,165.99 1101.05,-347.22 3317.9,-1835.1l-2058.1 0 -289.66 0zm8386.4 -3661.56c-52.47,43.32 -104.97,86.58 -157.46,129.76 -24.71,42.58 -38.89,91.88 -38.89,144.28l0 2790.79c0,79.49 32.63,151.88 85.18,204.43 52.55,52.55 124.94,85.17 204.41,85.17l3204.73 0 4098.93 0c79.49,0 151.87,-32.64 204.42,-85.18 52.55,-52.55 85.18,-124.93 85.18,-204.42l0 -2790.79c0,-79.49 -32.63,-151.87 -85.18,-204.42 -52.55,-52.55 -124.93,-85.18 -204.42,-85.18l-7303.66 0c-32.56,0 -63.93,5.47 -93.24,15.56zm-503.48 413.23c-401.46,327.56 -801.3,649.19 -1192.94,959.74 -936.09,742.25 -1831.7,1426.14 -2597.03,1981.46l287.77 0 3212.6 0c79.49,0 151.87,-32.64 204.42,-85.18 52.55,-52.55 85.18,-124.93 85.18,-204.42l0 -2651.6zm-4260.95 3278.25c-147.87,104.21 -289.24,202.18 -423.17,293.15 -2958.77,2009.71 -4408.24,2483.93 -4784.86,1929.43 -223.48,-329.01 123.13,-1136.92 867.45,-2252.5l-3090.65 0c-79.48,0 -151.86,32.64 -204.41,85.19 -52.55,52.55 -85.19,124.93 -85.19,204.41l0 2790.79c0,79.48 32.63,151.87 85.18,204.42 52.55,52.55 124.94,85.17 204.42,85.17l7303.65 0c79.49,0 151.88,-32.62 204.43,-85.17 52.55,-52.55 85.17,-124.94 85.17,-204.42l0 -2790.79c0,-79.48 -32.63,-151.86 -85.18,-204.41 -22.35,-22.35 -48.29,-41.1 -76.84,-55.27zm-4118.62 -355.04c61.04,-87.46 124.34,-176.65 189.56,-267.31l0.04 -4.3 0 -2037.9c-2413.61,1647.06 -3452.34,2092.38 -3645.92,1819.54 -216.2,-304.66 926.14,-1508.15 2373.99,-2862.03l-6321.34 0c-79.47,0 -151.86,32.62 -204.41,85.17 -52.55,52.55 -85.18,124.94 -85.18,204.43l0 2790.79c0,79.49 32.63,151.88 85.18,204.43 52.55,52.55 124.94,85.17 204.41,85.17l4091.06 0 3212.6 0c35.09,0 68.79,-6.37 100.01,-17.99zm496.72 -685.45c599.27,-800.53 1336.27,-1703.43 2168.67,-2666.55l-978.77 0c-154.44,105.84 -288.21,198.72 -399.24,277.5 -277.65,197 -540.85,381.36 -790.66,554l0 1835.05zm2435.53 -2973.69c377.12,-431.7 772.02,-874.31 1181.09,-1324.2l-555.36 371.72c-543.32,363.52 -1022.9,684.43 -1419.58,952.48l793.85 0zm-3683.81 0c876.98,-808.85 1832.58,-1650.4 2651.42,-2371.47 427.79,-376.69 816.85,-719.31 1131.07,-998.53l-1917.07 0c-279.91,192.38 -528.78,348.58 -738.39,458.9 -335.35,176.52 -576.09,247.27 -741.47,243.36 -237.23,-5.65 -383.11,-116.72 -454.17,-306.98 -45,-120.57 -39.47,-254.62 5.74,-395.28l-2485.69 0c-79.47,0 -151.86,32.63 -204.41,85.18 -52.55,52.55 -85.18,124.94 -85.18,204.43l0 2790.79c0,79.48 32.63,151.87 85.18,204.42 52.55,52.55 124.94,85.18 204.41,85.18l2548.56 0zm4131.82 -3682.22c70.24,-63.29 133.19,-120.46 187.95,-170.75 49.34,-45.34 192.98,-170.01 401.01,-350.55 644.35,-559.25 1951.4,-1693.72 3191.17,-2848.69l-1411.17 0c-244.8,201.25 -491.19,404.46 -737,607.2 -1251.77,1032.39 -2488.97,2052.73 -3459.3,2762.79l1827.34 0zm4107.69 -3677.13c1247.93,-1178.62 2358.24,-2327.36 2553.58,-2855.57 -715.26,280.19 -2253.35,1492.79 -3917.96,2855.57l1364.38 0zm-8151.26 3677.13c109.14,-179.2 257.82,-372.92 414.41,-546.21 121.49,-134.45 264.52,-282.73 426,-442.96l0 -2091.21c0,-42.66 -9.4,-83.28 -26.24,-119.88 -207.25,165.05 -367.78,289.3 -472.1,362.96 -2342.2,1654.06 -3877.92,2527.46 -4769.93,2837.3l4427.86 0zm1147.53 -1287.35c619.54,-590.17 1433.56,-1306.91 2331.47,-2082.64l-2041.87 0c-79.48,0 -151.86,32.64 -204.41,85.19 -52.55,52.55 -85.19,124.93 -85.19,204.42l0 1793.03zm2687.71 -2389.78c315.69,-271.68 639.55,-549.25 967.14,-830.02l141.57 -121.35 0 -1896.83c-1130.09,887.05 -2210.95,1767.31 -3047.91,2449 -174.27,141.95 -338.3,275.55 -490.52,399.2l2429.72 0zm1415.84 -1214.71c842.76,-722.91 1695.87,-1457.88 2480.39,-2155.28l-2117.65 0c-121.09,93.55 -242.04,187.44 -362.63,281.44 -0.07,2.71 -0.11,5.43 -0.11,8.15l0 1865.69zm2824.08 -2462.41c341.03,-306.47 665.89,-603.89 967.72,-887.92l0 -1272.85c-891.71,566.78 -1955.43,1340.23 -3029.38,2160.77l2061.66 0zm1274.85 -1180.03c696.15,-669.95 1239.45,-1250.4 1526.54,-1676.33 95.79,-142.12 226.12,-189.27 248.54,-217.2 -319.48,-62.04 -959.27,226.01 -1775.08,721.81l0 1171.72zm-14951.18 8534.28c-107.66,-91.51 -174.11,-225.37 -201.81,-397.27 -47.51,-294.82 105.06,-712.26 422.65,-1209.37 312.25,-488.79 801.53,-1095.44 1423.68,-1763.35l-2796.2 0c-79.48,0 -151.86,32.64 -204.41,85.19 -52.55,52.55 -85.19,124.93 -85.19,204.42l0 2790.79c0,79.48 32.63,151.86 85.18,204.41 52.55,52.55 124.94,85.18 204.42,85.18l1151.68 0zm1935.82 -3677.13c134.64,-139.48 274.59,-281.17 419.32,-424.53l0 -2655.87c0,-79.48 -32.63,-151.86 -85.18,-204.41 -52.55,-52.55 -124.93,-85.18 -204.42,-85.18l-3204.73 0 -4098.92 0c-79.47,0 -151.86,32.63 -204.41,85.18 -52.55,52.55 -85.19,124.93 -85.19,204.41l0 2790.81c0,79.48 32.64,151.86 85.19,204.41 52.55,52.55 124.94,85.18 204.41,85.18l7173.93 0zm726.45 -724.31c900.85,-866.4 1965.28,-1781.79 3115.14,-2645.68l-2825.54 0c-79.47,0 -151.86,32.63 -204.41,85.18 -52.55,52.55 -85.19,124.93 -85.19,204.41l0 2356.09zm4098.93 -3382.19c1353.42,-1017.5 2676.86,-2034.99 3776.28,-2940.61l-1988.23 0c-609.96,336.82 -1217.63,675.97 -1788.05,996.75l0 1943.86zm4217.1 -3308c120.22,-101.46 237.08,-201.21 350.21,-299.06 1266.88,-1095.63 2086.81,-1875.18 1978.13,-1982.41 -43.84,-43.26 -1023.46,628.22 -2441.89,1391.25l0 660.87c0,79.49 32.63,151.87 85.18,204.42 8.9,8.9 18.38,17.24 28.37,24.93zm4984.84 8736.09c478.07,-335.85 956.26,-674.94 1429.38,-1014.45l-389.74 0c-345.09,333.41 -692.18,672.08 -1039.64,1014.45zm1855.81 -1321.59c308.75,-223.21 614.56,-446.21 916.15,-668.25l0 -669.14c-463.27,431.57 -935.94,878.9 -1413.45,1337.39l497.3 0zm1223.28 -895.16c1159.45,-859.57 2246.14,-1700.11 3174.53,-2474.83l-1233.65 0c-615.21,537.06 -1266.85,1124.26 -1940.88,1747.56l0 727.27zm3541.32 -2784.63c81.06,-69.33 160.75,-138.08 238.88,-206.16 7.55,-25.67 11.6,-52.78 11.6,-80.77l0 -952.23c-461.33,365.56 -963.53,782.8 -1496.69,1241.83l1207.09 0c13.26,0 26.32,-0.92 39.12,-2.67zm557.61 -487.81c1096.01,-982.87 1842.34,-1812.91 2022.01,-2371.54 -89.08,63.09 -243.5,174.19 -466.71,301.79 -419.44,239.78 -946.6,607.89 -1555.3,1078.03l0 991.72zm-8799.21 22865.46l-7303.65 0c-164.26,0 -313.49,-67.09 -421.55,-175.17 -108.08,-108.06 -175.17,-257.29 -175.17,-421.55l0 -2790.8c0,-104.94 27.4,-203.75 75.37,-289.62l-3565.08 0c-164.25,0 -313.48,-67.1 -421.56,-175.16 -108.07,-108.08 -175.17,-257.31 -175.17,-421.56l0 -2790.79c0,-104.95 27.39,-203.74 75.36,-289.6l-3569.69 0c-164.24,0 -313.47,-67.1 -421.55,-175.17 -108.07,-108.07 -175.16,-257.31 -175.16,-421.56l0 -2790.79c0,-104.95 27.38,-203.75 75.35,-289.61l-3565.07 0c-164.24,0 -313.47,-67.1 -421.55,-175.17 -108.07,-108.08 -175.16,-257.31 -175.16,-421.56l0 -2790.79c0,-164.26 67.09,-313.49 175.16,-421.57 108.08,-108.07 257.31,-175.16 421.55,-175.16l3555.45 0c-49.74,-87.03 -78.23,-187.68 -78.23,-294.69l0 -2790.79c0,-104.95 27.38,-203.76 75.36,-289.63l-3565.07 0c-164.24,0 -313.47,-67.09 -421.55,-175.16 -108.08,-108.08 -175.17,-257.3 -175.17,-421.55l0 -2790.81c0,-164.25 67.09,-313.47 175.17,-421.55 108.08,-108.07 257.31,-175.17 421.55,-175.17l3577.56 0c-47.97,-85.85 -75.35,-184.66 -75.35,-289.6l0 -2790.79c0,-164.25 67.09,-313.48 175.16,-421.56 108.08,-108.07 257.31,-175.17 421.55,-175.17l3582.19 0c-47.96,-85.86 -75.36,-184.67 -75.36,-289.61l0 -2790.8c0,-164.24 67.1,-313.48 175.17,-421.55 108.08,-108.07 257.31,-175.17 421.55,-175.17l3555.46 0c-49.74,-87.04 -78.24,-187.66 -78.24,-294.69l0 -2790.8c0,-164.25 67.09,-313.48 175.17,-421.56 108.08,-108.06 257.31,-175.16 421.55,-175.16l7303.65 0c164.24,0 313.48,67.1 421.56,175.16 7.4,7.41 14.6,15.01 21.61,22.78 7.01,-7.77 14.21,-15.37 21.61,-22.78 108.08,-108.06 257.31,-175.16 421.55,-175.16l7303.65 0c164.24,0 313.48,67.1 421.55,175.16 108.08,108.08 175.18,257.31 175.18,421.56l0 2790.8c0,107.03 -28.5,207.65 -78.25,294.69l3597.57 0c164.24,0 313.47,67.1 421.55,175.17 108.07,108.07 175.17,257.31 175.17,421.55l0 2790.8c0,104.94 -27.4,203.75 -75.36,289.61l3565.07 0c164.24,0 313.48,67.1 421.55,175.17 108.07,108.08 175.17,257.31 175.17,421.56l0 2790.79c0,164.26 -67.1,313.49 -175.17,421.57 -108.07,108.07 -257.31,175.16 -421.55,175.16l-3577.56 0c47.96,85.86 75.36,184.66 75.36,289.59l0 2790.81c0,104.94 -27.41,203.74 -75.37,289.61l3565.07 0c164.26,0 313.5,67.09 421.55,175.17 108.08,108.06 175.18,257.29 175.18,421.56l0 2790.79c0,164.24 -67.1,313.47 -175.17,421.55 -108.07,108.07 -257.31,175.17 -421.56,175.17l-3555.45 0c49.75,87.04 78.24,187.67 78.24,294.7l0 2790.79c0,164.25 -67.1,313.48 -175.17,421.56 -108.08,108.07 -257.31,175.17 -421.55,175.17l-3582.19 0c47.96,85.86 75.37,184.66 75.37,289.61l0 2790.79c0,164.26 -67.1,313.5 -175.17,421.55 -108.06,108.08 -257.3,175.18 -421.56,175.18l-3577.56 0c47.97,85.86 75.36,184.65 75.36,289.6l0 2790.79c0,164.25 -67.1,313.48 -175.17,421.56 -108.07,108.06 -257.31,175.16 -421.56,175.16l-3582.2 0c47.98,85.87 75.38,184.68 75.38,289.62l0 2790.8c0,164.26 -67.1,313.49 -175.17,421.55 -108.08,108.08 -257.3,175.17 -421.56,175.17zm-7303.65 -307.12l7303.65 0c79.49,0 151.87,-32.64 204.42,-85.19 52.55,-52.55 85.18,-124.93 85.18,-204.41l0 -2790.8c0,-79.48 -32.63,-151.86 -85.18,-204.41 -52.55,-52.55 -124.93,-85.19 -204.42,-85.19l-7303.65 0c-79.48,0 -151.86,32.64 -204.41,85.19 -52.55,52.55 -85.19,124.93 -85.19,204.41l0 2790.8c0,79.48 32.64,151.86 85.19,204.41 52.55,52.55 124.93,85.19 204.41,85.19zm8202.47 -7047.13l-886.32 0 -3212.6 0c-79.48,0 -151.86,32.64 -204.41,85.19 -52.55,52.55 -85.19,124.93 -85.19,204.41l0 2790.79c0,79.48 32.63,151.87 85.18,204.42 52.55,52.55 124.94,85.17 204.42,85.17l7303.65 0c79.49,0 151.88,-32.62 204.43,-85.17 52.54,-52.55 85.17,-124.94 85.17,-204.42l0 -2790.79c0,-79.48 -32.64,-151.86 -85.18,-204.41 -52.55,-52.55 -124.93,-85.19 -204.42,-85.19l-3204.73 0zm8177.49 -7666.48l7303.65 0c79.49,0 151.88,-32.63 204.42,-85.18 52.55,-52.55 85.18,-124.93 85.18,-204.41l0 -2790.79c0,-79.49 -32.64,-151.87 -85.19,-204.42 -52.54,-52.55 -124.92,-85.19 -204.41,-85.19l-7303.65 0c-79.48,0 -151.86,32.64 -204.41,85.19 -52.55,52.55 -85.19,124.93 -85.19,204.42l0 2790.79c0,79.48 32.63,151.86 85.18,204.41 52.55,52.55 124.94,85.18 204.42,85.18zm-21340.22 312.22l-7303.66 0c-79.47,0 -151.86,32.63 -204.41,85.18 -52.55,52.55 -85.18,124.94 -85.18,204.43l0 2790.79c0,79.48 32.63,151.87 85.18,204.42 52.55,52.55 124.94,85.18 204.41,85.18l7303.66 0c79.49,0 151.87,-32.64 204.42,-85.19 52.55,-52.55 85.18,-124.93 85.18,-204.41l0 -2790.79c0,-79.49 -32.63,-151.87 -85.18,-204.42 -52.55,-52.55 -124.93,-85.19 -204.42,-85.19zm24569.94 0l-7303.66 0c-79.48,0 -151.86,32.64 -204.41,85.19 -52.55,52.55 -85.19,124.93 -85.19,204.42l0 2790.79c0,79.48 32.64,151.86 85.19,204.41 52.55,52.55 124.93,85.19 204.41,85.19l7303.66 0c79.47,0 151.86,-32.63 204.41,-85.18 52.55,-52.55 85.18,-124.94 85.18,-204.42l0 -2790.79c0,-79.49 -32.63,-151.88 -85.18,-204.43 -52.55,-52.55 -124.94,-85.18 -204.41,-85.18zm0 -14713.59l-7303.66 0c-79.48,0 -151.86,32.62 -204.41,85.17 -52.55,52.55 -85.19,124.93 -85.19,204.42l0 2790.8c0,79.49 32.64,151.87 85.19,204.42 52.55,52.54 124.93,85.17 204.41,85.17l7303.66 0c79.47,0 151.86,-32.63 204.41,-85.17 52.55,-52.55 85.18,-124.93 85.18,-204.42l0 -2790.8c0,-79.48 -32.63,-151.87 -85.18,-204.42 -52.55,-52.55 -124.94,-85.17 -204.41,-85.17zm-11709.3 -3392.62l0 2790.8c0,79.49 32.64,151.87 85.19,204.42 52.55,52.54 124.94,85.17 204.41,85.17l7303.65 0c79.48,0 151.87,-32.63 204.42,-85.17 52.55,-52.55 85.18,-124.93 85.18,-204.42l0 -2790.8c0,-79.49 -32.63,-151.87 -85.18,-204.42 -52.55,-52.55 -124.94,-85.17 -204.42,-85.17l-7303.65 0c-79.47,0 -151.86,32.62 -204.41,85.17 -52.55,52.55 -85.19,124.93 -85.19,204.42zm-7900.38 3080.39l7303.65 0c79.49,0 151.87,-32.63 204.42,-85.17 52.55,-52.55 85.18,-124.93 85.18,-204.42l0 -2790.8c0,-79.49 -32.63,-151.87 -85.18,-204.42 -52.55,-52.55 -124.93,-85.17 -204.42,-85.17l-7303.65 0c-79.47,0 -151.86,32.62 -204.41,85.17 -52.55,52.55 -85.19,124.93 -85.19,204.42l0 2790.8c0,79.49 32.64,151.87 85.19,204.42 52.55,52.54 124.94,85.17 204.41,85.17z"/></g><text x="0" y="50015" fill="#000000" font-size="5px" font-weight="bold" font-family="'Helvetica Neue', Helvetica, Arial-Unicode, Arial, Sans-serif">Created by Oleksandr Panasovskyi</text><text x="0" y="50020" fill="#000000" font-size="5px" font-weight="bold" font-family="'Helvetica Neue', Helvetica, Arial-Unicode, Arial, Sans-serif">from the Noun Project</text></svg>