<svg xmlns="http://www.w3.org/2000/svg" xmlns:xlink="http://www.w3.org/1999/xlink" version="1.1" x="0px" y="0px" viewBox="0 0 100 125" enable-background="new 0 0 100 100" xml:space="preserve"><polygon stroke="#000000" stroke-width="4" stroke-linejoin="round" stroke-miterlimit="10" points="15.217,7 14.391,7 6.131,7   5.305,7 2,7 2,13 5.305,13 6.131,13 14.391,13 15.217,13 21,13 21,7 "/><rect y="27" stroke="#000000" stroke-width="4" stroke-linejoin="round" stroke-miterlimit="10" width="1" height="6"/><rect x="25" y="25" width="10" height="10"/><rect x="19" y="27" stroke="#000000" stroke-width="4" stroke-linejoin="round" stroke-miterlimit="10" width="22" height="6"/><polygon stroke="#000000" stroke-width="4" stroke-linejoin="round" stroke-miterlimit="10" points="33,21 33,15.571 33,8.787 33,2   27,2 27,8.787 27,15.571 27,21 "/><polygon stroke="#000000" stroke-width="4" stroke-linejoin="round" stroke-miterlimit="10" points="73,21 73,15.571 73,8.787 73,2   67,2 67,8.787 67,15.571 67,21 "/><polygon stroke="#000000" stroke-width="4" stroke-linejoin="round" stroke-miterlimit="10" points="45.77,7 39,7 39,13 45.77,13   54.23,13 61,13 61,7 54.23,7 "/><polygon stroke="#000000" stroke-width="4" stroke-linejoin="round" stroke-miterlimit="10" points="13,41 13,34.714 13,26.858   13,19 7,19 7,26.858 7,34.714 7,41 "/><polygon stroke="#000000" stroke-width="4" stroke-linejoin="round" stroke-miterlimit="10" points="53,41 53,34.714 53,26.857   53,19 47,19 47,26.857 47,34.714 47,41 "/><polygon stroke="#000000" stroke-width="4" stroke-linejoin="round" stroke-miterlimit="10" points="93,41 93,34.714 93,26.857   93,19 87,19 87,26.857 87,34.714 87,41 "/><rect x="87" stroke="#000000" stroke-width="4" stroke-linejoin="round" stroke-miterlimit="10" width="6" height="1"/><polygon stroke="#000000" stroke-width="4" stroke-linejoin="round" stroke-miterlimit="10" points="92.217,7 91.391,7 83.131,7   82.305,7 79,7 79,13 82.305,13 83.131,13 91.391,13 92.217,13 98,13 98,7 "/><rect x="59" y="27" stroke="#000000" stroke-width="4" stroke-linejoin="round" stroke-miterlimit="10" width="22" height="6"/><polygon stroke="#000000" stroke-width="4" stroke-linejoin="round" stroke-miterlimit="10" points="92.216,47 91.391,47 83.132,47   82.305,47 79,47 79,53 82.305,53 83.132,53 91.391,53 92.216,53 98,53 98,47 "/><polygon stroke="#000000" stroke-width="4" stroke-linejoin="round" stroke-miterlimit="10" points="15.217,47 14.391,47 6.131,47   5.305,47 2,47 2,53 5.305,53 6.131,53 14.391,53 15.217,53 21,53 21,47 "/><polygon stroke="#000000" stroke-width="4" stroke-linejoin="round" stroke-miterlimit="10" points="45.77,47 39,47 39,53 45.77,53   54.23,53 61,53 61,47 54.23,47 "/><polygon stroke="#000000" stroke-width="4" stroke-linejoin="round" stroke-miterlimit="10" points="13,81 13,74.714 13,66.857   13,59 7,59 7,66.857 7,74.714 7,81 "/><polygon stroke="#000000" stroke-width="4" stroke-linejoin="round" stroke-miterlimit="10" points="53,81 53,74.714 53,66.857   53,59 47,59 47,66.857 47,74.714 47,81 "/><polygon stroke="#000000" stroke-width="4" stroke-linejoin="round" stroke-miterlimit="10" points="93,81 93,74.714 93,66.857   93,59 87,59 87,66.857 87,74.714 87,81 "/><polygon stroke="#000000" stroke-width="4" stroke-linejoin="round" stroke-miterlimit="10" points="33,61 33,54.714 33,46.857   33,39 27,39 27,46.857 27,54.714 27,61 "/><polygon stroke="#000000" stroke-width="4" stroke-linejoin="round" stroke-miterlimit="10" points="73,61 73,54.714 73,46.857   73,39 67,39 67,46.857 67,54.714 67,61 "/><polygon stroke="#000000" stroke-width="4" stroke-linejoin="round" stroke-miterlimit="10" points="25.77,67 19,67 19,73 25.77,73   34.23,73 41,73 41,67 34.23,67 "/><polygon stroke="#000000" stroke-width="4" stroke-linejoin="round" stroke-miterlimit="10" points="65.77,67 59,67 59,73 65.77,73   74.23,73 81,73 81,67 74.23,67 "/><polygon stroke="#000000" stroke-width="4" stroke-linejoin="round" stroke-miterlimit="10" points="45.77,87 39,87 39,93 45.77,93   54.23,93 61,93 61,87 54.23,87 "/><polygon stroke="#000000" stroke-width="4" stroke-linejoin="round" stroke-miterlimit="10" points="33,98 33,92.571 33,85.787   33,79 27,79 27,85.787 27,92.571 27,98 "/><polygon stroke="#000000" stroke-width="4" stroke-linejoin="round" stroke-miterlimit="10" points="73,98 73,92.571 73,85.787   73,79 67,79 67,85.787 67,92.571 67,98 "/><polygon stroke="#000000" stroke-width="4" stroke-linejoin="round" stroke-miterlimit="10" points="92.216,87 91.391,87 83.132,87   82.305,87 79,87 79,93 82.305,93 83.132,93 91.391,93 92.216,93 98,93 98,87 "/><polygon stroke="#000000" stroke-width="4" stroke-linejoin="round" stroke-miterlimit="10" points="15.216,87 14.391,87 6.132,87   5.305,87 2,87 2,93 5.305,93 6.132,93 14.391,93 15.216,93 21,93 21,87 "/><rect x="47.166" stroke="#000000" stroke-width="4" stroke-linejoin="round" stroke-miterlimit="10" width="6" height="1"/><rect x="7" stroke="#000000" stroke-width="4" stroke-linejoin="round" stroke-miterlimit="10" width="6" height="1"/><rect y="67" stroke="#000000" stroke-width="4" stroke-linejoin="round" stroke-miterlimit="10" width="1" height="6"/><rect x="99" y="27" stroke="#000000" stroke-width="4" stroke-linejoin="round" stroke-miterlimit="10" width="1" height="6"/><rect x="99" y="67" stroke="#000000" stroke-width="4" stroke-linejoin="round" stroke-miterlimit="10" width="1" height="6"/><rect x="87" y="99" stroke="#000000" stroke-width="4" stroke-linejoin="round" stroke-miterlimit="10" width="6" height="1"/><rect x="47.166" y="99" stroke="#000000" stroke-width="4" stroke-linejoin="round" stroke-miterlimit="10" width="6" height="1"/><rect x="7" y="99" stroke="#000000" stroke-width="4" stroke-linejoin="round" stroke-miterlimit="10" width="6" height="1"/><text x="0" y="115" fill="#000000" font-size="5px" font-weight="bold" font-family="'Helvetica Neue', Helvetica, Arial-Unicode, Arial, Sans-serif">Created by Alen Krummenacher</text><text x="0" y="120" fill="#000000" font-size="5px" font-weight="bold" font-family="'Helvetica Neue', Helvetica, Arial-Unicode, Arial, Sans-serif">from the Noun Project</text></svg>