<svg xmlns="http://www.w3.org/2000/svg" data-name="Layer 2" viewBox="0 0 100 125" x="0px" y="0px"><title>SUMMER_VACATION_ICONS</title><path d="M80.12,35.28c2.98-6.23,5.93-13.26,5.93-16.78a13.32,13.32,0,0,0-26.64,0,12.74033,12.74033,0,0,0,.41,2.83,37.34589,37.34589,0,0,0-29.41,4.25l-.03668.02258a1.467,1.467,0,0,0-.35065.21588L30.02,25.82a37.41012,37.41012,0,1,0,50.1,9.46Zm4.04,17.79.00067.00628c-.18127.03681-.363.06726-.54431.10468a19.20263,19.20263,0,0,1-4.051.53723,18.58253,18.58253,0,0,1-3.3122-.53577c-3.14721-.69012-7.06311-1.54614-9.73291,1.64258-2.19525,2.61963-1.16223,5.48328-.33276,7.78412a15.28633,15.28633,0,0,1,.70117,2.28882,37.25371,37.25371,0,0,1,.72919,9.25354c-.22571,3.44476-1.42554,7.475-3.28125,8.5119-.27588.15527-1.11694.62787-2.7923-.25708a45.64292,45.64292,0,0,1-5.74274-3.50842c-4.24487-3.1106-6.4671-6.40924-6.60595-9.80432a23.07231,23.07231,0,0,1,.83429-6.00318,26.67126,26.67126,0,0,0,.91534-6.509,30.11863,30.11863,0,0,0-.5816-4.51538c-.543-3.044-1.10437-6.19122.23242-8.306a19.96414,19.96414,0,0,1,2.2666-2.76575,23.21373,23.21373,0,0,0,2.51068-3.06476,9.63183,9.63183,0,0,0,1.35224-6.07788c-.01349-.59942-.02607-1.2196.00579-1.861.09357-1.85,1.52778-2.77881,3.8783-4.08813.18121-.1009.36456-.20673.54755-.31018L61.16,25.6c3.1,8.45,9.35,19.82,10.27,21.48a1.48421,1.48421,0,0,0,1.3.76,1.46842,1.46842,0,0,0,1.29-.76c.48-.87,2.42-4.39,4.62-8.77A34.13771,34.13771,0,0,1,84.16,53.07ZM72.73,8.14A10.375,10.375,0,0,1,83.09,18.5c0,2.67-2.35,8.47-5.05,14.21-.46.98-.93,1.95-1.4,2.91-1.39,2.84-2.78,5.52-3.91,7.64-2.38-4.45-5.91-11.41-8.16-17.04-.55-1.36-1.02-2.64-1.39-3.79a14.36567,14.36567,0,0,1-.81-3.93A10.375,10.375,0,0,1,72.73,8.14ZM31.04,28.68l.008-.005c.36652.19372.72406.39184,1.10077.58209,2.1817,1.10193,4.242,2.14313,4.94116,4.21783,1.05231,3.12214-1.02044,6.483-2.67071,8.74A29.30385,29.30385,0,0,1,30.183,46.5658a38.71367,38.71367,0,0,0-3.89764,3.84845c-3.13562,3.73748-3.14722,7.75329-2.852,12.23681.0318.48371.07812.97418.12439,1.468a12.53338,12.53338,0,0,1-.14276,4.85876,32.50421,32.50421,0,0,1-1.98108,4.54383c-.28827.58093-.5777,1.17517-.85974,1.77478L20.57,75.29A34.404,34.404,0,0,1,31.04,28.68ZM50,91.86A34.38973,34.38973,0,0,1,22.52307,78.15887c.0567-.1145,1.0636-2.3103,1.56519-3.32061A35.28587,35.28587,0,0,0,26.241,69.87048a15.13861,15.13861,0,0,0,.26623-6.02777c-.04339-.46679-.08679-.92975-.1167-1.38647-.27008-4.103-.273-7.23194,2.16437-10.13709a35.932,35.932,0,0,1,3.6073-3.548,31.96775,31.96775,0,0,0,4.649-4.80762c2.03894-2.78845,4.57855-7.00818,3.0874-11.43487-1.007-2.98529-3.5033-4.42932-5.84967-5.62818L34.05,26.9a34.43076,34.43076,0,0,1,24.02252-2.96154c-2.04962,1.21136-4.14594,2.83429-4.30029,5.90362-.0376.747-.02314,1.42078-.00965,2.07275.03669,1.71589.06269,2.95527-.87579,4.40253a20.62643,20.62643,0,0,1-2.20392,2.66931,22.48811,22.48811,0,0,0-2.5907,3.19013c-1.95117,3.08648-1.25769,6.97687-.64526,10.40912a27.93318,27.93318,0,0,1,.53534,4.05914,24.05907,24.05907,0,0,1-.84107,5.78955,25.67176,25.67176,0,0,0-.90667,6.78C46.413,73.55542,49.04224,77.61749,54.05,81.288a48.51,48.51,0,0,0,6.11023,3.738,6.73053,6.73053,0,0,0,3.15686.86371,5.016,5.016,0,0,0,2.46533-.64c4.02875-2.25067,4.6991-9.47827,4.79266-10.90386a40.18883,40.18883,0,0,0-.7716-9.9842,17.65118,17.65118,0,0,0-.82849-2.75757c-.7967-2.20874-1.23169-3.62561-.18329-4.87609,1.41687-1.69275,3.52533-1.37445,6.82684-.65107a20.85594,20.85594,0,0,0,3.88318.60334,30.45674,30.45674,0,0,0,4.90839-.63483Q84.44,56.7327,84.44,57.42A34.47939,34.47939,0,0,1,50,91.86Z"/><path d="M71.16,26.61a8.11814,8.11814,0,0,0,1.57.15,8.24725,8.24725,0,1,0-1.57-.15ZM72.73,13.2a5.3,5.3,0,1,1-5.3,5.3A5.30911,5.30911,0,0,1,72.73,13.2Z"/><text x="0" y="115" fill="#000000" font-size="5px" font-weight="bold" font-family="'Helvetica Neue', Helvetica, Arial-Unicode, Arial, Sans-serif">Created by Postcat</text><text x="0" y="120" fill="#000000" font-size="5px" font-weight="bold" font-family="'Helvetica Neue', Helvetica, Arial-Unicode, Arial, Sans-serif">from the Noun Project</text></svg>