<svg id="Logo" xmlns="http://www.w3.org/2000/svg" viewBox="0 0 153.79 42"><title>CDL Logo</title><g id="convergence-circles"><path d="M18.08,11.94A20.74,20.74,0,0,0,7.37,28.15a20.6,20.6,0,0,0,21.41,0A20.76,20.76,0,0,0,18.08,11.94Z" style="fill:#fff"/><path d="M18.08,4.83A10.87,10.87,0,0,0,7.21,15.7v1.06A10.86,10.86,0,0,0,12.47,25,10.85,10.85,0,0,1,28.9,16.76c0-.35.05-.7.05-1.06A10.87,10.87,0,0,0,18.08,4.83Z" style="fill:#97cf3e"/><path d="M28.9,16.76a10.81,10.81,0,0,0-10.82-.25A10.89,10.89,0,0,1,23.69,25v1.05A10.88,10.88,0,0,1,18,35.6,10.88,10.88,0,0,0,28.9,16.76Z" style="fill:#d43ccd"/><path d="M23.69,25A10.88,10.88,0,0,1,7.26,16.76a10.87,10.87,0,1,0,16.48,9.29C23.74,25.7,23.72,25.35,23.69,25Z" style="fill:#ff9a21"/></g><g id="convergence"><path d="M51.26,19.7V34.32H49.92v-2a4.49,4.49,0,0,1-4,2.15,5,5,0,0,1-5.17-4.83c0-.15,0-.3,0-.45a5,5,0,0,1,4.73-5.26h.43A4.55,4.55,0,0,1,49.86,26V19.7Zm-1.38,9.44a3.86,3.86,0,0,0-7.71-.39,2.54,2.54,0,0,0,0,.39,3.86,3.86,0,1,0,7.71.39A2.54,2.54,0,0,0,49.88,29.14Z"/><path d="M65.32,29.57H56.65a3.84,3.84,0,0,0,4.07,3.6h0a4.08,4.08,0,0,0,3.17-1.35l.79.9a5.47,5.47,0,0,1-9.43-3.58,5,5,0,0,1,10.08,0C65.34,29.25,65.32,29.41,65.32,29.57Zm-8.67-1H64a3.68,3.68,0,0,0-7.35,0Z"/><path d="M67.9,33.13l.63-1.1a6.26,6.26,0,0,0,3.69,1.16c2,0,2.77-.67,2.77-1.69,0-2.7-6.71-.57-6.71-4.67,0-1.69,1.45-2.95,4.09-2.95a7.08,7.08,0,0,1,3.67,1L75.43,26a5.28,5.28,0,0,0-3.06-.88c-1.87,0-2.69.73-2.69,1.71,0,2.8,6.71.69,6.71,4.67,0,1.79-1.57,3-4.27,3A6.9,6.9,0,0,1,67.9,33.13Z"/><path d="M79.8,20.69a1,1,0,1,1,1,1A1,1,0,0,1,79.8,20.69ZM80.12,24h1.39V34.32H80.12Z"/><path d="M96.15,24v9.1c0,3.56-1.75,5.18-5.18,5.18a7.23,7.23,0,0,1-4.83-1.6l.71-1.06A6.23,6.23,0,0,0,90.93,37c2.62,0,3.82-1.21,3.82-3.77V31.91a4.63,4.63,0,0,1-4,2,5,5,0,0,1,0-10A4.65,4.65,0,0,1,94.81,26V24Zm-1.36,4.92a3.93,3.93,0,1,0-4.06,3.8h.12a3.7,3.7,0,0,0,3.93-3.45,2.54,2.54,0,0,0,0-.39Z"/><path d="M110.75,28.31v6h-1.4V28.45c0-2.19-1.14-3.31-3.11-3.31a3.4,3.4,0,0,0-3.64,3.14,4,4,0,0,0,0,.6v5.44h-1.39V24h1.33v1.91a4.35,4.35,0,0,1,3.94-2C109,23.88,110.75,25.33,110.75,28.31Z"/><path d="M122,19.7h1.4V34.32H122Z"/><path d="M136.26,27.9v6.42h-1.34V32.7a3.89,3.89,0,0,1-3.57,1.72c-2.34,0-3.78-1.23-3.78-3,0-1.59,1-2.93,4-2.93h3.29v-.63c0-1.78-1-2.74-2.93-2.74a5.3,5.3,0,0,0-3.45,1.22l-.63-1a6.56,6.56,0,0,1,4.21-1.4C134.74,23.88,136.26,25.22,136.26,27.9Zm-1.4,3.31v-1.7h-3.25c-2,0-2.66.79-2.66,1.85s1,2,2.62,2A3.32,3.32,0,0,0,134.86,31.21Z"/><path d="M151.71,29.14A5,5,0,0,1,147,34.42h-.46a4.47,4.47,0,0,1-4-2.15v2H141.2V19.7h1.39v6.23a4.55,4.55,0,0,1,3.94-2.05,5,5,0,0,1,5.18,4.81A3.38,3.38,0,0,1,151.71,29.14Zm-1.4,0a3.87,3.87,0,0,0-7.73-.39,2.54,2.54,0,0,0,0,.39,3.87,3.87,0,0,0,7.73.39A2.54,2.54,0,0,0,150.31,29.14Z"/><path d="M40.38,11.89c0-2.67,2.06-4.57,4.95-4.57a4.07,4.07,0,0,1,4,2.26l-2,1.07a2.23,2.23,0,0,0-2-1.22A2.29,2.29,0,0,0,43,11.65a1.93,1.93,0,0,0,0,.24,2.28,2.28,0,0,0,2.09,2.45h.24a2.2,2.2,0,0,0,2-1.22l2,1.08a4.12,4.12,0,0,1-4,2.25C42.44,16.46,40.38,14.56,40.38,11.89Z"/><path d="M50,11.89a4.58,4.58,0,0,1,4.58-4.58h.32a4.58,4.58,0,0,1,.6,9.14h-.6A4.59,4.59,0,0,1,50,12.21C50,12.1,50,12,50,11.89Zm7.15,0a2.28,2.28,0,0,0-4.54-.43,3.08,3.08,0,0,0,0,.43,2.28,2.28,0,0,0,4.54.43A3.08,3.08,0,0,0,57.15,11.89Z"/><path d="M70.55,11.25v5.08H68V11.64c0-1.43-.66-2.09-1.8-2.09a2.11,2.11,0,0,0-2.13,2.39v4.39H61.48V7.45h2.46v1a3.87,3.87,0,0,1,2.94-1.17C69,7.32,70.55,8.54,70.55,11.25Z"/><path d="M81.53,7.45l-3.75,8.88H75.13L71.4,7.45h2.65l2.46,6,2.54-6Z"/><path d="M91,12.61H84.27a2.36,2.36,0,0,0,2.54,1.79A3,3,0,0,0,89,13.54L90.4,15a4.63,4.63,0,0,1-3.66,1.44c-3.07,0-5.06-1.93-5.06-4.57A4.51,4.51,0,0,1,86.14,7.3h.27A4.39,4.39,0,0,1,91,11.48a3.23,3.23,0,0,1,0,.44Zm-6.75-1.5h4.38a2.22,2.22,0,0,0-4.38,0Z"/><path d="M98.26,7.32V9.69h-.58a2.19,2.19,0,0,0-2.36,2.48v4.19H92.75V7.45h2.46V8.62A3.54,3.54,0,0,1,98.26,7.32Z"/><path d="M108.87,7.45v7.39c0,3.3-1.79,4.82-5,4.82a7.3,7.3,0,0,1-4.35-1.22l1-1.85a5.27,5.27,0,0,0,3.14,1c1.81,0,2.6-.83,2.6-2.43v-.38a3.64,3.64,0,0,1-2.8,1.11,4.23,4.23,0,0,1-4.44-4V11.6a4.22,4.22,0,0,1,4.16-4.29h.28a3.52,3.52,0,0,1,2.93,1.27V7.45Zm-2.54,4.16a2.34,2.34,0,1,0-2.49,2.17H104a2.15,2.15,0,0,0,2.32-2A1.34,1.34,0,0,0,106.33,11.61Z"/><path d="M119.91,12.61h-6.72a2.37,2.37,0,0,0,2.54,1.79,3,3,0,0,0,2.23-.86L119.33,15a4.67,4.67,0,0,1-3.66,1.44c-3.07,0-5.07-1.93-5.07-4.57a4.53,4.53,0,0,1,4.46-4.58h.28A4.39,4.39,0,0,1,120,11.46a3.23,3.23,0,0,1,0,.44A2.8,2.8,0,0,1,119.91,12.61Zm-6.75-1.5h4.37a2.22,2.22,0,0,0-4.37,0Z"/><path d="M130.75,11.25v5.08h-2.58V11.64c0-1.43-.66-2.09-1.8-2.09a2.1,2.1,0,0,0-2.12,2.39v4.39h-2.58V7.45h2.46v1a3.87,3.87,0,0,1,2.94-1.17C129.16,7.32,130.75,8.54,130.75,11.25Z"/><path d="M132.51,11.89c0-2.67,2.07-4.57,5-4.57a4.09,4.09,0,0,1,4,2.26l-2,1.07a2.23,2.23,0,0,0-2-1.22,2.25,2.25,0,0,0-2.33,2.46,2.26,2.26,0,0,0,2.07,2.45h.26a2.2,2.2,0,0,0,2-1.22l2,1.08a4.13,4.13,0,0,1-4,2.25C134.58,16.46,132.51,14.56,132.51,11.89Z"/><path d="M151.45,12.61h-6.71a2.37,2.37,0,0,0,2.54,1.79,3,3,0,0,0,2.23-.86L150.88,15a4.67,4.67,0,0,1-3.67,1.44c-3.06,0-5.06-1.93-5.06-4.57a4.51,4.51,0,0,1,4.46-4.57h.27a4.39,4.39,0,0,1,4.62,4.15,3.38,3.38,0,0,1,0,.45C151.5,12.12,151.47,12.4,151.45,12.61Zm-6.74-1.5h4.37a2.22,2.22,0,0,0-4.37,0Z"/></g></svg>