<?xml version="1.0" encoding="utf-8"?>
<!-- Generator: Adobe Illustrator 24.0.3, SVG Export Plug-In . SVG Version: 6.00 Build 0)  -->
<svg version="1.1" id="Layer_1" xmlns="http://www.w3.org/2000/svg" xmlns:xlink="http://www.w3.org/1999/xlink" x="0px" y="0px"
	 viewBox="0 0 512 512" style="enable-background:new 0 0 512 512;" xml:space="preserve">
<style type="text/css">
	.st0{fill:#FFFFFF;}
</style>
<title>Edit HMW</title>
<g>
	<path class="st0" d="M308.8,208.8c-27.7,27.5-56.2,54.1-85.5,80c-7.4,6.6,3.5,17.4,10.9,10.9c29.2-25.9,57.7-52.5,85.5-80
		C326.7,212.7,315.8,201.9,308.8,208.8"/>
	<path class="st0" d="M203.8,313.6c-9.9,0-9.9,15.4,0,15.4C213.7,329,213.7,313.6,203.8,313.6"/>
	<path class="st0" d="M391,172.7c-2.1,2.1-4.1,4.2-6.2,6.3c-10.5,10.7-21.2,21.3-32.4,32.5c0,0-0.1-0.1-0.1-0.1c0,0,0,0,0,0
		c-7.7-7.8-14.9-15.3-22.1-22.6c-1.2-1.2-2.3-2.3-3.5-3.5c-1.2-1.2-2.3-2.3-3.5-3.5c-7.3-7.3-14.8-14.5-22.6-22.1c0,0,0,0,0,0
		c0,0-0.1-0.1-0.1-0.1c11.2-11.2,21.9-21.9,32.5-32.4c2.1-2.1,4.2-4.1,6.3-6.2c5.6-5.5,12.2-5.6,17.8-0.2c0.5,0.4,0.9,0.9,1.4,1.3
		c5.3,5.1,10.6,10.3,15.8,15.6c5.2,5.2,10.4,10.5,15.6,15.8c0.4,0.5,0.9,0.9,1.3,1.4C396.6,160.6,396.5,167.1,391,172.7
		 M205.7,357.3c-0.2-0.2-0.3-0.3-0.5-0.5c-0.1,0.1-0.2,0.2-0.3,0.3c-8.1-8.2-16.5-16.7-24.8-25.1c-8.5-8.4-16.9-16.7-25.1-24.8
		c0.1-0.1,0.2-0.2,0.3-0.3c-0.2-0.2-0.3-0.3-0.5-0.5c45.4-45.4,91.5-91.4,137.5-137.4c0.1,0.1,0.3,0.3,0.4,0.4c0,0,0.1-0.1,0.1-0.1
		c8.2,8.3,16.6,16.6,25,25.1c8.4,8.4,16.8,16.7,25.1,25c0,0-0.1,0.1-0.1,0.1c0.1,0.1,0.3,0.3,0.4,0.4
		C297.1,265.8,251,312,205.7,357.3 M169.8,373.8c-2.5,0.9-4.8,1.7-6.8,2.4c-3.6,1.3-7.1,2.6-10.7,3.8c-1.2,0.4-2.8-0.6-4.2-1
		c-0.4-0.1-0.6-0.6-1-0.9c-1.1-1-2.2-2-3.2-2.9c-1.1-0.9-2.3-2.1-3.7-3.4c-1.4-1.3-2.5-2.5-3.4-3.7c-0.9-1-1.9-2-2.9-3.2
		c-0.3-0.3-0.8-0.6-0.9-1c-0.5-1.4-1.5-3.1-1.1-4.2c1.3-3.6,2.5-7.1,3.8-10.7c0.7-2,1.5-4.2,2.4-6.8c2.8-7.7,5.6-15.5,8.5-23.2
		c7.7,7.8,15.4,15.5,23,23.3c7.7,7.6,15.5,15.3,23.3,23C185.3,368.1,177.6,370.9,169.8,373.8 M406.5,158.5
		c-2.3-4.5-4.4-9.1-7.7-12.8c-1.5-1.6-3-3.2-4.5-4.8c-3.8-3.9-7.7-7.8-11.5-11.7c-3.9-3.8-7.8-7.7-11.7-11.5c-1.6-1.5-3.2-3-4.8-4.5
		c-3.6-3.3-8.2-5.4-12.8-7.7c-1.8-0.5-3.6-0.7-5.4-0.7c0,0-0.1,0.1-0.1,0.1c-2.8,0-5.3,0.5-7.7,1.4c-4,1.6-8.1,4.4-12.1,8.4
		c-4.8,4.8-9.7,9.7-14.5,14.5c-39,39.1-78.1,78.2-117.2,117.3c-16.1,16.1-32.2,32.3-48.4,48.4c-1.5,1.5-3,3-4.5,4.5
		c-2.8,2.8-5.1,6.5-6.5,10.2c-9.2,24.7-18,49.6-27.2,74.3c-1.9,5.2-3,10.1,0.2,14.6c0,0.1,0.1,0.1,0.1,0.2c0.2,0.2,0.4,0.5,0.6,0.7
		c0.1,0.1,0.2,0.2,0.3,0.4c0.2,0.2,0.3,0.3,0.5,0.5c0.2,0.2,0.3,0.3,0.5,0.5c0.1,0.1,0.2,0.2,0.4,0.3c0.2,0.2,0.5,0.4,0.7,0.6
		c0.1,0,0.1,0.1,0.2,0.1c4.5,3.2,9.3,2.1,14.6,0.2c24.7-9.1,49.6-18,74.3-27.2c3.7-1.4,7.4-3.7,10.2-6.5c1.5-1.5,3-3,4.5-4.5
		c16.1-16.1,32.3-32.2,48.4-48.3c39.1-39.1,78.2-78.2,117.3-117.2c4.8-4.8,9.7-9.7,14.5-14.5c4-4,6.8-8.1,8.4-12.1
		c0.9-2.4,1.4-4.9,1.4-7.7c0,0,0.1-0.1,0.1-0.1C407.3,162.1,407,160.3,406.5,158.5"/>
</g>
</svg>
