<svg xmlns="http://www.w3.org/2000/svg" viewBox="0 0 21.5 32"><defs><style>.cls-1{fill:#ccc;}</style></defs><title>Asset 1</title><g id="Layer_2" data-name="Layer 2"><g id="Layer_1-2" data-name="Layer 1"><path class="cls-1" d="M21.48,20.12c0-.68,0-1.37,0-2a2.49,2.49,0,0,0-2-2.18,1.88,1.88,0,0,0-1.72.57,2.9,2.9,0,0,0-.65-1.8,2.34,2.34,0,0,0-2.5-.74,2,2,0,0,0-.69.48,2.58,2.58,0,0,0-.55-1.11,2.33,2.33,0,0,0-2.5-.74,1.89,1.89,0,0,0-.56.35V10.7a9.49,9.49,0,0,0,0-1.41A2.48,2.48,0,0,0,8.9,7.61,2.2,2.2,0,0,0,5.76,9.43a23.5,23.5,0,0,0,0,3.25v9.49l-.62-1c-.34-.57-.6-1.18-.93-1.76a2.65,2.65,0,0,0-1.3-1.26A2,2,0,0,0,1,18.39c-1.31,1-1.12,2.72-.73,4.11a18.38,18.38,0,0,0,2.15,4.68,32.27,32.27,0,0,0,3.5,4.58c.39.44,1-.21.64-.65a26.8,26.8,0,0,1-4.84-7.25,11.13,11.13,0,0,1-.69-2.09,3.31,3.31,0,0,1,0-2,1.3,1.3,0,0,1,1.31-.82c.56.1.85.63,1.1,1.09s.56,1.13.89,1.67l1.42,2.4a.46.46,0,0,0,.85-.23v-12c0-1-.32-3.9,1.52-3.49a1.56,1.56,0,0,1,1.2,1.26c.07.94,0,1.91,0,2.86v6.77a.46.46,0,0,0,.91,0V14.83c.11-.59.4-1.35,1.07-1.47A1.59,1.59,0,0,1,13,14.53a6.86,6.86,0,0,1,.08,1.36c0,.47,0,.95,0,1.42,0,1-.06,2-.06,3a.46.46,0,0,0,.91,0c0-1.3.08-2.6.07-3.91v-.13a.24.24,0,0,0,0-.08c.12-.6.4-1.36,1.08-1.48a1.58,1.58,0,0,1,1.64,1.17,6.18,6.18,0,0,1,.09,1.36c0,.47,0,.95,0,1.42,0,1-.06,2-.06,3a.46.46,0,0,0,.91,0c0-1.08.05-2.17.06-3.26a.49.49,0,0,0,.08-.18,1.79,1.79,0,0,1,.92-1.41,1.44,1.44,0,0,1,1.58.63,2.33,2.33,0,0,1,.24,1.4c0,.89,0,1.77,0,2.66a26.46,26.46,0,0,1-1.47,9.91c-.21.55.67.79.89.24a26,26,0,0,0,1.49-9.18C21.5,21.72,21.49,20.92,21.48,20.12Z"/><path class="cls-1" d="M.85,6.08c.93.82,1.83,1.68,2.69,2.58C4,9.08,4.6,8.43,4.19,8Q2.9,6.66,1.49,5.43C1.05,5,.4,5.69.85,6.08Z"/><path class="cls-1" d="M12.09,8.66q1.41-1.23,2.7-2.58c.41-.43-.24-1.08-.65-.65-.86.9-1.76,1.76-2.69,2.58C11,8.4,11.65,9,12.09,8.66Z"/><path class="cls-1" d="M6,5.59c.14.57,1,.33.89-.24C6.45,3.68,6.07,2,5.73.33c-.12-.58-1-.33-.88.24Q5.36,3.09,6,5.59Z"/><path class="cls-1" d="M10.11,5.59q.53-2.52,1.12-5a.46.46,0,0,0-.88-.24q-.6,2.51-1.12,5C9.11,5.92,10,6.17,10.11,5.59Z"/></g></g></svg>