<?xml version="1.0" encoding="utf-8"?>
<!-- Generator: Adobe Illustrator 24.0.0, SVG Export Plug-In . SVG Version: 6.00 Build 0)  -->
<svg version="1.1" id="Layer_1" xmlns="http://www.w3.org/2000/svg" xmlns:xlink="http://www.w3.org/1999/xlink" x="0px" y="0px"
	 viewBox="0 0 512 512" style="enable-background:new 0 0 512 512;" xml:space="preserve">
<style type="text/css">
	.st0{fill:#FFFFFF;}
</style>
<title>home</title>
<path class="st0" d="M387.7,160H122.4c-14.1,0-25.5-11.4-25.5-25.5v0c0-14.1,11.4-25.5,25.5-25.5h265.3c14.1,0,25.5,11.4,25.5,25.5
	v0C413.2,148.6,401.8,160,387.7,160z"/>
<path class="st0" d="M387.7,281.5H122.4c-14.1,0-25.5-11.4-25.5-25.5v0c0-14.1,11.4-25.5,25.5-25.5h265.3
	c14.1,0,25.5,11.4,25.5,25.5v0C413.2,270.1,401.8,281.5,387.7,281.5z"/>
<path class="st0" d="M387.7,415.5H122.4c-14.1,0-25.5-11.4-25.5-25.5v0c0-14.1,11.4-25.5,25.5-25.5h265.3
	c14.1,0,25.5,11.4,25.5,25.5v0C413.2,404.1,401.8,415.5,387.7,415.5z"/>
</svg>
