<svg xmlns="http://www.w3.org/2000/svg" viewBox="0 0 512 512"><title>home</title>
	<path d="M409.3,252.7l-20.2-20.2c-0.5-0.8-1.1-1.5-1.8-2.2l-28-27.6l-7.8-7.8l-0.2-0.1L264,108.7c-5-5-13.2-5-18.2,0
		l-87.4,86.2l0,0l0,0l-35.9,35.4c-0.8,0.7-1.4,1.6-1.9,2.5l-19.9,19.9c-8.2,8.2-2.4,22.2,9.2,22.2h8.8v114.9c0,7.2,5.8,13,13,13H203
		c7.2,0,13-5.8,13-13v-78.4c0-7.2,5.8-13,13-13h51.7c7.2,0,13,5.8,13,13v78.4c0,7.2,5.8,13,13,13h71.5c7.2,0,13-5.8,13-13V274.9h8.9
		C411.7,274.9,417.5,260.9,409.3,252.7z" style="fill:#fff"/>
</svg>
