<svg xmlns="http://www.w3.org/2000/svg" viewBox="0 0 496.2 496.2"><g data-name="Layer 2"><g data-name="Layer 1"><circle cx="248.1" cy="248.1" r="248.1" fill="#2eb4ff"/><path d="M402.5 247l-20.2-20.3a12.6 12.6 0 0 0-1.8-2.2l-28-27.6-7.8-7.8h-.2l-87.4-86.2a13 13 0 0 0-18.2 0l-87.4 86.2-36 35.4a12.4 12.4 0 0 0-1.9 2.5l-20 20A13 13 0 0 0 103 269h8.8V384a13 13 0 0 0 13 13h71.5a13 13 0 0 0 13-13v-78.4a13 13 0 0 1 13-13h51.7a13 13 0 0 1 13 13V384a13 13 0 0 0 13 13h71.5a13 13 0 0 0 13-13V269.1h9a13 13 0 0 0 9.1-22.2z" fill="#fff"/></g></g></svg>