<svg xmlns="http://www.w3.org/2000/svg" viewBox="0 0 19.59 32"><defs><style>.cls-1{fill:#00b4ff;}</style></defs><title>Asset 2</title><g id="Layer_2" data-name="Layer 2"><g id="Layer_4" data-name="Layer 4"><path class="cls-1" d="M10.68,15.89a.64.64,0,0,0,0,1.27A.64.64,0,0,0,10.68,15.89Z"/><path class="cls-1" d="M18.87,22.59a2.81,2.81,0,0,0,.7-2.29,2.5,2.5,0,0,0-1.78-2.11,5.07,5.07,0,0,0,.11-1.73,2.63,2.63,0,0,0-2.81-2.27c-1.28-1.61-3.38-2.46-5.21-1.26-2.3-.74-5.61-1.06-7.33.9a4.64,4.64,0,0,0-1.07,2.94,3.84,3.84,0,0,0-.94,5c.56.89,1.82,1.05,2.78,1.11a11.49,11.49,0,0,0,1.76,0,2.45,2.45,0,0,0,.3.44c.79.88,2.18,1,3.36,1.06a2.72,2.72,0,0,0,.6,3.08c.8.7,1.95.59,2.78,1.22a2.67,2.67,0,0,1,1,2.57c-.16.79,1.06,1.13,1.22.33A3.9,3.9,0,0,0,11.56,27a4.2,4.2,0,0,1-1.35-.49,1.49,1.49,0,0,1-.4-1.33,2.19,2.19,0,0,1,1.83-1.88c1.23-.19,2.52.29,3.75.34a6.81,6.81,0,0,0,1.91-.12,4.12,4.12,0,0,0,.53-.18A1.14,1.14,0,0,1,18.07,25a2.76,2.76,0,0,1-2.3.78.64.64,0,0,0,0,1.27,3.8,3.8,0,0,0,3.47-1.54A2.33,2.33,0,0,0,18.87,22.59Zm-2-.27-.18,0c.24,0,0,0,0,0a18.63,18.63,0,0,1-3.5-.26,4.29,4.29,0,0,0-3.12.52,3.12,3.12,0,0,0-.57.52.37.37,0,0,0-.15,0c-.86-.05-3.11,0-3.16-1.19s1.52-1.72,2.56-1.74c1.38,0,2.84.36,4.17-.17a1.89,1.89,0,0,0,1-3c-.51-.63-1.4.27-.89.9.19.23,0,.58-.23.72a2.07,2.07,0,0,1-1,.32,13.84,13.84,0,0,1-2.32-.06A4.74,4.74,0,0,0,5.61,20a3,3,0,0,0-.73,1.59,8.42,8.42,0,0,1-2.13-.06c-.43-.07-1-.17-1.19-.55a2.63,2.63,0,0,1-.1-2.21,2.3,2.3,0,0,1,.35-.56,2.23,2.23,0,0,1,.26-.27l.17-.15.18-.12c.36-.28.3-.64.33-1.05a3,3,0,0,1,1.52-2.54c1.5-.77,3.49-.42,5,0l.49.15a.93.93,0,0,0,.76-.25,2.18,2.18,0,0,1,1.15-.4,2.57,2.57,0,0,1,1.6.61,5,5,0,0,1,.58.54l.18.21.09.11h0a.79.79,0,0,0,.74.38,2.74,2.74,0,0,1,1.06.16,1.16,1.16,0,0,1,.68,1,3.7,3.7,0,0,1-.2,1.68,10.37,10.37,0,0,0-1.13.62c-.68.43-.05,1.53.64,1.09a11.47,11.47,0,0,1,1.19-.65,1.37,1.37,0,0,1,.5.13,1.32,1.32,0,0,1,.67,1.44,1.48,1.48,0,0,1-.95,1.24A3.13,3.13,0,0,1,16.85,22.32Z"/><path class="cls-1" d="M8.26,16.15a5.23,5.23,0,0,0-3.5.75,7.82,7.82,0,0,0-2.07,2.53.64.64,0,0,0,1.1.64A6.69,6.69,0,0,1,5.4,18a4.07,4.07,0,0,1,2.86-.57C9.08,17.46,9.07,16.19,8.26,16.15Z"/><path class="cls-1" d="M7.21,6.2l2.34.89L9,10.25a.63.63,0,0,0,1.05.61,17.48,17.48,0,0,0,1.79-2.3l1.75-2.47a.45.45,0,0,0,.1-.14.53.53,0,0,0,.06-.48A.68.68,0,0,0,13.31,5l-1.49-.54a3.33,3.33,0,0,0-.75-.26L11,4.09A.43.43,0,0,0,11,4c.21-1,.37-2.09.55-3.13a.66.66,0,0,0-.45-.78L11,0a.65.65,0,0,0-.72.29L6.83,5.27A.64.64,0,0,0,7.21,6.2Zm5-.31L10.88,7.75c-.07.1-.14.21-.22.31l.21-1.2a.66.66,0,0,0-.45-.78L8.36,5.29,9.8,3.22a2.71,2.71,0,0,0-.1,1.31c.16.58.72.74,1.22.91Z"/></g></g></svg>