<svg id="Layer_1" data-name="Layer 1" xmlns="http://www.w3.org/2000/svg" viewBox="0 0 512 512"><title>restart</title><path d="M255.74,112.05a143.49,143.49,0,0,0-99.18,39.87l-20.73-20.73A13.93,13.93,0,0,0,112.05,141v77.81A13.93,13.93,0,0,0,126,232.78H203.8A13.93,13.93,0,0,0,213.65,209l-24.24-24.23a96.84,96.84,0,0,1,65.73-26.28c53.63-.46,98.83,42.94,98.37,98.35-.44,52.56-43.06,96.67-97.51,96.67a96.79,96.79,0,0,1-64.21-24.12,7,7,0,0,0-9.5.32l-23,23a7,7,0,0,0,.28,10.12A143.94,143.94,0,0,0,400,256C400,176.59,335.14,111.91,255.74,112.05Z" style="fill:#fff"/></svg>