<svg xmlns="http://www.w3.org/2000/svg" viewBox="0 0 512 512"><title>Generate Another!</title><path d="M301.9 186.9h24.5c4.5 0 8.2 3.7 8.2 8.2v16a8.1 8.1 0 0 0 12.8 6.7l68.8-47.7a8.2 8.2 0 0 0-.1-13.5l-69.9-47.4a8.1 8.1 0 0 0-12.7 6.8v20.4c0 4.5-3.7 8.2-8.2 8.2h-43.5c-2.6 0-5 1.2-6.5 3.2L141.2 324a8.1 8.1 0 0 1-6.5 3.2l-33.6.1a8.2 8.2 0 0 0-8.1 8.2v25.3c0 4.5 3.7 8.2 8.2 8.2h55.1c2.6 0 5-1.2 6.5-3.2l132.5-175.6c1.6-2.1 4-3.3 6.6-3.3z"/><path d="M416 340.5l-69.9-46.9a8.2 8.2 0 0 0-12.7 6.8v18.4c0 4.5-3.7 8.2-8.2 8.2h-23.9c-2.6 0-5-1.2-6.6-3.3l-32.2-43.6a8.2 8.2 0 0 0-13.1-.1l-16 21.1a8.1 8.1 0 0 0 0 9.8l41.1 55.1a8 8 0 0 0 6.5 3.3h45.3c4.5 0 8.2 3.7 8.2 8.2v18.9a8.1 8.1 0 0 0 12.9 6.6l68.8-49a8.2 8.2 0 0 0-.2-13.5zM100.8 186.3h34.5c2.6 0 5 1.2 6.6 3.3l32.8 44.5a8.2 8.2 0 0 0 13.1.1l16.5-21.5a8.4 8.4 0 0 0 .1-9.9l-41.7-55.6a8 8 0 0 0-6.5-3.3h-55.3a8.2 8.2 0 0 0-8.2 8.2V178c0 4.7 3.6 8.3 8.1 8.3z"/></svg>