<svg xmlns="http://www.w3.org/2000/svg" viewBox="0 0 496.18 496.18"><defs><style>.cls-1{fill:#2eb4ff;}.cls-2{fill:#fff;}</style></defs><title>tooltip</title><g id="Layer_2" data-name="Layer 2"><g id="Layer_1-2" data-name="Layer 1"><circle class="cls-1" cx="248.09" cy="248.09" r="248.09"/><path class="cls-2" d="M180.94,125.44q25.37-25.36,69.85-25.37,42,0,66.11,19.13T341,172.84q0,22-10,36.58t-29.11,31.19q-16.64,15-24.53,26T269.5,293H214.21q0-16.62,4.78-29.1a70.64,70.64,0,0,1,11.64-20.58,252.2,252.2,0,0,1,17.67-18.5q12-11.24,17.88-19.75A35,35,0,0,0,272,184.89q0-25.35-28.27-25.36-31.18,0-31.6,37l-57-.41Q155.57,150.81,180.94,125.44Zm85.24,208.72q10,10,10,25.77t-10,26q-10,10.2-25.78,10.19-15.39,0-25.36-10.19t-10-26q0-15.8,9.77-25.77t25.57-10Q256.2,324.18,266.18,334.16Z"/></g></g></svg>