<svg xmlns:dc="http://purl.org/dc/elements/1.1/" xmlns:cc="http://creativecommons.org/ns#" xmlns:rdf="http://www.w3.org/1999/02/22-rdf-syntax-ns#" xmlns:svg="http://www.w3.org/2000/svg" xmlns="http://www.w3.org/2000/svg" xmlns:sodipodi="http://sodipodi.sourceforge.net/DTD/sodipodi-0.dtd" xmlns:inkscape="http://www.inkscape.org/namespaces/inkscape" viewBox="0 0 32 40.00000125" version="1.1" x="0px" y="0px"><g transform="translate(0,-1020.3622)"><path style="" d="M 1 3 C 0.447 3 0 3.4859844 0 4.0839844 L 0 27.916016 C 0 28.515016 0.447 29 1 29 L 31 29 C 31.553 29 32 28.515016 32 27.916016 L 32 4.0839844 C 32 3.4849844 31.553 3 31 3 L 1 3 z M 23 4 C 23.553 4 24 4.447 24 5 C 24 5.553 23.553 6 23 6 C 22.447 6 22 5.553 22 5 C 22 4.447 22.447 4 23 4 z M 26 4 C 26.553 4 27 4.447 27 5 C 27 5.553 26.553 6 26 6 C 25.447 6 25 5.553 25 5 C 25 4.447 25.447 4 26 4 z M 29 4 C 29.553 4 30 4.447 30 5 C 30 5.553 29.553 6 29 6 C 28.447 6 28 5.553 28 5 C 28 4.447 28.447 4 29 4 z M 1.9375 7 L 30.0625 7 C 30.5805 7 31.001953 7.392 31.001953 7.875 L 31.001953 27.125 C 31.001953 27.608 30.5805 28 30.0625 28 L 1.9375 28 C 1.4195 28 1 27.608 1 27.125 L 1 7.875 C 1 7.392 1.4195 7 1.9375 7 z M 3.0371094 8.9921875 L 3.0371094 20.992188 L 15.037109 20.992188 L 15.037109 8.9921875 L 3.0371094 8.9921875 z M 17.037109 8.9921875 L 17.037109 9.9921875 L 29.005859 9.9921875 L 29.005859 8.9921875 L 17.037109 8.9921875 z M 17.037109 10.992188 L 17.037109 11.992188 L 29.037109 11.992188 L 29.037109 10.992188 L 17.037109 10.992188 z M 6 11.001953 C 6.543 11.001953 6.9824219 11.441375 6.9824219 11.984375 C 6.9824219 12.527375 6.543 12.966797 6 12.966797 C 5.457 12.966797 5.0175781 12.527375 5.0175781 11.984375 C 5.0175781 11.441375 5.457 11.001953 6 11.001953 z M 17.037109 12.992188 L 17.037109 13.992188 L 29.037109 13.992188 L 29.037109 12.992188 L 17.037109 12.992188 z M 8.9921875 13.96875 C 9.1263125 13.952 9.2737969 13.988141 9.4042969 14.119141 L 11.162109 16.080078 L 7.65625 19.992188 L 4.5683594 19.992188 L 4.5371094 19.992188 C 4.2611094 19.992188 4.0371094 19.769188 4.0371094 19.492188 C 4.0371094 19.354187 4.1023594 19.239437 4.1933594 19.148438 L 4.1621094 19.148438 L 8.65625 14.136719 C 8.73725 14.055719 8.8580625 13.9855 8.9921875 13.96875 z M 17.037109 14.992188 L 17.037109 15.992188 L 29.037109 15.992188 L 29.037109 14.992188 L 17.037109 14.992188 z M 12.96875 15.017578 C 13.091 15.010453 13.226422 15.056 13.357422 15.1875 L 14.037109 15.994141 L 14.037109 19.994141 C 11.745109 20.004141 10.188172 19.994141 8.3261719 19.994141 L 12.65625 15.164062 L 12.65625 15.167969 C 12.73725 15.085969 12.8465 15.024703 12.96875 15.017578 z M 17.037109 16.992188 L 17.037109 17.992188 L 29.037109 17.992188 L 29.037109 16.992188 L 17.037109 16.992188 z M 17.037109 18.992188 L 17.037109 19.992188 L 24.005859 19.992188 L 24.005859 18.992188 L 17.037109 18.992188 z M 3 22.992188 L 3 23.992188 L 29 23.992188 L 29 22.992188 L 3 22.992188 z M 3 24.992188 L 3 25.992188 L 29 25.992188 L 29 24.992188 L 3 24.992188 z " transform="translate(0,1020.3622)" fill="#000000"/></g><text x="0" y="47.000001" fill="#000000" font-size="5px" font-weight="bold" font-family="'Helvetica Neue', Helvetica, Arial-Unicode, Arial, Sans-serif">Created by Chameleon Design</text><text x="0" y="52.000001" fill="#000000" font-size="5px" font-weight="bold" font-family="'Helvetica Neue', Helvetica, Arial-Unicode, Arial, Sans-serif">from the Noun Project</text></svg>