<svg xmlns="http://www.w3.org/2000/svg" xmlns:xlink="http://www.w3.org/1999/xlink" version="1.1" x="0px" y="0px" viewBox="0 0 100 125" style="enable-background:new 0 0 100 100;" xml:space="preserve"><g><path d="M54.141,39.694l-7.642-7.642c-0.586-0.586-1.535-0.586-2.121,0L32.052,44.378c-0.586,0.585-0.586,1.536,0,2.121   l7.642,7.642c0.293,0.293,0.677,0.439,1.061,0.439s0.768-0.146,1.061-0.439l12.326-12.326C54.727,41.23,54.727,40.28,54.141,39.694   z M40.755,50.959l-5.521-5.521l10.205-10.205l5.521,5.521L40.755,50.959z"/><path d="M67.948,53.501l-7.642-7.642c-0.586-0.586-1.535-0.586-2.121,0L45.859,58.185c-0.586,0.585-0.586,1.536,0,2.121   l7.642,7.642c0.293,0.293,0.677,0.439,1.061,0.439s0.768-0.146,1.061-0.439l12.326-12.326   C68.534,55.037,68.534,54.086,67.948,53.501z M54.562,64.766l-5.521-5.521l10.205-10.205l5.521,5.521L54.562,64.766z"/><path d="M93,5H7C5.896,5,5,5.896,5,7v86c0,1.104,0.896,2,2,2h86c1.104,0,2-0.896,2-2V7C95,5.896,94.104,5,93,5z M67.227,77.211   H55.742H44.258H32.773h-9.984v-9.984V55.742V44.258V32.773v-9.984h9.984h11.484h11.484h11.484h9.984v9.984v11.484v11.484v11.484   v9.984H67.227z M19.789,54.242H9v-8.484h10.789V54.242z M19.789,42.758H9v-8.484h10.789V42.758z M9,57.242h10.789v8.484H9V57.242z    M19.789,31.273H9v-8.484h10.789V31.273z M9,68.727h10.789v8.484H9V68.727z M80.211,45.758H91v8.484H80.211V45.758z M80.211,42.758   v-8.484H91v8.484H80.211z M80.211,57.242H91v8.484H80.211V57.242z M91,31.273H80.211v-8.484H91V31.273z M80.211,68.727H91v8.484   H80.211V68.727z M91,9v10.789H80.211V9H91z M77.211,9v10.789h-8.484V9H77.211z M65.727,9v10.789h-8.484V9H65.727z M54.242,9v10.789   h-8.484V9H54.242z M42.758,9v10.789h-8.484V9H42.758z M31.273,9v10.789h-8.484V9H31.273z M19.789,19.789H9V9h10.789V19.789z M9,91   V80.211h10.789V91H9z M22.789,91V80.211h8.484V91H22.789z M34.273,91V80.211h8.484V91H34.273z M45.758,91V80.211h8.484V91H45.758z    M57.242,91V80.211h8.484V91H57.242z M68.727,91V80.211h8.484V91H68.727z M80.211,80.211H91V91H80.211V80.211z"/><path d="M87.816,81.997c-0.586-0.586-1.535-0.586-2.121,0l-2.798,2.798c-0.586,0.585-0.586,1.536,0,2.121l2.798,2.798   c0.293,0.293,0.677,0.439,1.061,0.439s0.768-0.146,1.061-0.439c0.586-0.585,0.586-1.536,0-2.121l-1.737-1.737l1.737-1.737   C88.402,83.533,88.402,82.583,87.816,81.997z"/><circle cx="38.516" cy="85.856" r="3.083"/><circle cx="61.484" cy="14.144" r="3.083"/><path d="M11.419,41.599h5.452c0.198,0,0.358-0.16,0.358-0.358V35.79c0-0.198-0.16-0.358-0.358-0.358h-5.452   c-0.198,0-0.358,0.16-0.358,0.358v5.452C11.061,41.439,11.221,41.599,11.419,41.599z"/><path d="M88.581,58.401H83.13c-0.198,0-0.358,0.16-0.358,0.358v5.452c0,0.198,0.16,0.358,0.358,0.358h5.452   c0.198,0,0.358-0.16,0.358-0.358v-5.452C88.939,58.561,88.779,58.401,88.581,58.401z"/></g><text x="0" y="115" fill="#000000" font-size="5px" font-weight="bold" font-family="'Helvetica Neue', Helvetica, Arial-Unicode, Arial, Sans-serif">Created by Maxim Kulikov</text><text x="0" y="120" fill="#000000" font-size="5px" font-weight="bold" font-family="'Helvetica Neue', Helvetica, Arial-Unicode, Arial, Sans-serif">from the Noun Project</text></svg>