<svg xmlns="http://www.w3.org/2000/svg" xmlns:xlink="http://www.w3.org/1999/xlink" version="1.1" x="0px" y="0px" viewBox="0 0 60 71.25" style="enable-background:new 0 0 60 57;" xml:space="preserve"><g><path d="M59,28c-0.552,0-1-0.448-1-1c0-6.065-4.935-11-11-11c-3.154,0-6.161,1.357-8.25,3.724   c-0.365,0.414-0.998,0.454-1.411,0.088c-0.414-0.365-0.454-0.997-0.088-1.411C39.719,15.604,43.272,14,47,14   c7.168,0,13,5.832,13,13C60,27.552,59.552,28,59,28z"/><path d="M21.919,21c-0.402,0-0.782-0.245-0.934-0.644C20.332,18.647,20,16.845,20,15c0-8.271,6.729-15,15-15c0.552,0,1,0.448,1,1   s-0.448,1-1,1c-7.168,0-13,5.832-13,13c0,1.6,0.287,3.162,0.853,4.642c0.197,0.516-0.061,1.094-0.577,1.291   C22.159,20.978,22.038,21,21.919,21z"/><path d="M46,33H14c-0.552,0-1-0.448-1-1v-8c0-0.552,0.448-1,1-1h32c0.552,0,1,0.448,1,1v8C47,32.552,46.552,33,46,33z M15,31h30v-6   H15V31z"/><path d="M34,29H19c-0.552,0-1-0.448-1-1s0.448-1,1-1h15c0.552,0,1,0.448,1,1S34.552,29,34,29z"/><path d="M41,29h-2c-0.552,0-1-0.448-1-1s0.448-1,1-1h2c0.552,0,1,0.448,1,1S41.552,29,41,29z"/><path d="M46,45H14c-0.552,0-1-0.448-1-1v-8c0-0.552,0.448-1,1-1h32c0.552,0,1,0.448,1,1v8C47,44.552,46.552,45,46,45z M15,43h30v-6   H15V43z"/><path d="M44,37H16c-0.552,0-1-0.448-1-1v-4c0-0.552,0.448-1,1-1h28c0.552,0,1,0.448,1,1v4C45,36.552,44.552,37,44,37z M17,35h26v-2   H17V35z"/><path d="M46,57H14c-0.552,0-1-0.448-1-1v-8c0-0.552,0.448-1,1-1h32c0.552,0,1,0.448,1,1v8C47,56.552,46.552,57,46,57z M15,55h30v-6   H15V55z"/><path d="M34,53H19c-0.552,0-1-0.448-1-1s0.448-1,1-1h15c0.552,0,1,0.448,1,1S34.552,53,34,53z"/><path d="M41,53h-2c-0.552,0-1-0.448-1-1s0.448-1,1-1h2c0.552,0,1,0.448,1,1S41.552,53,41,53z"/><path d="M44,49H16c-0.552,0-1-0.448-1-1v-4c0-0.552,0.448-1,1-1h28c0.552,0,1,0.448,1,1v4C45,48.552,44.552,49,44,49z M17,47h26v-2   H17V47z"/><path d="M41,41H26c-0.552,0-1-0.448-1-1s0.448-1,1-1h15c0.552,0,1,0.448,1,1S41.552,41,41,41z"/><path d="M21,41h-2c-0.552,0-1-0.448-1-1s0.448-1,1-1h2c0.552,0,1,0.448,1,1S21.552,41,21,41z"/><path d="M47,40h-1c-0.552,0-1-0.448-1-1v-2H15v2c0,0.552-0.448,1-1,1h-3C4.935,40,0,35.065,0,29s4.935-11,11-11   c0.085,0,0.17,0.001,0.255,0.003C11.085,17.353,11,16.683,11,16c0-4.411,3.589-8,8-8c0.865,0,1.711,0.139,2.527,0.414   C24.035,3.271,29.22,0,35,0c8.057,0,14.65,6.384,14.986,14.359C55.837,15.727,60,20.915,60,27C60,34.168,54.168,40,47,40z M47,38   h0.01H47z M14,35h32c0.552,0,1,0.448,1,1v2c6.065,0,11-4.935,11-11c0-5.389-3.858-9.945-9.174-10.835   c-0.488-0.082-0.843-0.508-0.835-1.002c0-0.02,0.006-0.123,0.007-0.142C48,7.832,42.168,2,35,2c-5.299,0-10.021,3.173-12.031,8.083   c-0.104,0.255-0.31,0.456-0.568,0.555c-0.257,0.098-0.545,0.086-0.793-0.034C20.78,10.203,19.903,10,19,10c-3.309,0-6,2.691-6,6   c0,0.946,0.22,1.858,0.653,2.711c0.172,0.338,0.138,0.745-0.088,1.049c-0.226,0.304-0.604,0.458-0.979,0.388   C12.023,20.049,11.504,20,11,20c-4.962,0-9,4.038-9,9s4.038,9,9,9h2v-2C13,35.448,13.448,35,14,35z"/></g><text x="0" y="72" fill="#000000" font-size="5px" font-weight="bold" font-family="'Helvetica Neue', Helvetica, Arial-Unicode, Arial, Sans-serif">Created by Prettycons</text><text x="0" y="77" fill="#000000" font-size="5px" font-weight="bold" font-family="'Helvetica Neue', Helvetica, Arial-Unicode, Arial, Sans-serif">from the Noun Project</text></svg>