<?xml version="1.0" encoding="utf-8"?>
<!-- Generator: Adobe Illustrator 24.0.3, SVG Export Plug-In . SVG Version: 6.00 Build 0)  -->
<svg version="1.1" id="Layer_1" xmlns="http://www.w3.org/2000/svg" xmlns:xlink="http://www.w3.org/1999/xlink" x="0px" y="0px"
	 viewBox="0 0 512 512" style="enable-background:new 0 0 512 512;" xml:space="preserve">
<style type="text/css">
	.st0{fill:#FFFFFF;}
</style>
<title>Download Journey Map</title>
<g>
	<path class="st0" d="M150.6,255.8c27.9,21.3,55.7,42.6,83.6,63.9c2.6,2,5.1,3.9,7.7,5.9c1.3,1.2,2.7,2.3,4.3,3.2
		c3.1,2.4,7.2,3.3,11.4,3.1c4.1,0.1,8.3-0.8,11.4-3.1c1.6-0.9,3-2,4.3-3.2c26.4-20.2,52.9-40.4,79.3-60.6c4-3,8-6.1,11.9-9.1
		c4.9-3.7,8.6-7.3,10.3-13.4c1.5-5.4,0.8-12.6-2.3-17.3c-5.9-9.2-20.8-15.7-30.8-8.1c-20.5,15.7-41.1,31.4-61.6,47.1
		c0-5.5,0-10.9,0-16.4c0-32.6,0-65.2,0-97.9c0-7.6,0-15.2,0-22.7c0-11.8-10.3-23-22.5-22.5c-12.2,0.5-22.5,9.9-22.5,22.5
		c0,20.6,0,41.1,0,61.7c0,25.1,0,50.2,0,75.3c-16.6-12.7-33.1-25.3-49.7-38c-4-3-8-6.1-11.9-9.1c-4.3-3.3-12.4-3.6-17.3-2.3
		c-5.2,1.4-10.9,5.5-13.4,10.3c-2.8,5.2-4.1,11.5-2.3,17.3C142.2,248.3,145.6,252.1,150.6,255.8z"/>
	<path class="st0" d="M363,310.6c-12.2,0.5-22.5,9.9-22.5,22.5c0,8.4,0,16.9,0,25.3c-16.4,0-32.8,0-49.1,0c-37.7,0-75.4,0-113.1,0
		c-1.3,0-2.6,0-3.8,0c0-8.4,0-16.9,0-25.3c0-11.8-10.3-23-22.5-22.5c-12.2,0.5-22.5,9.9-22.5,22.5c0,15.9,0,31.9,0,47.8
		c0,12.2,10.3,22.5,22.5,22.5c23.9,0,47.8,0,71.6,0c37.7,0,75.4,0,113.1,0c8.8,0,17.6,0,26.3,0c12.2,0,22.5-10.3,22.5-22.5
		c0-15.9,0-31.9,0-47.8C385.5,321.3,375.1,310,363,310.6z"/>
</g>
</svg>
