<?xml version="1.0" encoding="utf-8"?>
<!-- Generator: Adobe Illustrator 24.0.2, SVG Export Plug-In . SVG Version: 6.00 Build 0)  -->
<svg version="1.1" id="Layer_1" xmlns="http://www.w3.org/2000/svg" xmlns:xlink="http://www.w3.org/1999/xlink" x="0px" y="0px"
	 viewBox="0 0 512 512" style="enable-background:new 0 0 512 512;" xml:space="preserve">
<style type="text/css">
	.st0{fill:#FFFFFF;}
</style>
<title>Edit HMW</title>
<path class="st0" d="M393.2,179.5c-5.5-14.9-19.8-25.9-30.7-37.3c-9.3-9.8-20.8-18.1-34.8-16.6c-7.4,2.4-14.1,5.3-20.2,11.8
	c-37,37-74.9,75-111.5,111.6c-13.3,13.3-27.5,27.6-41,41c-4.9,4.6-9.8,10.1-12,16.6c-7.2,19.4-16,44.3-23,62.9
	c-2.8,6.2-2.6,13.2-0.4,21.2c10,13.7,22.4,13,36.8,6.6c69.3-25.6,55.3-13.3,107.5-66.9c38.8-38.8,78.8-78.8,118.3-118.2
	C391.5,203,396.2,191.9,393.2,179.5z M152,374.7l-7.1-6.5l24.8-42.9l22.3,26.3L152,374.7z M233.9,312.5L212,334.5l-0.4-0.4l-0.2,0.2
	c-6.4-6.5-19.3-19.4-25.7-25.8c28.2-31,70.6-70.6,99.7-100.6l0.3,0.3l0.1-0.1c8,8.2,18,18,26.1,26l-0.1,0.1l0.3,0.3
	C285.3,261.2,258.1,288.4,233.9,312.5z M358,189.3c-6.9,7.2-13.1,13.4-21.6,21.8c-8.7-9-18.5-18.9-27.5-27.7
	c7.4-7.4,14.4-14.4,21.6-21.5c1.3-1.3,3.4-1.3,4.7,0c8.6,8.4,15.2,15.1,22.8,22.8C359.2,186,359.2,188,358,189.3
	C358,189.3,358,189.3,358,189.3z"/>
</svg>
