<svg xmlns="http://www.w3.org/2000/svg" xmlns:xlink="http://www.w3.org/1999/xlink" version="1.1" x="0px" y="0px" viewBox="0 0 98 122.5" enable-background="new 0 0 98 98" xml:space="preserve"><g><path d="M95.5884,41.7178v-2H50.1777c1.6829-1.4751,2.7524-3.6337,2.7524-6.042c0-2.6211-1.3036-5.0773-3.4121-6.5601v-3.9634   c0-2.5884-1.8428-4.8208-4.3945-5.311l-3.5088-0.6274v-3.2481l1.541-1.4854l-1.3887-1.4395l-2.1523,2.0752v3.7402l-6.7422-1.2055   l-3.45-11.1929h4.4636v-2h-5.0801c-4.1776,0-13.3227,0-17.5605,0c-1.751,0-3.1758,1.4243-3.1758,3.1753v15.6729   C4.6405,23.2441,2.52,26.8084,2.52,30.791c0,3.687,1.8407,6.947,4.6461,8.9268H2.0903v2h55.7663l-6.9771,16.1938H38.9702V55.358   c1.8253-1.4413,2.835-3.3065,2.835-5.3116c0-2.1563-1.1553-4.1577-3.2617-5.6426l-0.5771-0.4082l-0.5771,0.4067   c-2.0996,1.4795-3.2559,3.4844-3.2559,5.6445c0,2.0079,1.01,3.8754,2.8369,5.3176v2.5471h-11.707V55.358   c1.8253-1.4413,2.835-3.3065,2.835-5.3116c0-2.1563-1.1553-4.1577-3.2617-5.6426l-0.5771-0.4082l-0.5771,0.4067   c-2.0996,1.4795-3.2559,3.4844-3.2559,5.6445c0,2.0079,1.01,3.8754,2.8369,5.3176v2.5471h-11.707V55.358   c1.8253-1.4413,2.835-3.3065,2.835-5.3116c0-2.1563-1.1553-4.1577-3.2617-5.6426l-0.5771-0.4082l-0.5771,0.4067   c-2.0996,1.4795-3.2559,3.4844-3.2559,5.6445c0,2.0079,1.01,3.8754,2.8369,5.3176v2.5471H2.0874v2h47.9304l-6.972,16.1821h-4.0755   v-2.5584c1.8253-1.4409,2.835-3.306,2.835-5.3107c0-2.1567-1.1553-4.1582-3.2617-5.6431l-0.5771-0.4082l-0.5771,0.4067   c-2.0996,1.4795-3.2559,3.4839-3.2559,5.644c0,2.0079,1.01,3.8758,2.8369,5.3181v2.5515h-11.707v-2.5584   c1.8253-1.4409,2.835-3.306,2.835-5.3107c0-2.1567-1.1553-4.1582-3.2617-5.6431l-0.5771-0.4082l-0.5771,0.4067   c-2.0996,1.4795-3.2559,3.4839-3.2559,5.644c0,2.0079,1.01,3.8758,2.8369,5.3181v2.5515h-11.707v-2.5584   c1.8253-1.4409,2.835-3.306,2.835-5.3107c0-2.1567-1.1553-4.1582-3.2617-5.6431l-0.5771-0.4082l-0.5771,0.4067   c-2.0996,1.4795-3.2559,3.4839-3.2559,5.644c0,2.0079,1.01,3.8758,2.8369,5.3181v2.5515H2.0874v2H42.184l-6.9765,16.1924h-9.9443   v-2.5584c1.8253-1.4409,2.835-3.306,2.835-5.3107c0-2.1567-1.1553-4.1582-3.2852-5.6592l-0.5703-0.3804l-0.5605,0.395   c-2.0996,1.4795-3.2559,3.4839-3.2559,5.644c0,2.0079,1.01,3.8758,2.8369,5.3181v2.5515h-11.707v-2.5584   c1.8253-1.4409,2.835-3.306,2.835-5.3107c0-2.1567-1.1553-4.1582-3.2852-5.6592l-0.5703-0.3804l-0.5605,0.395   c-2.0996,1.4795-3.2559,3.4839-3.2559,5.644c0,2.0079,1.01,3.8758,2.8369,5.3181v2.5515H2.0874v2h34.4365l23.5095-54.5684H74.461   L51.3599,95.3179l1.8359,0.792l23.4424-54.3921h16.1855L69.731,95.3184l1.8359,0.791l23.4335-54.3916H95.5884z M50.9302,33.6758   c0,3.3315-2.7109,6.042-6.043,6.042s-6.042-2.7104-6.042-6.042c0-0.4067,0.0391-0.8057,0.1191-1.2129   c0.5713-2.8042,3.0625-4.8394,5.9229-4.8394C48.2168,27.6235,50.9302,30.3441,50.9302,33.6758z M11.2456,4.458h2.2002v1.249h2   V4.458c2.8756,0,9.0762,0,11.8838,0l3.4117,11.0698h-4.2731v2h5.5398l12.7512,2.2798c1.5986,0.3071,2.7588,1.7139,2.7588,3.3447   v2.9131c-4.2483-1.4798-8.9531,0.8918-10.3066,5.1978H24.3726c0.0068-0.1587,0.0107-0.3164,0.0107-0.4722   c0-7.4071-7.273-12.7132-14.3135-10.4009v-2.8623h13.8027v-2h-8.4268V7.8877h-2v7.6401h-3.376V5.6333   C10.0698,4.9853,10.5972,4.458,11.2456,4.458z M4.52,30.791c0-5.1183,4.1729-8.9365,8.9268-8.9365   c5.349,0,9.6413,4.7346,8.8379,10.2627c-0.6396,4.333-4.4385,7.6006-8.8379,7.6006C8.5249,39.7178,4.52,35.7134,4.52,30.791z    M19.7186,39.7178c2.1576-1.5169,3.7593-3.7907,4.3773-6.4546h12.7696c-0.13,2.5893,0.9439,4.8872,2.7317,6.4546H19.7186z    M37.9663,46.4844c1.1914,1.022,1.8389,2.2666,1.8389,3.562c0,1.3003-0.6523,2.5498-1.8369,3.564   c-1.1885-1.0225-1.835-2.2676-1.835-3.5635C36.1333,48.7515,36.7788,47.5063,37.9663,46.4844z M24.2593,46.4844   c1.1914,1.022,1.8389,2.2666,1.8389,3.562c0,1.3003-0.6523,2.5498-1.8369,3.564c-1.1885-1.0225-1.835-2.2676-1.835-3.5635   C22.4263,48.7515,23.0718,47.5063,24.2593,46.4844z M10.5522,46.4844c1.1914,1.022,1.8389,2.2666,1.8389,3.562   c0,1.3003-0.6523,2.5498-1.8369,3.564c-1.1885-1.0225-1.835-2.2676-1.835-3.5635C8.7192,48.7515,9.3647,47.5063,10.5522,46.4844z    M37.9663,64.6621c1.1914,1.022,1.8389,2.2671,1.8389,3.5625c0,1.2949-0.6475,2.5396-1.8389,3.5615   c-1.1875-1.0215-1.833-2.2666-1.833-3.562S36.7788,65.6841,37.9663,64.6621z M24.2593,64.6621   c1.1914,1.022,1.8389,2.2671,1.8389,3.5625c0,1.2949-0.6475,2.5396-1.8389,3.5615c-1.1875-1.0215-1.833-2.2666-1.833-3.562   S23.0718,65.6841,24.2593,64.6621z M10.5522,64.6621c1.1914,1.022,1.8389,2.2671,1.8389,3.5625   c0,1.2949-0.6475,2.5396-1.8389,3.5615c-1.1875-1.0215-1.833-2.2666-1.833-3.562S9.3647,65.6841,10.5522,64.6621z M24.2593,82.8545   c1.1914,1.022,1.8389,2.2671,1.8389,3.5625c0,1.2949-0.6475,2.5396-1.8389,3.5615c-1.1875-1.0215-1.833-2.2666-1.833-3.562   S23.0718,83.8765,24.2593,82.8545z M10.5522,82.8545c1.1914,1.022,1.8389,2.2671,1.8389,3.5625   c0,1.2949-0.6475,2.5396-1.8389,3.5615c-1.1875-1.0215-1.833-2.2666-1.833-3.562S9.3647,83.8765,10.5522,82.8545z"/><path d="M13.4468,25.8228c-2.6275,0-4.959,2.1159-4.959,4.9683c0,2.7344,2.2246,4.959,4.959,4.959   c2.6488,0,4.9678-2.1258,4.9678-4.959C18.4146,28.0513,16.186,25.8228,13.4468,25.8228z M13.4468,33.75   c-1.6318,0-2.959-1.3276-2.959-2.959c0-1.7116,1.4054-2.9683,2.959-2.9683c1.6367,0,2.9678,1.3315,2.9678,2.9683   C16.4146,32.5133,15.0139,33.75,13.4468,33.75z"/><path d="M46.9624,30.1772c-0.6162-0.376-1.333-0.5747-2.0752-0.5747c-1.9238,0-3.5967,1.356-3.9785,3.2305   c-0.0566,0.2915-0.085,0.5674-0.085,0.8428c0,2.2407,1.8232,4.0635,4.0635,4.0635s4.0635-1.8228,4.0635-4.0635   C48.9507,32.2305,48.2046,30.9214,46.9624,30.1772z M44.8872,35.7393c-1.1377,0-2.0635-0.9258-2.0635-2.0635   c0-0.1475,0.0156-0.2964,0.0459-0.4502c0.1885-0.9253,1.0557-1.623,2.0176-1.623c0.374,0,0.7305,0.0972,1.04,0.2861   c0.6504,0.3896,1.0234,1.041,1.0234,1.7871C46.9507,34.8135,46.0249,35.7393,44.8872,35.7393z"/><rect x="28.7944" y="27.313" width="6.3467" height="2"/><path d="M76.2856,14.96c0,3.5342,2.875,6.4092,6.4092,6.4092s6.4092-2.875,6.4092-6.4092s-2.875-6.4097-6.4092-6.4097   S76.2856,11.4258,76.2856,14.96z M82.6948,10.5503c2.4316,0,4.4092,1.978,4.4092,4.4097c0,2.4312-1.9775,4.4092-4.4092,4.4092   s-4.4092-1.978-4.4092-4.4092C78.2856,12.5283,80.2632,10.5503,82.6948,10.5503z"/><rect x="81.6948" y="1.7139" width="2" height="4.5107"/><rect x="73.3745" y="5.5412" transform="matrix(-0.6428 -0.7661 0.7661 -0.6428 119.2317 68.6821)" width="4.5108" height="1.9991"/><rect x="69.6156" y="12.0512" transform="matrix(-0.9848 -0.1736 0.1736 -0.9848 140.3846 38.3829)" width="4.5109" height="2.0002"/><rect x="70.921" y="19.4547" transform="matrix(-0.866 0.5 -0.5 -0.866 146.7758 1.5797)" width="4.5106" height="2.0003"/><rect x="76.6806" y="24.2875" transform="matrix(-0.3421 0.9397 -0.9397 -0.3421 129.6986 -40.2375)" width="4.5109" height="1.9997"/><rect x="84.1982" y="24.2875" transform="matrix(-0.3421 -0.9397 0.9397 -0.3421 92.2636 115.1757)" width="4.5109" height="1.9997"/><rect x="89.9571" y="19.4547" transform="matrix(0.866 0.5 -0.5 0.866 22.5828 -43.3672)" width="4.5106" height="2.0003"/><rect x="92.518" y="10.7963" transform="matrix(-0.1738 -0.9848 0.9848 -0.1738 96.9201 107.4143)" width="2.0002" height="4.5099"/><rect x="87.5034" y="5.5412" transform="matrix(0.6428 -0.7661 0.7661 0.6428 27.0541 71.0973)" width="4.5108" height="1.9991"/><path d="M53.3345,18.2886v2c2.1328,0,3.8682,1.7349,3.8682,3.8677h2c0-2.1328,1.7344-3.8677,3.8672-3.8677v-2   c-2.0244,0-3.8125,1.0308-4.8672,2.5942C57.147,19.3193,55.3589,18.2886,53.3345,18.2886z"/><path d="M61.1538,11.5561h2c0-1.4712,1.1973-2.6685,2.668-2.6685v-2c-1.4863,0-2.8125,0.6982-3.668,1.7842   c-0.8555-1.0859-2.1826-1.7842-3.6689-1.7842v2C59.9565,8.8877,61.1538,10.085,61.1538,11.5561z"/><path d="M47.5181,8.5576h2c0-1.4712,1.1973-2.6685,2.6689-2.6685v-2c-1.4863,0-2.8135,0.6982-3.6689,1.7842   c-0.8555-1.0859-2.1816-1.7842-3.668-1.7842v2C46.3208,5.8892,47.5181,7.0864,47.5181,8.5576z"/><path d="M66.147,79.0864l-0.5771-0.4082l-0.5771,0.4067c-2.0986,1.479-3.2549,3.4839-3.2549,5.6445   c0,2.0082,1.01,3.8757,2.8359,5.3176v3.5516h2v-3.5583c1.8262-1.4409,2.8359-3.3061,2.8359-5.3109   C69.4097,82.5728,68.2544,80.5713,66.147,79.0864z M65.5698,88.2915c-1.1865-1.022-1.832-2.2666-1.832-3.562   c0-1.2959,0.6455-2.5405,1.832-3.5625c1.1914,1.022,1.8398,2.2666,1.8398,3.5625C67.4097,86.0244,66.7622,87.269,65.5698,88.2915z"/><path d="M84.9048,81.2012l-0.5771-0.4082l-0.5771,0.4067c-2.0986,1.479-3.2549,3.4839-3.2549,5.6445   c0,2.0082,1.01,3.8761,2.8359,5.3181v3.5516h2v-3.5583c1.8262-1.4409,2.8359-3.3061,2.8359-5.3113   C88.1675,84.6875,87.0122,82.686,84.9048,81.2012z M84.3276,90.4067c-1.1865-1.022-1.832-2.2666-1.832-3.5625   s0.6455-2.5405,1.832-3.5625c1.1914,1.022,1.8398,2.2671,1.8398,3.5625C86.1675,88.1392,85.52,89.3843,84.3276,90.4067z"/><path d="M92.5786,63.4082L92.0015,63l-0.5771,0.4067c-2.0996,1.4795-3.2559,3.4839-3.2559,5.644   c0,2.0079,1.01,3.8758,2.8369,5.3181v3.5515h2V74.362c1.8253-1.4409,2.835-3.306,2.835-5.3107   C95.8403,66.8945,94.6851,64.8931,92.5786,63.4082z M92.0015,72.6128c-1.1875-1.0215-1.833-2.2666-1.833-3.562   s0.6455-2.54,1.833-3.562c1.1914,1.022,1.8389,2.2671,1.8389,3.5625C93.8403,70.3462,93.1929,71.5908,92.0015,72.6128z"/><path d="M74.2036,75.1147v-3.5583c1.8261-1.4409,2.835-3.3061,2.8359-5.3109c0-2.1567-1.1553-4.1582-3.2861-5.6592l-0.5703-0.3804   l-0.5605,0.395c-2.0986,1.479-3.2549,3.4834-3.2549,5.644c0,2.0082,1.01,3.8761,2.8359,5.3181v3.5516H74.2036z M73.1997,62.6831   c1.1914,1.022,1.8398,2.2671,1.8398,3.5625c-0.001,1.2949-0.6475,2.5396-1.8398,3.562c-1.1865-1.022-1.832-2.2666-1.832-3.5625   S72.0132,63.7046,73.1997,62.6831z"/><path d="M82.4966,57.895v-3.5584c1.8253-1.4409,2.835-3.306,2.835-5.3112c0-2.1567-1.1553-4.1582-3.2617-5.6431l-0.5771-0.4082   l-0.5772,0.4067c-2.0996,1.4795-3.2558,3.4844-3.2558,5.6445c0,2.0079,1.01,3.8758,2.8369,5.3181v3.5515H82.4966z M81.4927,45.4629   c1.1914,1.022,1.8389,2.2671,1.8389,3.5625s-0.6475,2.54-1.8389,3.562c-1.1875-1.0215-1.833-2.2666-1.833-3.562   S80.3052,46.4849,81.4927,45.4629z"/><path d="M51.5591,84.7295c0-2.1567-1.1553-4.1582-3.2617-5.6431l-0.5771-0.4082l-0.5771,0.4067   c-2.0996,1.4795-3.2559,3.4844-3.2559,5.6445c0,2.0079,1.01,3.8754,2.8369,5.3176v3.5515h2v-3.5584   C50.5494,88.5993,51.5591,86.7342,51.5591,84.7295z M47.7202,88.291c-1.1875-1.0215-1.833-2.2661-1.833-3.5615   s0.6455-2.5405,1.833-3.5625c1.1914,1.022,1.8389,2.2671,1.8389,3.5625C49.5591,86.0244,48.9116,87.269,47.7202,88.291z"/><path d="M56.354,75.1147v-3.5583c1.8261-1.4409,2.835-3.3061,2.8359-5.3109c0-2.1567-1.1553-4.1582-3.2861-5.6592l-0.5703-0.3804   l-0.5605,0.395c-2.0986,1.479-3.2549,3.4834-3.2549,5.644c0,2.0082,1.01,3.8761,2.8359,5.3181v3.5516H56.354z M55.3501,62.6831   c1.1914,1.022,1.8398,2.2671,1.8398,3.5625c-0.001,1.2949-0.6475,2.5396-1.8398,3.562c-1.1865-1.022-1.832-2.2666-1.832-3.5625   S54.1636,63.7046,55.3501,62.6831z"/><path d="M64.647,57.895v-3.559c1.8256-1.4408,2.835-3.3057,2.835-5.3106c0-2.1567-1.1553-4.1582-3.2627-5.6431l-0.5771-0.4087   l-0.5771,0.4072c-2.0986,1.48-3.2549,3.4844-3.2549,5.6445c0,2.0081,1.0103,3.8759,2.8369,5.3186v3.551H64.647z M63.6421,45.4629   c1.1914,1.022,1.8398,2.2671,1.8398,3.5625c0,1.2949-0.6475,2.54-1.8398,3.562c-1.1865-1.022-1.832-2.2666-1.832-3.562   S62.4556,46.4853,63.6421,45.4629z"/></g><text x="0" y="113" fill="#000000" font-size="5px" font-weight="bold" font-family="'Helvetica Neue', Helvetica, Arial-Unicode, Arial, Sans-serif">Created by ProSymbols</text><text x="0" y="118" fill="#000000" font-size="5px" font-weight="bold" font-family="'Helvetica Neue', Helvetica, Arial-Unicode, Arial, Sans-serif">from the Noun Project</text></svg>