<svg xmlns="http://www.w3.org/2000/svg" xmlns:xlink="http://www.w3.org/1999/xlink" version="1.1" x="0px" y="0px" viewBox="0 0 128 160" style="enable-background:new 0 0 128 128;" xml:space="preserve"><g><g><path d="M114,52.0009995H53.1103859c-0.3144989-1.0484009-0.7207985-2.0546989-1.184597-3.0298004l13.3320007-7.9136009    c0.0273972-0.0136986,0.051796-0.0302963,0.0780945-0.0463982l41.6904984-24.7474995    c1.4023056-0.8330002,1.8877029-2.6783009,1.0820007-4.1143007L102.1415863,1.5239    C101.7421875,0.814,101.0946884,0.3086,100.3183899,0.1011c-0.7666016-0.2061-1.5645065-0.0948-2.2491074,0.312    L36.3817863,37.0312996c-1.2577858-0.2299995-2.5467873-0.3676987-3.8700981-0.3676987    c-10.1522999,0-18.6650009,7.078598-20.9120998,16.5536995C11.2265882,53.716301,11,54.3306007,11,55.0009995v12V125    c0,1.6542969,1.3456888,3,3,3h100c1.6542892,0,3-1.3457031,3-3V67.0009995v-12    C117,53.3466988,115.6542892,52.0009995,114,52.0009995z M115,55.0009995v12c0,0.5516968-0.4482117,1-1,1h-13.7910004l7.875-14    H114C114.5517883,54.0009995,115,54.4496994,115,55.0009995z M87.2089996,68.0009995l7.875-14h10.7060013l-7.8740005,14    H87.2089996z M74.2089996,68.0009995l7.875-14h10.7060013l-7.8740005,14H74.2089996z M62.2089996,68.0009995l7.875-14h9.7060013    l-7.8740005,14H62.2089996z M67.7900009,54.0009995l-7.8740005,14H51.625    c1.5224876-2.9491959,2.3983879-6.2851982,2.3983879-9.8261986c0-1.4286995-0.1473885-2.8227005-0.4140015-4.1738014H67.7900009z     M60.028286,25.3202991l13.9815025,8.2152996l-9.2118988,5.4687996l-13.910202-8.2582989L60.028286,25.3202991z     M71.125,18.7334003l13.8935852,8.2680988l-9.0439987,5.3680992L61.991188,24.1553001L71.125,18.7334003z M81.3827896,12.6444998    c0.0186005,0.0127001,0.0292969,0.0323,0.0487976,0.0445004l13.6954117,8.3119993l-8.1504135,4.8379002l-13.8945847-8.2675991    L81.3827896,12.6444998z M99.0907898,2.1328001c0.1464996-0.0869,0.3085938-0.1313002,0.4726944-0.1313002    c0.0791016,0,0.1592026,0.0102,0.2383041,0.0317001c0.2518997,0.0674,0.4627991,0.2344,0.5956955,0.4702001l5.9668045,10.625    c0.2792969,0.4970999,0.1180954,1.1323004-0.3594055,1.4154997l-8.9296951,5.3003006l-13.7548981-8.3495998L99.0907898,2.1328001z     M48.928688,31.9092007l13.9101982,8.2582989L50.9823875,47.205101    c-2.6493874-4.4434013-6.8387985-7.8599014-11.8428001-9.4854012L48.928688,31.9092007z M32.5116882,38.6636009    c10.7588005,0,19.5116997,8.7528992,19.5116997,19.5112c0,10.7588005-8.7528992,19.5116997-19.5116997,19.5116997    S13,68.9336014,13,58.1748009C13,47.4165001,21.7528877,38.6636009,32.5116882,38.6636009z M13.165,67.517601    c-0.0429115-0.0683975-0.0791111-0.1377029-0.1045113-0.2157974C13.0946884,67.3740005,13.1298885,67.4462967,13.165,67.517601z     M114,126h-1.0830002c0.018486-0.0762024,0.0468826-0.1493988,0.0468826-0.2313995V73.705101c0-0.552803-0.4472961-1-1-1    c-0.5527954,0-1,0.447197-1,1v52.0634995c0,0.0820007,0.0283051,0.1551971,0.0468063,0.2313995H14c-0.5518112,0-1-0.4481964-1-1    V69.8163986c0.3144884,0.1123047,0.6474886,0.1846008,1,0.1846008h0.5614882    c3.8526011,5.8271027,10.4560995,9.6855011,17.9501991,9.6855011c7.4941978,0,14.0976982-3.8583984,17.9501991-9.6855011H114    c0.3524857,0,0.6854858-0.0722961,1-0.1846008V125C115,125.5518036,114.5517883,126,114,126z"/><path d="M32.5116882,73.9951019c8.7236977,0,15.8203125-7.0967026,15.8203125-15.8203011    c0-8.7231026-7.0966148-15.8203011-15.8203125-15.8203011c-8.7236004,0-15.8202991,7.0971985-15.8202991,15.8203011    C16.6913891,66.8983994,23.7880878,73.9951019,32.5116882,73.9951019z M32.5116882,44.3544998    c7.6200981,0,13.8203125,6.1996994,13.8203125,13.8203011c0,7.6200981-6.2002144,13.8203011-13.8203125,13.8203011    c-5.9960995,0-11.0986004-3.8467026-13.0067997-9.1953011h14.8397999c0.5527992,0,1-0.4482002,1-1c0-0.5522003-0.4472008-1-1-1    H18.9481888c-0.0995998-0.5181007-0.1639996-1.0474014-0.2040997-1.5834999h12.6835995c0.5527992,0,1-0.4477005,1-1    c0-0.5522003-0.4472008-1-1-1h-12.6875c0.0391006-0.5648994,0.1035995-1.1221008,0.2080002-1.6665001h15.7294998    c0.5527992,0,1-0.4477005,1-1c0-0.5522003-0.4472008-1-1-1H19.5048885    C21.4130878,48.2001991,26.5155888,44.3544998,32.5116882,44.3544998z"/><path d="M99.5,94.1669998c0.5526886,0,1-0.4472961,1-1c0-0.5526962-0.4473114-1-1-1H88.4716873    c-2.3506012-10.9403992-12.0938034-19.1679993-23.7276001-19.1679993c-11.6328011,0-21.3759003,8.2276001-23.7264977,19.1679993    H30c-0.5527115,0-1,0.4473038-1,1c0,0.5527039,0.4472885,1,1,1h10.678688c-0.0848999,0.6601028-0.1464996,1.3262024-0.1766891,2    H33c-0.5527115,0-1,0.4473038-1,1c0,0.5527039,0.4472885,1,1,1h7.4960861c0.0254021,0.6747971,0.0781021,1.3407974,0.1562004,2H30    c-0.5527115,0-1,0.4473038-1,1c0,0.5527039,0.4472885,1,1,1h10.9706879    c2.2714996,11.0438995,12.0684013,19.3730011,23.7733994,19.3730011c11.7061005,0,21.5029984-8.3291016,23.774498-19.3730011H99.5    c0.5526886,0,1-0.4472961,1-1c0-0.5526962-0.4473114-1-1-1H88.8368835c0.0781174-0.6592026,0.1309052-1.3252029,0.1563034-2H96.5    c0.5526886,0,1-0.4472961,1-1c0-0.5526962-0.4473114-1-1-1h-7.5127106c-0.0302887-0.6737976-0.0918045-1.3398972-0.1768036-2H99.5    z M64.7440872,119.5400009c-12.2714005,0-22.2557983-9.9765015-22.2695007-22.2451019    C42.4804878,97.2509995,42.5,97.2128983,42.5,97.1669998c0-0.0371017-0.0176125-0.0683975-0.0215111-0.1044998    c0.1122971-12.1846008,10.0546989-22.0634995,22.2655983-22.0634995c12.2266006,0,22.1817017,9.9042969,22.267601,22.1113968    C87.0106888,97.1298981,87,97.1474991,87,97.1669998c0,0.0263977,0.0126877,0.0487976,0.0145874,0.0742035    c0,0.0087967,0.0009995,0.0186005,0.0009995,0.0273972C87.0155869,109.5487976,77.0243835,119.5400009,64.7440872,119.5400009z"/><path d="M76,96.402298L54.4892883,83.9843979c-0.3086014-0.1777954-0.6914024-0.1777954-1,0    c-0.3096008,0.1777039-0.5,0.5088043-0.5,0.8652039v24.8388977c0,0.357399,0.1903992,0.6875,0.5,0.8662033    c0.1543007,0.0888977,0.3270988,0.1337967,0.5,0.1337967c0.1727982,0,0.3457108-0.044899,0.5-0.1337967L76,98.1348038    c0.3095856-0.1787033,0.5-0.5088043,0.5-0.8662033C76.5,96.9111023,76.3095856,96.5811005,76,96.402298z M54.9892883,107.9561005    V86.5820007l3.3232002,1.9189987V96.0625c0,0.5526962,0.4473,1,1,1s1-0.4473038,1-1v-6.4072037l2.75,1.5879059V95.4375    c0,0.5526962,0.4473,1,0.9999962,1c0.5527039,0,1-0.4473038,1-1v-3.0400009L73.5,97.2686005L54.9892883,107.9561005z"/></g></g><text x="0" y="143" fill="#000000" font-size="5px" font-weight="bold" font-family="'Helvetica Neue', Helvetica, Arial-Unicode, Arial, Sans-serif">Created by priyanka</text><text x="0" y="148" fill="#000000" font-size="5px" font-weight="bold" font-family="'Helvetica Neue', Helvetica, Arial-Unicode, Arial, Sans-serif">from the Noun Project</text></svg>