<svg xmlns="http://www.w3.org/2000/svg" xmlns:xlink="http://www.w3.org/1999/xlink" version="1.1" x="0px" y="0px" viewBox="0 0 32 40" enable-background="new 0 0 32 32" xml:space="preserve"><g display="none"><g display="inline"><polygon fill="#000000" points="22.556,0 29.245,6.689 29.245,32 5.08,32 5.08,0   "/><polygon fill="#000000" points="29.245,6.689 22.555,6.689 22.555,0   "/><g><rect x="2.755" y="18.313" fill="#000000" width="24.093" height="8.118"/><polygon fill="#000000" points="5.08,28.755 5.08,26.431 2.755,26.431    "/></g></g><text transform="matrix(1 0 0 1 9.9538 24.8354)" display="inline" fill="#000000" font-family="'EurostileBold'" font-size="7.3853px">GIF</text></g><g display="none"><text transform="matrix(1 0 0 1 10.7871 24.8354)" display="inline" fill="#000000" font-family="'EurostileBold'" font-size="7.3853px">GIF</text></g><g display="none"><g display="inline"><polygon fill="#000000" points="22.556,0 29.245,6.689 29.245,32 5.08,32 5.08,0   "/><polygon fill="#000000" points="29.245,6.689 22.555,6.689 22.555,0   "/><g><polygon fill="#000000" points="26.848,26.431 2.755,26.431 2.755,18.313 32,18.313    "/><polygon fill="#000000" points="5.08,28.755 5.08,26.431 2.755,26.431    "/></g></g><text transform="matrix(1 0 0 1 11.3566 24.7163)" display="inline" fill="#000000" font-family="'EurostileBold'" font-size="7px">GIF</text></g><g display="none"><polygon display="inline" fill="#000000" points="22.556,0 29.245,6.689 29.245,32 5.08,32 5.08,0  "/><polygon display="inline" fill="#000000" points="29.245,6.689 22.555,6.689 22.555,0  "/><g display="inline"><polygon fill="#000000" points="26.848,26.431 2.755,26.431 2.755,18.313 32,18.313   "/></g><polygon display="inline" fill="#000000" points="5.08,28.755 5.08,26.431 2.755,26.431  "/><g display="inline"><text transform="matrix(1 0 0 1 11.3566 24.7038)" fill="#000000" font-family="'EurostileBold'" font-size="7px">GIF</text></g></g><g display="none"><g display="inline"><g><polygon fill="#000000" points="21.082,0.286 27.651,6.856 27.651,31.714 3.919,31.714 3.919,0.286    "/></g><polygon fill="#000000" points="27.867,7.493 20.372,7.493 20.372,0   "/><g><path fill="#000000" d="M20.764,1l6.103,6.103V31H4.702V1H20.764 M21.178,0H3.702v32h24.165V6.689L21.178,0L21.178,0z"/></g><g><polygon fill="#000000" points="25.47,26.431 1.378,26.431 1.378,18.313 30.622,18.313    "/><polygon fill="#000000" points="3.702,28.755 3.702,26.431 1.378,26.431    "/></g></g><text transform="matrix(1 0 0 1 10.8228 24.4376)" display="inline" fill="#000000" font-family="'EurostileBold'" font-size="6.2px">GIF</text></g><g display="none"><g display="inline"><circle fill="#000000" cx="16" cy="16" r="16"/><g><defs><circle id="h" cx="16" cy="16" r="16"/></defs><clipPath id="g"><use xlink:href="#h" overflow="visible"/></clipPath><polygon clip-path="url(#g)" fill="#000000" points="23.417,10.181 33.884,20.648 33.884,32.886 16.216,33.948 8.268,26         "/></g></g><g display="inline"><g><polygon fill="#000000" points="19.237,6 23.417,10.181 23.417,26 8.314,26 8.314,6    "/><polygon fill="#000000" points="23.417,10.181 19.236,10.181 19.236,6    "/><g><polygon fill="#000000" points="21.919,22.519 6.861,22.519 6.861,17.446 25.139,17.446     "/><polygon fill="#000000" points="8.314,23.972 8.314,22.519 6.861,22.519     "/></g></g><text transform="matrix(1 0 0 1 12.2367 21.4479)" fill="#000000" font-family="'EurostileBold'" font-size="4.375px">GIF</text></g></g><g display="none"><g display="inline"><circle fill="#000000" cx="16" cy="16" r="16"/><g><defs><circle id="f" cx="16" cy="16" r="16"/></defs><clipPath id="e"><use xlink:href="#f" overflow="visible"/></clipPath><polygon clip-path="url(#e)" fill="#000000" points="23.417,10.181 33.884,20.648 33.884,32.886 16.216,33.948 8.268,26         "/></g></g><g display="inline"><g><polygon fill="#000000" points="19.237,6 23.417,10.181 23.417,26 8.314,26 8.314,6    "/><polygon fill="#000000" points="23.417,10.181 19.236,10.181 19.236,6    "/><g><polygon fill="#000000" points="21.919,22.519 6.861,22.519 6.861,17.446 25.139,17.446     "/><polygon fill="#000000" points="8.314,23.972 8.314,22.519 6.861,22.519     "/></g></g><text transform="matrix(1 0 0 1 12.2367 21.4479)" fill="#000000" font-family="'EurostileBold'" font-size="4.375px">GIF</text></g></g><g display="none"><g display="inline"><g><g><g><path fill="#000000" d="M5.917,31.5c-0.827,0-1.5-0.673-1.5-1.5V2c0-0.827,0.673-1.5,1.5-1.5h20.165c0.827,0,1.5,0.673,1.5,1.5       v28c0,0.827-0.673,1.5-1.5,1.5H5.917z"/></g><g><g><path fill="#000000" d="M26.082,1c0.551,0,1,0.449,1,1v28c0,0.551-0.449,1-1,1H5.918c-0.551,0-1-0.449-1-1V2        c0-0.551,0.449-1,1-1H26.082 M26.082,0H5.918c-1.1,0-2,0.9-2,2v28c0,1.1,0.9,2,2,2h20.165c1.1,0,2-0.9,2-2V2        C28.082,0.9,27.182,0,26.082,0L26.082,0z"/></g></g></g><g><g><g><rect x="3.918" y="18.313" fill="#000000" width="24.165" height="8.118"/></g></g></g><g><polyline fill="#000000" points="3.918,26.392 3.918,18.313 11.996,18.313     "/></g></g><g><path fill="#000000" d="M13.108,22.217h2.167l0.015,0.978c0,0.712-0.134,1.17-0.402,1.376c-0.268,0.205-0.866,0.308-1.794,0.308     c-0.851,0-1.415-0.137-1.691-0.411c-0.276-0.273-0.414-0.833-0.414-1.677c0-1.077,0.055-1.757,0.165-2.041     c0.138-0.346,0.346-0.579,0.624-0.699c0.279-0.12,0.753-0.181,1.421-0.181c0.875,0,1.44,0.094,1.695,0.279     c0.255,0.187,0.382,0.6,0.382,1.239h-0.944c-0.018-0.322-0.088-0.522-0.211-0.601c-0.124-0.078-0.435-0.117-0.933-0.117     c-0.541,0-0.884,0.067-1.029,0.202s-0.219,0.45-0.219,0.948l-0.003,0.494l0.007,0.631c0,0.488,0.072,0.799,0.217,0.933     c0.144,0.133,0.479,0.2,1.002,0.2c0.51,0,0.834-0.057,0.972-0.17c0.139-0.113,0.208-0.38,0.208-0.801l0.003-0.202h-1.236V22.217z     "/><path fill="#000000" d="M16.879,19.914v4.922h-0.934v-4.922H16.879z"/><path fill="#000000" d="M18.686,20.7v1.326h2.207v0.786h-2.207v2.023h-0.934v-4.922h3.26V20.7H18.686z"/></g></g></g><g display="none"><g display="inline"><path fill="#000000" d="M26.082,32H5.917c-1.1,0-2-0.9-2-2V2c0-1.1,0.9-2,2-2h20.165c1.1,0,2,0.9,2,2v28    C28.082,31.1,27.182,32,26.082,32z"/><g><g><defs><polygon id="d" points="21.394,0 28.082,6.689 28.082,32 3.918,32 3.918,0      "/></defs><clipPath id="c"><use xlink:href="#d" overflow="visible"/></clipPath><g clip-path="url(#c)"><rect x="3.493" y="17.745" fill="#000000" width="25.02" height="9.338"/><g><rect x="3.487" y="17.432" fill="#000000" width="25.026" height="0.5"/></g><g><rect x="3.487" y="26.833" fill="#000000" width="25.026" height="0.5"/></g></g></g></g><g><defs><path id="b" d="M26.082,32H5.917c-1.1,0-2-0.9-2-2V2c0-1.1,0.9-2,2-2h20.165c1.1,0,2,0.9,2,2v28      C28.082,31.1,27.182,32,26.082,32z"/></defs><clipPath id="a"><use xlink:href="#b" overflow="visible"/></clipPath><polyline clip-path="url(#a)" fill="#000000" points="21.344,-0.234 28.406,-0.234 28.406,6.828    "/></g><polygon fill="#000000" points="21.021,0 28.083,7.061 28.083,6.354 21.729,0   "/></g><g display="inline"><path fill="#000000" d="M13.108,22.217h2.167l0.015,0.978c0,0.712-0.134,1.17-0.402,1.376c-0.268,0.205-0.866,0.308-1.794,0.308    c-0.851,0-1.415-0.137-1.691-0.411c-0.276-0.273-0.414-0.833-0.414-1.677c0-1.077,0.055-1.757,0.165-2.041    c0.138-0.346,0.346-0.579,0.624-0.699c0.279-0.12,0.753-0.181,1.421-0.181c0.875,0,1.44,0.094,1.695,0.279    c0.255,0.187,0.382,0.6,0.382,1.239h-0.944c-0.018-0.322-0.088-0.522-0.211-0.601c-0.124-0.078-0.435-0.117-0.933-0.117    c-0.541,0-0.884,0.067-1.029,0.202s-0.219,0.45-0.219,0.948l-0.003,0.494l0.007,0.631c0,0.488,0.072,0.799,0.217,0.933    c0.144,0.133,0.479,0.2,1.002,0.2c0.51,0,0.834-0.057,0.972-0.17c0.139-0.113,0.208-0.38,0.208-0.801l0.003-0.202h-1.236V22.217z"/><path fill="#000000" d="M16.879,19.914v4.922h-0.934v-4.922H16.879z"/><path fill="#000000" d="M18.686,20.7v1.326h2.207v0.786h-2.207v2.023h-0.934v-4.922h3.26V20.7H18.686z"/></g></g><g display="none"><g display="inline"><g><polygon fill="#000000" points="29.047,7.517 21.727,7.517 21.727,0.198 22.727,0.198 22.727,6.517 29.047,6.517    "/></g><path fill="#000000" d="M5.08,32h24.165V6.689L22.556,0H5.08v15.937H2.755v10.494h0l2.324,2.324L5.08,32z M3.755,16.937h21.619    v8.494H3.755V16.937z M28.245,31H6.08v-4.569h20.294V15.937H6.08V1h16.062l6.103,6.103V31z"/></g><g display="inline"><text transform="matrix(1 0 0 1 9.8111 23.536)" fill="#000000" font-family="'EurostileBold'" font-size="7px">GIF</text></g></g><g display="none"><g display="inline"><polyline fill="#000000" stroke="#1A1718" stroke-width="0.5" stroke-miterlimit="10" points="5.254,26.268 5.254,31.75     29.034,31.75 29.034,6.834 22.452,0.25 5.254,0.25 5.254,15.938   "/><polyline fill="#000000" stroke="#1A1718" stroke-width="0.5" stroke-miterlimit="10" points="28.839,7.157 22.127,7.157     22.127,0.445   "/><polyline fill="#000000" stroke="#1A1718" stroke-width="0.5" stroke-miterlimit="10" points="5.272,28.575 2.966,26.268     2.966,15.938 26.209,15.938 26.209,26.268 2.966,26.268   "/></g><g display="inline"><g><text transform="matrix(1 0 0 1 9.8111 23.4462)" fill="#000000" font-family="'EurostileBold'" font-size="7px">GIF</text></g></g></g><g><g><path d="M4.805,32h24.561V6.858L22.536,0H4.805v14.941h-2.17v11.251l2.17,2.179V32z M22.813,3.112l3.451,3.467h-3.451V3.112z     M6.805,2h14.009v6.579h6.552V30H6.805v-3.221h18.933V14.941H6.805V2z M4.635,16.941h19.103v7.838H4.635V16.941z"/><path d="M11.588,20.569v0.903h1.17l-0.001,0.066c0,0.469-0.094,0.615-0.15,0.661c-0.061,0.05-0.25,0.133-0.842,0.133    c-0.605,0-0.802-0.098-0.865-0.156c-0.062-0.057-0.165-0.236-0.165-0.793l-0.007-0.596l0.003-0.47    c0-0.568,0.104-0.749,0.167-0.807c0.063-0.06,0.264-0.158,0.891-0.158c0.586,0,0.764,0.057,0.817,0.091    c0.045,0.028,0.123,0.128,0.142,0.471l0.007,0.118h1.139v-0.125c0-0.654-0.135-1.07-0.414-1.274    c-0.267-0.195-0.816-0.29-1.68-0.29c-0.656,0-1.113,0.06-1.396,0.182c-0.296,0.127-0.518,0.373-0.659,0.732    c-0.112,0.287-0.166,0.936-0.166,1.98c0,0.843,0.141,1.392,0.431,1.678c0.289,0.286,0.842,0.426,1.69,0.426    c0.915,0,1.497-0.104,1.777-0.318c0.289-0.222,0.43-0.681,0.43-1.404l-0.016-1.05H11.588z"/><rect x="14.278" y="18.384" width="1.135" height="4.916"/><polygon points="15.99,23.3 17.126,23.3 17.126,21.382 19.218,21.382 19.218,20.388 17.126,20.388 17.126,19.381 19.33,19.381     19.33,18.384 15.99,18.384   "/></g></g><g display="none"><g display="inline"><path fill="#000000" d="M22.556,0H5.08v15.937H2.755v10.494h0L5.08,26.43l0,5.57h24.165V6.689L22.556,0z M22.727,1.585    l4.932,4.932h-4.932V1.585z M3.755,25.431v-8.494h21.619v8.494H3.755z"/></g><g display="inline"><g><path fill="#000000" d="M12.057,21.054h2.055l0.014,0.927c0,0.674-0.127,1.108-0.381,1.304c-0.255,0.194-0.821,0.292-1.701,0.292     c-0.807,0-1.341-0.13-1.603-0.39c-0.263-0.26-0.394-0.79-0.394-1.589c0-1.021,0.053-1.666,0.157-1.936     c0.13-0.328,0.327-0.549,0.592-0.662c0.264-0.114,0.713-0.172,1.347-0.172c0.829,0,1.364,0.089,1.606,0.266     c0.241,0.177,0.362,0.567,0.362,1.174h-0.896c-0.017-0.306-0.083-0.495-0.2-0.569s-0.412-0.11-0.884-0.11     c-0.513,0-0.838,0.063-0.976,0.191c-0.138,0.127-0.207,0.427-0.207,0.898l-0.003,0.469l0.007,0.598     c0,0.463,0.068,0.757,0.205,0.884c0.137,0.126,0.453,0.189,0.95,0.189c0.482,0,0.79-0.054,0.921-0.161     c0.131-0.106,0.196-0.359,0.196-0.758l0.004-0.191h-1.173V21.054z"/><path fill="#000000" d="M15.632,18.87v4.666h-0.885V18.87H15.632z"/><path fill="#000000" d="M17.345,19.616v1.258h2.092v0.744h-2.092v1.918h-0.886V18.87h3.09v0.746H17.345z"/></g></g></g><text x="0" y="47" fill="#000000" font-size="5px" font-weight="bold" font-family="'Helvetica Neue', Helvetica, Arial-Unicode, Arial, Sans-serif">Created by Alfredo @ IconsAlfredo.com</text><text x="0" y="52" fill="#000000" font-size="5px" font-weight="bold" font-family="'Helvetica Neue', Helvetica, Arial-Unicode, Arial, Sans-serif">from the Noun Project</text></svg>