<svg xmlns="http://www.w3.org/2000/svg" xmlns:xlink="http://www.w3.org/1999/xlink" xml:space="preserve" version="1.0" style="shape-rendering:geometricPrecision;text-rendering:geometricPrecision;image-rendering:optimizeQuality;" viewBox="0 0 69.55 73.2" x="0px" y="0px" fill-rule="evenodd" clip-rule="evenodd"><defs><style type="text/css">
   
    .fil0 {fill:black;fill-rule:nonzero}
   
  </style></defs><g><path class="fil0" d="M69.49 1.45l-12.97 48.4c-0.13,0.5 -0.58,0.82 -1.07,0.82l-30.3 0 -16.39 7.77c-0.55,0.26 -1.21,0.02 -1.47,-0.53 -0.12,-0.25 -0.13,-0.51 -0.07,-0.76l1.74 -6.48 -7.85 0c-0.61,0 -1.11,-0.5 -1.11,-1.11 0,-0.12 0.02,-0.24 0.05,-0.34l12.97 -48.4c0.13,-0.5 0.58,-0.82 1.07,-0.82l54.34 -0c0.61,0 1.11,0.5 1.11,1.11 0,0.12 -0.02,0.24 -0.06,0.34zm-14.89 47l12.39 -46.24 -52.04 0 -12.39 46.24 7.85 0c0.1,0 0.19,0.01 0.29,0.04 0.59,0.16 0.94,0.77 0.79,1.36l-1.49 5.57 14.38 -6.82c0.16,-0.09 0.35,-0.14 0.54,-0.14l29.7 0zm-34.81 -35.02l6.24 -0 1.68 -6.26c0.13,-0.5 0.58,-0.82 1.07,-0.82l7.19 -0c0.61,0 1.11,0.5 1.11,1.11 0,0.12 -0.02,0.24 -0.05,0.35l-1.51 5.63 4.9 0 1.68 -6.26c0.13,-0.5 0.58,-0.82 1.07,-0.82l7.19 -0c0.61,0 1.11,0.5 1.11,1.11 0,0.12 -0.02,0.24 -0.06,0.34l-1.51 5.63 5.64 0c0.61,0 1.11,0.5 1.11,1.11 0,0.12 -0.02,0.24 -0.06,0.35l-1.91 7.13c-0.13,0.5 -0.58,0.82 -1.07,0.82l-6.24 0 -1.33 4.97 5.64 0c0.61,0 1.11,0.5 1.11,1.11 0,0.12 -0.02,0.24 -0.06,0.35l-1.91 7.13c-0.13,0.5 -0.58,0.82 -1.07,0.82l-6.24 0 -1.68 6.27c-0.13,0.5 -0.58,0.82 -1.07,0.82l-7.19 0c-0.61,0 -1.11,-0.5 -1.11,-1.11 0,-0.12 0.02,-0.24 0.05,-0.34l1.51 -5.63 -4.9 0 -1.68 6.27c-0.13,0.5 -0.58,0.82 -1.07,0.82l-7.19 0c-0.61,0 -1.11,-0.5 -1.11,-1.11 0,-0.12 0.02,-0.24 0.06,-0.34l1.51 -5.63 -5.64 0c-0.61,0 -1.11,-0.5 -1.11,-1.11 0,-0.12 0.02,-0.24 0.06,-0.35l1.91 -7.13c0.13,-0.5 0.58,-0.82 1.07,-0.82l6.24 -0 1.33 -4.97 -5.64 0c-0.61,0 -1.11,-0.5 -1.11,-1.11 0,-0.12 0.02,-0.24 0.06,-0.35l1.91 -7.13c0.13,-0.5 0.58,-0.82 1.07,-0.82zm7.09 2.22l-6.24 0 -1.33 4.97 5.64 0c0.09,0 0.19,0.01 0.29,0.04 0.59,0.16 0.94,0.77 0.78,1.36l-1.91 7.14c-0.11,0.5 -0.55,0.88 -1.09,0.88l-6.24 0 -1.33 4.97 5.64 0c0.1,0 0.19,0.01 0.29,0.04 0.59,0.16 0.94,0.77 0.79,1.36l-1.52 5.69 4.89 0 1.66 -6.21c0.11,-0.5 0.55,-0.88 1.09,-0.88l7.19 0c0.1,0 0.19,0.01 0.29,0.04 0.59,0.16 0.94,0.77 0.79,1.36l-1.53 5.69 4.9 0 1.66 -6.21c0.11,-0.5 0.55,-0.88 1.09,-0.88l6.24 0 1.33 -4.97 -5.64 0c-0.09,-0 -0.19,-0.01 -0.29,-0.04 -0.59,-0.16 -0.94,-0.77 -0.79,-1.36l1.91 -7.14c0.11,-0.5 0.55,-0.88 1.09,-0.88l6.24 0 1.33 -4.97 -5.64 0c-0.09,-0 -0.19,-0.01 -0.29,-0.04 -0.59,-0.16 -0.94,-0.77 -0.79,-1.36l1.52 -5.69 -4.89 0 -1.66 6.21c-0.11,0.5 -0.55,0.88 -1.09,0.88l-7.19 0c-0.1,-0 -0.19,-0.01 -0.29,-0.04 -0.59,-0.16 -0.94,-0.77 -0.79,-1.36l1.53 -5.69 -4.9 0 -1.66 6.21c-0.11,0.5 -0.55,0.88 -1.09,0.88zm4.78 12.16l4.9 0 1.33 -4.97 -4.89 0 -1.33 4.97zm5.75 2.22l-7.19 0c-0.09,-0 -0.19,-0.01 -0.29,-0.04 -0.59,-0.16 -0.94,-0.77 -0.79,-1.36l1.91 -7.14c0.11,-0.5 0.55,-0.88 1.09,-0.88l7.19 0c0.09,0 0.19,0.01 0.29,0.04 0.59,0.16 0.94,0.77 0.78,1.36l-1.91 7.14c-0.11,0.5 -0.55,0.88 -1.09,0.88z"/></g><text x="0" y="73.56" fill="#000000" font-size="5px" font-weight="bold" font-family="'Helvetica Neue', Helvetica, Arial-Unicode, Arial, Sans-serif">Created by BÖCK</text><text x="0" y="78.56" fill="#000000" font-size="5px" font-weight="bold" font-family="'Helvetica Neue', Helvetica, Arial-Unicode, Arial, Sans-serif">from the Noun Project</text></svg>