<svg xmlns="http://www.w3.org/2000/svg" data-name="Layer 1" viewBox="0 0 100 125" x="0px" y="0px"><title>playground</title><path d="M91.56,90.78H87.4a9.83,9.83,0,0,1-6.54-2.48l-7.59-6.74V61.18a18.27,18.27,0,0,0,10-32.5,14.06,14.06,0,1,0-22.8,0,18.27,18.27,0,0,0,10,32.5V79.06l-8.52-7.58a12.63,12.63,0,0,0-5.54-2.86V58.44a7,7,0,0,0-7-7H46.55V31.72h4.37L30.35,6.41H26.2L5.63,31.72H10V90.78H7.18v2.81H94.37V90.78Zm-47.82,0H12.81V71.09H43.74ZM12.81,68.28V48.59h2.81V68.28Zm5.62,0V48.59h2.81V68.28Zm5.63,0V48.59h2.81V68.28Zm5.62,0V48.59h2.81V68.28Zm5.63,0V48.59h2.81V68.28Zm8.43,0H40.93V48.59h2.81Zm0-22.5H12.81V31.72H43.74ZM11.54,28.91l16-19.69H29L45,28.91Zm35,25.31h2.81a4.23,4.23,0,0,1,4.22,4.22h-7Zm0,7h7v7h-7Zm23.9,29.53H46.56V71.09h7a9.87,9.87,0,0,1,6.54,2.49l10.39,9.24v8ZM78.38,36l-6.51,2.6L65.36,36l-1,2.61,6.15,2.46V58.37a15.47,15.47,0,0,1-7.19-28.26l1.35-.9L63.53,28a11.25,11.25,0,1,1,16.68,0l-1.09,1.21,1.35.9a15.47,15.47,0,0,1-7.2,28.26V41.11l6.15-2.46ZM73.27,90.78h0V85.32L79,90.4l.47.38Z"/><text x="0" y="115" fill="#000000" font-size="5px" font-weight="bold" font-family="'Helvetica Neue', Helvetica, Arial-Unicode, Arial, Sans-serif">Created by Yogesh More</text><text x="0" y="120" fill="#000000" font-size="5px" font-weight="bold" font-family="'Helvetica Neue', Helvetica, Arial-Unicode, Arial, Sans-serif">from the Noun Project</text></svg>