<svg xmlns="http://www.w3.org/2000/svg" xmlns:xlink="http://www.w3.org/1999/xlink" version="1.1" x="0px" y="0px" viewBox="0 0 100 125" enable-background="new 0 0 100 100" xml:space="preserve"><path fill="#000000" d="M50,59c-8.284,0-15,4.035-15,10c0,6,0.8,12.062,2.399,17.427c0.93,3.12,2.827,6.992,2.827,6.992  C40.652,94.289,41.9,95,43,95h14c1.1,0,2.348-0.711,2.774-1.581c0,0,1.896-3.872,2.826-6.991C64.2,81.063,65,75,65,69  C65,63.035,58.284,59,50,59z"/><circle fill="#000000" cx="50" cy="44" r="9"/><path fill="#000000" d="M50,5C28.495,5,11,22.495,11,44c0,13.972,7.389,26.245,18.461,33.133c-0.283-2.521-0.438-5.096-0.453-7.69  C21.678,63.386,17,54.229,17,44c0-18.196,14.804-33,33-33s33,14.804,33,33c0,10.229-4.678,19.386-12.008,25.443  c-0.016,2.594-0.17,5.169-0.453,7.69C81.611,70.245,89,57.972,89,44C89,22.495,71.505,5,50,5z"/><path fill="#000000" d="M36.858,56.26C33.854,53.043,32,48.739,32,44c0-9.925,8.075-18,18-18s18,8.075,18,18  c0,4.739-1.854,9.043-4.858,12.26c1.826,1.068,3.386,2.367,4.622,3.862C71.637,55.859,74,50.2,74,44c0-13.234-10.766-24-24-24  S26,30.766,26,44c0,6.2,2.363,11.859,6.236,16.122C33.472,58.627,35.032,57.328,36.858,56.26z"/><text x="0" y="115" fill="#000000" font-size="5px" font-weight="bold" font-family="'Helvetica Neue', Helvetica, Arial-Unicode, Arial, Sans-serif">Created by Jamison Wieser</text><text x="0" y="120" fill="#000000" font-size="5px" font-weight="bold" font-family="'Helvetica Neue', Helvetica, Arial-Unicode, Arial, Sans-serif">from the Noun Project</text></svg>