<svg xmlns="http://www.w3.org/2000/svg" data-name="Layer 1" viewBox="0 0 100 125" x="0px" y="0px"><title>sawing icons</title><path d="M86.74,19.24A29.13,29.13,0,0,0,64,16.67C66.21,11.5,68.14,5.45,65.59,4,61,1.41,51.24,18.59,50.82,19.32a55.52,55.52,0,0,0-6.14,17.13c-1.16,2-3.71,6.48-6.91,12.09C26.63,45,15.23,44.25,6.94,54.24a20,20,0,0,0-1.52,23,20.27,20.27,0,0,0,11,8.94c-3.39,6-5.64,10.06-5.58,10.08l.91-.18,6-9.48a24,24,0,0,0,6.31.83,28.5,28.5,0,0,0,5.64-.58.57.57,0,0,0,.45-.68.58.58,0,0,0-.68-.45,24.92,24.92,0,0,1-11.07-.15c6.19-9.76,15.41-24.33,22.05-34.92C44.22,52,48,53.6,51.46,55.1c2.06.88,4,1.71,5.86,2.46,11.37,4.54,22.61,4.67,30.09.35,5.44-3.14,8.74-8.43,9.8-15.73C98.63,32.39,94.81,24,86.74,19.24ZM52.83,20.46C58.27,10.86,63.11,6.13,64.44,6,64.91,7,64,11.26,61,17.72a28.82,28.82,0,0,0-6.4,3.59.58.58,0,0,0-.11.81.57.57,0,0,0,.8.11A28.06,28.06,0,0,1,60.2,19.3C59.55,20.6,58.83,22,58,23.4A45.56,45.56,0,0,1,47.12,36,54,54,0,0,1,52.83,20.46ZM17,85.16a19.18,19.18,0,0,1-10.55-8.5A18.63,18.63,0,0,1,7.83,55c7.78-9.39,18.65-8.74,29.36-5.41C31,60.44,22.6,75.17,17,85.16ZM96.07,42C95.06,49,92,54,86.84,56.92c-8.45,4.87-20.57,3-29.09-.43-1.85-.74-3.81-1.58-5.84-2.45-3.46-1.48-7.12-3-10.85-4.38,3.48-5.56,6.16-9.87,7.17-11.6A47.5,47.5,0,0,0,60,24.54c.16-.29,1.71-3,3.29-6.46a28.08,28.08,0,0,1,22.84,2.15C93.8,24.77,97.42,32.71,96.07,42Z"/><text x="0" y="115" fill="#000000" font-size="5px" font-weight="bold" font-family="'Helvetica Neue', Helvetica, Arial-Unicode, Arial, Sans-serif">Created by Studio GLD</text><text x="0" y="120" fill="#000000" font-size="5px" font-weight="bold" font-family="'Helvetica Neue', Helvetica, Arial-Unicode, Arial, Sans-serif">from the Noun Project</text></svg>