<svg xmlns="http://www.w3.org/2000/svg" xmlns:xlink="http://www.w3.org/1999/xlink" version="1.1" x="0px" y="0px" viewBox="0 0 100 125" style="enable-background:new 0 0 100 100;" xml:space="preserve"><g><path d="M28.947,82.393c7.458,0,13.526-6.068,13.526-13.525c0-7.459-6.067-13.526-13.526-13.526   c-7.458,0-13.525,6.067-13.525,13.526C15.422,76.324,21.489,82.393,28.947,82.393z M28.947,57.27   c6.395,0,11.597,5.203,11.597,11.598c0,6.394-5.202,11.596-11.597,11.596c-6.394,0-11.596-5.202-11.596-11.596   C17.351,62.473,22.553,57.27,28.947,57.27z M47.81,44.095c0-0.533-0.432-0.964-0.964-0.964h-0.918   c-0.522-4.712-3.215-9.158-7.075-12.02h-6.869v-1.377h2.052V17.85H23.859v11.884h2.052v1.377h-6.868   c-3.86,2.861-6.553,7.308-7.075,12.02h-0.918c-0.533,0-0.964,0.432-0.964,0.964c0,0.523,0.417,0.946,0.936,0.962v53.018   c-0.519,0.016-0.936,0.438-0.936,0.961c0,0.533,0.432,0.965,0.964,0.965h35.796c0.533,0,0.964-0.432,0.964-0.965   c0-0.522-0.417-0.945-0.936-0.961V45.057C47.394,45.041,47.81,44.618,47.81,44.095z M32.107,24.368   c-0.088,0.088-1.029,0.022-1.029-0.8c0-0.796,0.854-0.879,1.029-0.8V24.368z M25.788,27.805v-8.026h6.319v1.041   c-0.75-0.146-2.958,0.522-2.958,2.749c0,2.023,1.917,2.9,2.958,2.748v1.489H25.788z M30.055,29.734v1.377H27.84v-1.377H30.055z    M19.685,33.041H38.21c3.222,2.49,5.275,6.099,5.774,10.09H13.91C14.41,39.139,16.463,35.53,19.685,33.041z M44.945,98.07H12.95   V45.06h31.996V98.07z M84.301,0v5.614h5.614V0H84.301z M87.986,3.685H86.23V1.929h1.756V3.685z M84.301,13.808h5.614V8.195h-5.614   V13.808z M86.23,10.124h1.756v1.755H86.23V10.124z M84.301,22.002h5.614v-5.614h-5.614V22.002z M86.23,18.318h1.756v1.756H86.23   V18.318z M84.301,30.197h5.614v-5.613h-5.614V30.197z M86.23,26.513h1.756v1.755H86.23V26.513z M84.301,38.392h5.614v-5.614h-5.614   V38.392z M86.23,34.707h1.756v1.756H86.23V34.707z M84.301,46.586h5.614v-5.614h-5.614V46.586z M86.23,42.901h1.756v1.755H86.23   V42.901z M75.142,9.725h5.613V4.111h-5.613V9.725z M77.07,6.04h1.756v1.755H77.07V6.04z M75.142,17.919h5.613v-5.613h-5.613V17.919   z M77.07,14.234h1.756v1.755H77.07V14.234z M75.142,26.114h5.613V20.5h-5.613V26.114z M77.07,22.429h1.756v1.756H77.07V22.429z    M75.142,34.308h5.613v-5.614h-5.613V34.308z M77.07,30.624h1.756v1.755H77.07V30.624z M75.142,42.502h5.613v-5.614h-5.613V42.502z    M77.07,38.818h1.756v1.755H77.07V38.818z M65.98,13.835h5.614V8.222H65.98V13.835z M67.91,10.151h1.756v1.755H67.91V10.151z    M65.98,22.03h5.614v-5.613H65.98V22.03z M67.91,18.346h1.756v1.755H67.91V18.346z M65.98,30.225h5.614v-5.614H65.98V30.225z    M67.91,26.54h1.756v1.755H67.91V26.54z M65.98,38.419h5.614v-5.614H65.98V38.419z M67.91,34.734h1.756v1.755H67.91V34.734z    M56.82,18.221h5.614v-5.614H56.82V18.221z M58.75,14.536h1.756v1.755H58.75V14.536z M56.82,26.415h5.614v-5.614H56.82V26.415z    M58.75,22.73h1.756v1.755H58.75V22.73z M56.82,34.609h5.614v-5.614H56.82V34.609z M58.75,30.925h1.756v1.755H58.75V30.925z    M47.661,22.058h5.614v-5.614h-5.614V22.058z M49.59,18.373h1.756v1.756H49.59V18.373z M47.661,30.252h5.614v-5.614h-5.614V30.252z    M49.59,26.567h1.756v1.755H49.59V26.567z M44.114,20.801H38.5v5.614h5.614V20.801z M42.185,24.486H40.43V22.73h1.755V24.486z"/></g><text x="0" y="115" fill="#000000" font-size="5px" font-weight="bold" font-family="'Helvetica Neue', Helvetica, Arial-Unicode, Arial, Sans-serif">Created by b farias</text><text x="0" y="120" fill="#000000" font-size="5px" font-weight="bold" font-family="'Helvetica Neue', Helvetica, Arial-Unicode, Arial, Sans-serif">from the Noun Project</text></svg>