<svg xmlns="http://www.w3.org/2000/svg" xmlns:xlink="http://www.w3.org/1999/xlink" version="1.1" x="0px" y="0px" viewBox="0 0 100 125" enable-background="new 0 0 100 100" xml:space="preserve"><g><path d="M54.427,11.267h-8.854V8.5h8.854V11.267z M64.387,60.514H35.613v3.319h28.774V60.514z M51.106,64.387h-2.213v7.747h2.213   V64.387z M48.34,64.387H35.613v7.747H48.34V64.387z M48.34,72.687H35.613v14.94H48.34V72.687z M64.387,64.387H51.66v7.747h12.727   V64.387z M48.34,88.18H35.613v3.32H48.34V88.18z M64.387,88.18H51.66v3.32h12.727V88.18z M64.387,72.687H51.66v14.94h12.727V72.687   z M61.066,32.847H38.933l-3.32,27.113h28.774L61.066,32.847z M56.64,30.496H43.36l1.107,1.798h11.066L56.64,30.496z M59.96,15.14   c0-1.833-1.486-3.32-3.32-3.32H43.36c-1.833,0-3.32,1.487-3.32,3.32v11.62c0,1.833,1.486,3.32,3.32,3.32h13.28   c1.834,0,3.32-1.487,3.32-3.32V15.14z M36.72,46.029l1.66-12.727l-7.193,6.086l-3.094,16.047c0.741-0.456,1.89-0.652,2.836-0.507   c0.858,0.132,1.557,0.501,2.098,1.02L36.72,46.029z M32.699,56.827c-0.541-0.519-1.24-0.889-2.098-1.021   c-0.946-0.145-1.822,0.069-2.563,0.525c-1.081,0.665-1.866,1.861-2.092,3.333c-0.23,1.487,0.159,2.056,0.688,2.138   c0.459-3,1.819-4.293,3.606-4.019c1.897,0.29,2.805,1.952,2.348,4.933c0.53,0.08,1.069-0.346,1.297-1.835   C34.133,59.273,33.695,57.784,32.699,56.827z M66.974,55.949c0.541-0.519,1.239-0.888,2.097-1.02   c0.947-0.146,2.096,0.051,2.837,0.507l-3.094-16.047l-7.193-6.086l1.66,12.727L66.974,55.949z M66.113,60.882   c0.229,1.489,0.768,1.915,1.297,1.835c-0.456-2.98,0.452-4.643,2.35-4.933c1.788-0.274,3.147,1.019,3.605,4.019   c0.529-0.082,0.919-0.65,0.688-2.138c-0.225-1.472-1.011-2.668-2.091-3.333c-0.742-0.456-1.617-0.67-2.562-0.525   c-0.858,0.132-1.558,0.502-2.099,1.021C66.305,57.784,65.867,59.273,66.113,60.882z"/></g><text x="0" y="115" fill="#000000" font-size="5px" font-weight="bold" font-family="'Helvetica Neue', Helvetica, Arial-Unicode, Arial, Sans-serif">Created by Pavel Brek</text><text x="0" y="120" fill="#000000" font-size="5px" font-weight="bold" font-family="'Helvetica Neue', Helvetica, Arial-Unicode, Arial, Sans-serif">from the Noun Project</text></svg>