<svg xmlns="http://www.w3.org/2000/svg" data-name="Layer 1" viewBox="0 0 100 125" x="0px" y="0px"><title>Artboard 18</title><path d="M8.77,94.89H66.34a7.28,7.28,0,0,0,7.27-7.27V78.39a2.5,2.5,0,0,0-5,0v9.23a2.27,2.27,0,0,1-2.27,2.27H8.77A2.27,2.27,0,0,1,6.5,87.63V31.56H21.93a6,6,0,0,0,6-6V10.11H66.34a2.27,2.27,0,0,1,2.26,2.26V25.44a2.5,2.5,0,0,0,5,0V12.37a7.27,7.27,0,0,0-7.26-7.26H27.6a7.63,7.63,0,0,0-5.44,2.25L3.76,25.77A7.64,7.64,0,0,0,1.5,31.21V87.63A7.27,7.27,0,0,0,8.77,94.89ZM23,13.64V25.53a1,1,0,0,1-1,1H10Z"/><path d="M56.06,32.6a2.5,2.5,0,1,0,0-5H39.68a2.5,2.5,0,0,0,0,5Z"/><path d="M16,42.48A2.5,2.5,0,0,0,18.5,45H54.63a2.5,2.5,0,0,0,0-5H18.5A2.5,2.5,0,0,0,16,42.48Z"/><path d="M42.24,54.86a2.5,2.5,0,0,0-2.5-2.5H18.5a2.5,2.5,0,1,0,0,5H39.74A2.5,2.5,0,0,0,42.24,54.86Z"/><path d="M35.18,67.24a2.5,2.5,0,0,0-2.5-2.5H18.5a2.5,2.5,0,1,0,0,5H32.68A2.5,2.5,0,0,0,35.18,67.24Z"/><path d="M93.14,45.24,95.29,43a11.1,11.1,0,0,0,.13-15.47,10.82,10.82,0,0,0-7.75-3.23h0a10.8,10.8,0,0,0-7.75,3.28L48.55,59.17A37.55,37.55,0,0,0,38.26,79.9a4.69,4.69,0,0,0,4.64,5.39,4.61,4.61,0,0,0,.82-.07A37.53,37.53,0,0,0,64.14,74.39L88.33,50.07l3.62,3.52L77.63,68.29a2.5,2.5,0,1,0,3.58,3.49L95.67,56.93a4.79,4.79,0,0,0-.1-6.78l-3.73-3.62,1.27-1.27ZM60.58,70.89a32.57,32.57,0,0,1-17.31,9.32,32.55,32.55,0,0,1,8.84-17.54L83.45,31.1a5.85,5.85,0,0,1,4.2-1.78h0a5.86,5.86,0,0,1,4.19,1.75,6.07,6.07,0,0,1-.16,8.46l-2.14,2.2Z"/><path d="M18.5,77.11a2.5,2.5,0,1,0,0,5H30a2.5,2.5,0,1,0,0-5Z"/><text x="0" y="115" fill="#000000" font-size="5px" font-weight="bold" font-family="'Helvetica Neue', Helvetica, Arial-Unicode, Arial, Sans-serif">Created by Gregor Cresnar</text><text x="0" y="120" fill="#000000" font-size="5px" font-weight="bold" font-family="'Helvetica Neue', Helvetica, Arial-Unicode, Arial, Sans-serif">from the Noun Project</text></svg>